<svg xmlns="http://www.w3.org/2000/svg" xmlns:xlink="http://www.w3.org/1999/xlink" width="500" zoomAndPan="magnify" viewBox="0 0 375 374.999991" height="500" preserveAspectRatio="xMidYMid meet" version="1.0"><defs><clipPath id="0b67f1435a"><path d="M 9 8.671875 L 366.808594 8.671875 L 366.808594 366.421875 L 9 366.421875 Z M 9 8.671875 " clip-rule="nonzero"/></clipPath><clipPath id="e752682f15"><path d="M 61 187 L 366.808594 187 L 366.808594 366.421875 L 61 366.421875 Z M 61 187 " clip-rule="nonzero"/></clipPath></defs><g clip-path="url(#0b67f1435a)"><path fill="#f0f0f0" d="M 366.808594 187.546875 C 366.808594 190.472656 366.738281 193.398438 366.59375 196.320312 C 366.449219 199.242188 366.234375 202.160156 365.949219 205.074219 C 365.660156 207.988281 365.300781 210.890625 364.875 213.785156 C 364.445312 216.679688 363.945312 219.5625 363.375 222.433594 C 362.800781 225.300781 362.160156 228.15625 361.449219 230.996094 C 360.738281 233.835938 359.960938 236.65625 359.109375 239.453125 C 358.261719 242.253906 357.34375 245.035156 356.359375 247.789062 C 355.371094 250.542969 354.320312 253.273438 353.199219 255.976562 C 352.082031 258.679688 350.894531 261.355469 349.644531 264 C 348.394531 266.648438 347.078125 269.261719 345.699219 271.839844 C 344.320312 274.421875 342.878906 276.96875 341.375 279.476562 C 339.871094 281.988281 338.304688 284.460938 336.679688 286.894531 C 335.054688 289.324219 333.371094 291.71875 331.628906 294.070312 C 329.882812 296.417969 328.085938 298.726562 326.230469 300.988281 C 324.371094 303.25 322.460938 305.464844 320.496094 307.632812 C 318.53125 309.800781 316.515625 311.921875 314.449219 313.988281 C 312.378906 316.058594 310.261719 318.078125 308.09375 320.042969 C 305.925781 322.007812 303.710938 323.917969 301.449219 325.773438 C 299.1875 327.632812 296.882812 329.429688 294.53125 331.175781 C 292.179688 332.917969 289.789062 334.601562 287.355469 336.226562 C 284.925781 337.855469 282.453125 339.417969 279.945312 340.925781 C 277.433594 342.429688 274.890625 343.871094 272.308594 345.25 C 269.730469 346.628906 267.117188 347.945312 264.472656 349.195312 C 261.828125 350.449219 259.152344 351.632812 256.449219 352.753906 C 253.746094 353.871094 251.019531 354.925781 248.261719 355.910156 C 245.507812 356.898438 242.730469 357.816406 239.933594 358.664062 C 237.132812 359.515625 234.3125 360.292969 231.476562 361.003906 C 228.636719 361.714844 225.785156 362.359375 222.914062 362.929688 C 220.042969 363.5 217.164062 364 214.269531 364.429688 C 211.375 364.859375 208.472656 365.214844 205.558594 365.503906 C 202.648438 365.789062 199.730469 366.003906 196.808594 366.148438 C 193.886719 366.292969 190.964844 366.363281 188.039062 366.363281 C 185.113281 366.363281 182.1875 366.292969 179.265625 366.148438 C 176.34375 366.003906 173.425781 365.789062 170.515625 365.503906 C 167.601562 365.214844 164.699219 364.859375 161.804688 364.429688 C 158.910156 364 156.03125 363.5 153.160156 362.929688 C 150.292969 362.359375 147.4375 361.714844 144.597656 361.003906 C 141.761719 360.292969 138.941406 359.515625 136.144531 358.664062 C 133.34375 357.816406 130.566406 356.898438 127.8125 355.910156 C 125.054688 354.925781 122.328125 353.871094 119.625 352.753906 C 116.921875 351.632812 114.246094 350.449219 111.601562 349.195312 C 108.957031 347.945312 106.34375 346.628906 103.765625 345.25 C 101.183594 343.871094 98.640625 342.429688 96.128906 340.925781 C 93.621094 339.417969 91.148438 337.855469 88.71875 336.226562 C 86.285156 334.601562 83.894531 332.917969 81.542969 331.175781 C 79.195312 329.429688 76.886719 327.632812 74.625 325.773438 C 72.363281 323.917969 70.148438 322.007812 67.980469 320.042969 C 65.8125 318.078125 63.695312 316.058594 61.628906 313.988281 C 59.558594 311.921875 57.542969 309.800781 55.578125 307.632812 C 53.613281 305.464844 51.703125 303.25 49.84375 300.988281 C 47.988281 298.726562 46.191406 296.417969 44.445312 294.070312 C 42.703125 291.71875 41.019531 289.324219 39.394531 286.894531 C 37.769531 284.460938 36.203125 281.988281 34.699219 279.476562 C 33.195312 276.96875 31.753906 274.421875 30.375 271.839844 C 28.996094 269.261719 27.679688 266.648438 26.429688 264 C 25.179688 261.355469 23.992188 258.679688 22.875 255.976562 C 21.753906 253.273438 20.703125 250.542969 19.714844 247.789062 C 18.730469 245.035156 17.8125 242.253906 16.964844 239.453125 C 16.113281 236.65625 15.335938 233.835938 14.625 230.996094 C 13.914062 228.15625 13.273438 225.300781 12.703125 222.433594 C 12.128906 219.5625 11.628906 216.679688 11.203125 213.785156 C 10.773438 210.890625 10.414062 207.988281 10.128906 205.074219 C 9.839844 202.160156 9.625 199.242188 9.480469 196.320312 C 9.339844 193.398438 9.265625 190.472656 9.265625 187.546875 C 9.265625 184.621094 9.339844 181.695312 9.480469 178.773438 C 9.625 175.851562 9.839844 172.933594 10.128906 170.019531 C 10.414062 167.105469 10.773438 164.203125 11.203125 161.308594 C 11.628906 158.414062 12.128906 155.53125 12.703125 152.660156 C 13.273438 149.789062 13.914062 146.9375 14.625 144.097656 C 15.335938 141.257812 16.113281 138.4375 16.964844 135.640625 C 17.8125 132.839844 18.730469 130.058594 19.714844 127.304688 C 20.703125 124.550781 21.753906 121.820312 22.875 119.117188 C 23.992188 116.414062 25.179688 113.738281 26.429688 111.09375 C 27.679688 108.445312 28.996094 105.832031 30.375 103.253906 C 31.753906 100.671875 33.195312 98.125 34.699219 95.617188 C 36.203125 93.105469 37.769531 90.632812 39.394531 88.199219 C 41.019531 85.769531 42.703125 83.375 44.445312 81.023438 C 46.191406 78.675781 47.988281 76.367188 49.84375 74.105469 C 51.703125 71.84375 53.613281 69.628906 55.578125 67.460938 C 57.542969 65.292969 59.558594 63.171875 61.628906 61.105469 C 63.695312 59.035156 65.8125 57.015625 67.980469 55.050781 C 70.148438 53.085938 72.363281 51.175781 74.625 49.320312 C 76.886719 47.460938 79.195312 45.664062 81.542969 43.917969 C 83.894531 42.175781 86.285156 40.492188 88.71875 38.867188 C 91.148438 37.238281 93.621094 35.675781 96.128906 34.167969 C 98.640625 32.664062 101.183594 31.222656 103.765625 29.84375 C 106.34375 28.464844 108.957031 27.148438 111.601562 25.898438 C 114.246094 24.644531 116.921875 23.460938 119.625 22.339844 C 122.328125 21.222656 125.054688 20.167969 127.8125 19.183594 C 130.566406 18.195312 133.34375 17.277344 136.144531 16.429688 C 138.941406 15.578125 141.761719 14.800781 144.597656 14.089844 C 147.4375 13.375 150.292969 12.734375 153.160156 12.164062 C 156.03125 11.59375 158.910156 11.09375 161.804688 10.664062 C 164.699219 10.234375 167.601562 9.878906 170.515625 9.589844 C 173.425781 9.304688 176.34375 9.089844 179.265625 8.945312 C 182.1875 8.800781 185.113281 8.730469 188.039062 8.730469 C 190.964844 8.730469 193.886719 8.800781 196.808594 8.945312 C 199.730469 9.089844 202.648438 9.304688 205.558594 9.589844 C 208.472656 9.878906 211.375 10.234375 214.269531 10.664062 C 217.164062 11.09375 220.042969 11.59375 222.914062 12.164062 C 225.785156 12.734375 228.636719 13.375 231.476562 14.089844 C 234.3125 14.800781 237.132812 15.578125 239.933594 16.429688 C 242.730469 17.277344 245.507812 18.195312 248.261719 19.183594 C 251.019531 20.167969 253.746094 21.222656 256.449219 22.339844 C 259.152344 23.460938 261.828125 24.644531 264.472656 25.898438 C 267.117188 27.148438 269.730469 28.464844 272.308594 29.84375 C 274.890625 31.222656 277.433594 32.664062 279.945312 34.167969 C 282.453125 35.675781 284.925781 37.238281 287.355469 38.867188 C 289.789062 40.492188 292.179688 42.175781 294.53125 43.917969 C 296.882812 45.664062 299.1875 47.460938 301.449219 49.320312 C 303.710938 51.175781 305.925781 53.085938 308.09375 55.050781 C 310.261719 57.015625 312.378906 59.035156 314.449219 61.105469 C 316.515625 63.171875 318.53125 65.292969 320.496094 67.460938 C 322.460938 69.628906 324.371094 71.84375 326.230469 74.105469 C 328.085938 76.367188 329.882812 78.675781 331.628906 81.023438 C 333.371094 83.375 335.054688 85.769531 336.679688 88.199219 C 338.304688 90.632812 339.871094 93.105469 341.375 95.617188 C 342.878906 98.125 344.320312 100.671875 345.699219 103.253906 C 347.078125 105.832031 348.394531 108.445312 349.644531 111.09375 C 350.894531 113.738281 352.082031 116.414062 353.199219 119.117188 C 354.320312 121.820312 355.371094 124.550781 356.359375 127.304688 C 357.34375 130.058594 358.261719 132.839844 359.109375 135.640625 C 359.960938 138.4375 360.738281 141.257812 361.449219 144.097656 C 362.160156 146.9375 362.800781 149.789062 363.375 152.660156 C 363.945312 155.53125 364.445312 158.414062 364.875 161.308594 C 365.300781 164.203125 365.660156 167.105469 365.949219 170.019531 C 366.234375 172.933594 366.449219 175.851562 366.59375 178.773438 C 366.738281 181.695312 366.808594 184.621094 366.808594 187.546875 Z M 366.808594 187.546875 " fill-opacity="1" fill-rule="nonzero"/></g><g clip-path="url(#e752682f15)"><path fill="#d80027" d="M 172.492188 187.546875 C 172.492188 187.546875 61.730469 314.015625 61.625 313.988281 C 93.976562 346.351562 138.671875 366.363281 188.039062 366.363281 C 286.769531 366.363281 366.808594 286.304688 366.808594 187.546875 Z M 172.492188 187.546875 " fill-opacity="1" fill-rule="nonzero"/></g><path fill="#0052b4" d="M 61.625 61.101562 C -8.1875 130.9375 -8.1875 244.15625 61.625 313.992188 C 90.476562 285.132812 118.222656 257.378906 188.039062 187.546875 Z M 61.625 61.101562 " fill-opacity="1" fill-rule="nonzero"/></svg>