<svg xmlns="http://www.w3.org/2000/svg" xmlns:xlink="http://www.w3.org/1999/xlink" width="500" zoomAndPan="magnify" viewBox="0 0 375 374.999991" height="500" preserveAspectRatio="xMidYMid meet" version="1.0"><defs><clipPath id="3aec69336d"><path d="M 0 171 L 374.808594 171 L 374.808594 203 L 0 203 Z M 0 171 " clip-rule="nonzero"/></clipPath><clipPath id="218f3ed6db"><path d="M 81 342 L 293 342 L 293 374.25 L 81 374.25 Z M 81 342 " clip-rule="nonzero"/></clipPath><clipPath id="84b81c2dc6"><path d="M 0 145 L 374.808594 145 L 374.808594 172 L 0 172 Z M 0 145 " clip-rule="nonzero"/></clipPath><clipPath id="9d7b6d0ee8"><path d="M 0 202 L 374.808594 202 L 374.808594 229 L 0 229 Z M 0 202 " clip-rule="nonzero"/></clipPath></defs><path fill="#ac2037" d="M 3.808594 145.613281 L 370.085938 145.613281 C 367.699219 135.027344 364.421875 124.777344 360.335938 114.953125 L 13.558594 114.953125 C 9.472656 124.777344 6.195312 135.027344 3.808594 145.613281 " fill-opacity="1" fill-rule="nonzero"/><g clip-path="url(#3aec69336d)"><path fill="#ac2037" d="M -0.792969 187.117188 C -0.792969 192.277344 -0.574219 197.390625 -0.167969 202.445312 L 374.0625 202.445312 C 374.46875 197.390625 374.6875 192.277344 374.6875 187.117188 C 374.6875 181.953125 374.46875 176.839844 374.0625 171.785156 L -0.167969 171.785156 C -0.574219 176.839844 -0.792969 181.953125 -0.792969 187.117188 " fill-opacity="1" fill-rule="nonzero"/></g><path fill="#ac2037" d="M 13.558594 259.277344 L 360.335938 259.277344 C 364.421875 249.453125 367.699219 239.203125 370.085938 228.617188 L 3.808594 228.617188 C 6.195312 239.203125 9.472656 249.453125 13.558594 259.277344 " fill-opacity="1" fill-rule="nonzero"/><path fill="#ac2037" d="M 50.429688 316.113281 L 323.460938 316.113281 C 332.292969 306.75 340.171875 296.476562 346.953125 285.453125 L 26.9375 285.453125 C 33.71875 296.476562 41.597656 306.75 50.429688 316.113281 " fill-opacity="1" fill-rule="nonzero"/><path fill="#ac2037" d="M 26.9375 88.78125 L 346.953125 88.78125 C 340.175781 77.757812 332.292969 67.484375 323.460938 58.121094 L 50.429688 58.121094 C 41.597656 67.484375 33.714844 77.757812 26.9375 88.78125 " fill-opacity="1" fill-rule="nonzero"/><g clip-path="url(#218f3ed6db)"><path fill="#ac2037" d="M 81.019531 342.28125 C 106.6875 359.875 136.9375 371.246094 169.613281 374.238281 L 204.277344 374.238281 C 236.953125 371.246094 267.203125 359.875 292.871094 342.28125 L 81.019531 342.28125 " fill-opacity="1" fill-rule="nonzero"/></g><path fill="#ac2037" d="M 292.875 31.949219 C 267.203125 14.355469 236.949219 2.984375 204.269531 -0.0078125 L 169.621094 -0.0078125 C 136.945312 2.984375 106.6875 14.355469 81.019531 31.949219 L 292.875 31.949219 " fill-opacity="1" fill-rule="nonzero"/><path fill="#ffffff" d="M 50.429688 58.121094 L 323.460938 58.121094 C 314.246094 48.347656 303.988281 39.566406 292.875 31.949219 L 81.019531 31.949219 C 69.90625 39.566406 59.648438 48.347656 50.429688 58.121094 " fill-opacity="1" fill-rule="nonzero"/><path fill="#ffffff" d="M 13.558594 114.953125 L 360.332031 114.953125 C 356.542969 105.847656 352.0625 97.101562 346.953125 88.78125 L 26.9375 88.78125 C 21.828125 97.101562 17.34375 105.847656 13.558594 114.953125 " fill-opacity="1" fill-rule="nonzero"/><g clip-path="url(#84b81c2dc6)"><path fill="#ffffff" d="M -0.167969 171.785156 L 374.0625 171.785156 C 373.34375 162.871094 372.003906 154.132812 370.085938 145.613281 L 3.808594 145.613281 C 1.890625 154.132812 0.550781 162.871094 -0.167969 171.785156 " fill-opacity="1" fill-rule="nonzero"/></g><g clip-path="url(#9d7b6d0ee8)"><path fill="#ffffff" d="M 3.808594 228.617188 L 370.085938 228.617188 C 372.003906 220.097656 373.34375 211.359375 374.0625 202.445312 L -0.167969 202.445312 C 0.550781 211.359375 1.890625 220.097656 3.808594 228.617188 " fill-opacity="1" fill-rule="nonzero"/></g><path fill="#ffffff" d="M 26.9375 285.453125 L 346.953125 285.453125 C 352.0625 277.132812 356.542969 268.390625 360.332031 259.28125 L 13.558594 259.28125 C 17.34375 268.390625 21.828125 277.132812 26.9375 285.453125 " fill-opacity="1" fill-rule="nonzero"/><path fill="#ffffff" d="M 81.019531 342.28125 L 292.871094 342.28125 C 303.988281 334.664062 314.238281 325.882812 323.460938 316.113281 L 50.429688 316.113281 C 59.652344 325.882812 69.902344 334.664062 81.019531 342.28125 " fill-opacity="1" fill-rule="nonzero"/><path fill="#22325e" d="M 203.671875 -0.0078125 L 169.621094 -0.0078125 C 74.058594 8.746094 -0.792969 89.175781 -0.792969 187.117188 C -0.792969 192.277344 -0.574219 197.390625 -0.167969 202.445312 L 203.671875 202.445312 L 203.671875 -0.0078125 " fill-opacity="1" fill-rule="nonzero"/><path fill="#ffffff" d="M 27.949219 172.480469 L 31.09375 178.851562 L 38.121094 179.875 L 33.035156 184.835938 L 34.234375 191.839844 L 27.949219 188.535156 L 21.664062 191.839844 L 22.867188 184.835938 L 17.78125 179.875 L 24.808594 178.851562 L 27.949219 172.480469 " fill-opacity="1" fill-rule="nonzero"/><path fill="#ffffff" d="M 27.949219 132.007812 L 31.09375 138.378906 L 38.121094 139.402344 L 33.035156 144.363281 L 34.234375 151.371094 L 27.949219 148.0625 L 21.664062 151.371094 L 22.867188 144.363281 L 17.78125 139.402344 L 24.808594 138.378906 L 27.949219 132.007812 " fill-opacity="1" fill-rule="nonzero"/><path fill="#ffffff" d="M 34.238281 91.539062 L 37.378906 97.914062 L 44.40625 98.9375 L 39.320312 103.898438 L 40.519531 110.898438 L 34.238281 107.59375 L 27.953125 110.898438 L 29.152344 103.898438 L 24.066406 98.9375 L 31.09375 97.914062 L 34.238281 91.539062 " fill-opacity="1" fill-rule="nonzero"/><path fill="#ffffff" d="M 53.917969 153.117188 L 57.058594 159.488281 L 64.085938 160.511719 L 59 165.472656 L 60.199219 172.480469 L 53.917969 169.167969 L 47.632812 172.480469 L 48.832031 165.472656 L 43.746094 160.511719 L 50.773438 159.488281 L 53.917969 153.117188 " fill-opacity="1" fill-rule="nonzero"/><path fill="#ffffff" d="M 53.917969 112.648438 L 57.058594 119.019531 L 64.085938 120.042969 L 59 125.003906 L 60.199219 132.007812 L 53.917969 128.703125 L 47.632812 132.007812 L 48.832031 125.003906 L 43.746094 120.042969 L 50.773438 119.019531 L 53.917969 112.648438 " fill-opacity="1" fill-rule="nonzero"/><path fill="#ffffff" d="M 53.917969 72.175781 L 57.058594 78.550781 L 64.085938 79.570312 L 59 84.53125 L 60.199219 91.539062 L 53.917969 88.230469 L 47.632812 91.539062 L 48.832031 84.53125 L 43.746094 79.570312 L 50.773438 78.550781 L 53.917969 72.175781 " fill-opacity="1" fill-rule="nonzero"/><path fill="#ffffff" d="M 79.101562 172.480469 L 82.242188 178.851562 L 89.269531 179.875 L 84.183594 184.835938 L 85.386719 191.839844 L 79.101562 188.535156 L 72.816406 191.839844 L 74.015625 184.835938 L 68.929688 179.875 L 75.957031 178.851562 L 79.101562 172.480469 " fill-opacity="1" fill-rule="nonzero"/><path fill="#ffffff" d="M 79.101562 132.007812 L 82.242188 138.378906 L 89.269531 139.402344 L 84.183594 144.363281 L 85.386719 151.371094 L 79.101562 148.0625 L 72.816406 151.371094 L 74.015625 144.363281 L 68.929688 139.402344 L 75.957031 138.378906 L 79.101562 132.007812 " fill-opacity="1" fill-rule="nonzero"/><path fill="#ffffff" d="M 79.101562 91.539062 L 82.242188 97.914062 L 89.269531 98.9375 L 84.183594 103.898438 L 85.386719 110.898438 L 79.101562 107.59375 L 72.816406 110.898438 L 74.015625 103.898438 L 68.929688 98.9375 L 75.957031 97.914062 L 79.101562 91.539062 " fill-opacity="1" fill-rule="nonzero"/><path fill="#ffffff" d="M 79.101562 51.066406 L 82.242188 57.4375 L 89.269531 58.464844 L 84.183594 63.421875 L 85.386719 70.429688 L 79.101562 67.121094 L 72.816406 70.429688 L 74.015625 63.421875 L 68.933594 58.464844 L 75.957031 57.4375 L 79.101562 51.066406 " fill-opacity="1" fill-rule="nonzero"/><path fill="#ffffff" d="M 105.066406 153.117188 L 108.207031 159.488281 L 115.234375 160.511719 L 110.152344 165.472656 L 111.351562 172.480469 L 105.066406 169.167969 L 98.78125 172.480469 L 99.980469 165.472656 L 94.898438 160.511719 L 101.925781 159.488281 L 105.066406 153.117188 " fill-opacity="1" fill-rule="nonzero"/><path fill="#ffffff" d="M 105.066406 112.648438 L 108.207031 119.019531 L 115.234375 120.042969 L 110.152344 125.003906 L 111.351562 132.007812 L 105.066406 128.703125 L 98.78125 132.007812 L 99.980469 125.003906 L 94.898438 120.042969 L 101.925781 119.019531 L 105.066406 112.648438 " fill-opacity="1" fill-rule="nonzero"/><path fill="#ffffff" d="M 105.066406 72.175781 L 108.207031 78.550781 L 115.234375 79.570312 L 110.152344 84.53125 L 111.351562 91.539062 L 105.066406 88.230469 L 98.78125 91.539062 L 99.980469 84.53125 L 94.898438 79.570312 L 101.925781 78.550781 L 105.066406 72.175781 " fill-opacity="1" fill-rule="nonzero"/><path fill="#ffffff" d="M 105.066406 31.707031 L 108.207031 38.078125 L 115.234375 39.105469 L 110.152344 44.066406 L 111.351562 51.070312 L 105.066406 47.761719 L 98.78125 51.070312 L 99.980469 44.066406 L 94.898438 39.105469 L 101.925781 38.078125 L 105.066406 31.707031 " fill-opacity="1" fill-rule="nonzero"/><path fill="#ffffff" d="M 130.25 172.480469 L 133.394531 178.851562 L 140.421875 179.875 L 135.335938 184.835938 L 136.535156 191.839844 L 130.25 188.535156 L 123.964844 191.839844 L 125.164062 184.835938 L 120.082031 179.875 L 127.109375 178.851562 L 130.25 172.480469 " fill-opacity="1" fill-rule="nonzero"/><path fill="#ffffff" d="M 130.25 132.007812 L 133.394531 138.378906 L 140.421875 139.402344 L 135.335938 144.363281 L 136.535156 151.371094 L 130.25 148.0625 L 123.964844 151.371094 L 125.164062 144.363281 L 120.082031 139.402344 L 127.109375 138.378906 L 130.25 132.007812 " fill-opacity="1" fill-rule="nonzero"/><path fill="#ffffff" d="M 130.25 91.539062 L 133.394531 97.914062 L 140.421875 98.9375 L 135.335938 103.898438 L 136.535156 110.898438 L 130.25 107.59375 L 123.964844 110.898438 L 125.164062 103.898438 L 120.082031 98.9375 L 127.109375 97.914062 L 130.25 91.539062 " fill-opacity="1" fill-rule="nonzero"/><path fill="#ffffff" d="M 130.25 51.066406 L 133.394531 57.4375 L 140.421875 58.464844 L 135.335938 63.421875 L 136.535156 70.429688 L 130.25 67.121094 L 123.96875 70.429688 L 125.167969 63.421875 L 120.082031 58.464844 L 127.109375 57.4375 L 130.25 51.066406 " fill-opacity="1" fill-rule="nonzero"/><path fill="#ffffff" d="M 130.25 10.597656 L 133.394531 16.972656 L 140.421875 17.996094 L 135.335938 22.957031 L 136.535156 29.960938 L 130.25 26.652344 L 123.964844 29.960938 L 125.164062 22.957031 L 120.082031 17.996094 L 127.109375 16.972656 L 130.25 10.597656 " fill-opacity="1" fill-rule="nonzero"/><path fill="#ffffff" d="M 156.214844 153.117188 L 159.359375 159.488281 L 166.386719 160.511719 L 161.304688 165.472656 L 162.5 172.480469 L 156.214844 169.167969 L 149.933594 172.480469 L 151.132812 165.472656 L 146.046875 160.511719 L 153.074219 159.488281 L 156.214844 153.117188 " fill-opacity="1" fill-rule="nonzero"/><path fill="#ffffff" d="M 156.214844 112.648438 L 159.359375 119.019531 L 166.386719 120.042969 L 161.304688 125.003906 L 162.5 132.007812 L 156.214844 128.703125 L 149.933594 132.007812 L 151.132812 125.003906 L 146.046875 120.042969 L 153.074219 119.019531 L 156.214844 112.648438 " fill-opacity="1" fill-rule="nonzero"/><path fill="#ffffff" d="M 156.214844 72.175781 L 159.359375 78.550781 L 166.386719 79.570312 L 161.304688 84.53125 L 162.5 91.539062 L 156.214844 88.230469 L 149.933594 91.539062 L 151.132812 84.53125 L 146.046875 79.570312 L 153.074219 78.550781 L 156.214844 72.175781 " fill-opacity="1" fill-rule="nonzero"/><path fill="#ffffff" d="M 156.214844 31.707031 L 159.359375 38.078125 L 166.386719 39.105469 L 161.300781 44.066406 L 162.5 51.070312 L 156.214844 47.761719 L 149.933594 51.070312 L 151.132812 44.066406 L 146.046875 39.105469 L 153.074219 38.078125 L 156.214844 31.707031 " fill-opacity="1" fill-rule="nonzero"/><path fill="#ffffff" d="M 181.402344 172.480469 L 184.542969 178.851562 L 191.570312 179.875 L 186.484375 184.835938 L 187.683594 191.839844 L 181.402344 188.535156 L 175.117188 191.839844 L 176.316406 184.835938 L 171.230469 179.875 L 178.257812 178.851562 L 181.402344 172.480469 " fill-opacity="1" fill-rule="nonzero"/><path fill="#ffffff" d="M 181.402344 132.007812 L 184.542969 138.378906 L 191.570312 139.402344 L 186.484375 144.363281 L 187.683594 151.371094 L 181.402344 148.0625 L 175.117188 151.371094 L 176.316406 144.363281 L 171.230469 139.402344 L 178.257812 138.378906 L 181.402344 132.007812 " fill-opacity="1" fill-rule="nonzero"/><path fill="#ffffff" d="M 181.402344 91.539062 L 184.542969 97.914062 L 191.570312 98.9375 L 186.484375 103.898438 L 187.683594 110.898438 L 181.402344 107.59375 L 175.117188 110.898438 L 176.316406 103.898438 L 171.230469 98.9375 L 178.257812 97.914062 L 181.402344 91.539062 " fill-opacity="1" fill-rule="nonzero"/><path fill="#ffffff" d="M 181.402344 51.066406 L 184.542969 57.4375 L 191.574219 58.464844 L 186.484375 63.421875 L 187.683594 70.429688 L 181.402344 67.121094 L 175.117188 70.429688 L 176.316406 63.421875 L 171.230469 58.464844 L 178.261719 57.4375 L 181.402344 51.066406 " fill-opacity="1" fill-rule="nonzero"/><path fill="#ffffff" d="M 181.402344 10.597656 L 184.542969 16.972656 L 191.570312 17.996094 L 186.484375 22.957031 L 187.683594 29.960938 L 181.402344 26.652344 L 175.117188 29.960938 L 176.316406 22.957031 L 171.230469 17.996094 L 178.261719 16.972656 L 181.402344 10.597656 " fill-opacity="1" fill-rule="nonzero"/></svg>