<svg xmlns="http://www.w3.org/2000/svg" xmlns:xlink="http://www.w3.org/1999/xlink" width="500" zoomAndPan="magnify" viewBox="0 0 375 374.999991" height="500" preserveAspectRatio="xMidYMid meet" version="1.0"><defs><clipPath id="334b5c2dd0"><path d="M 15 3.066406 L 360 3.066406 L 360 124 L 15 124 Z M 15 3.066406 " clip-rule="nonzero"/></clipPath></defs><path fill="#138807" d="M 13.40625 246.617188 L 361.625 245.527344 C 360.871094 247.792969 360.074219 250.042969 359.234375 252.273438 C 358.394531 254.507812 357.511719 256.722656 356.585938 258.921875 C 355.65625 261.121094 354.6875 263.300781 353.675781 265.464844 C 352.664062 267.625 351.613281 269.765625 350.515625 271.886719 C 349.421875 274.007812 348.285156 276.105469 347.109375 278.179688 C 345.933594 280.257812 344.71875 282.308594 343.460938 284.335938 C 342.203125 286.367188 340.910156 288.367188 339.574219 290.347656 C 338.238281 292.324219 336.867188 294.277344 335.457031 296.199219 C 334.046875 298.125 332.597656 300.019531 331.113281 301.890625 C 329.628906 303.757812 328.109375 305.597656 326.554688 307.40625 C 324.996094 309.214844 323.40625 310.992188 321.78125 312.738281 C 320.15625 314.484375 318.496094 316.199219 316.804688 317.882812 C 315.113281 319.5625 313.390625 321.210938 311.632812 322.828125 C 309.875 324.441406 308.089844 326.023438 306.273438 327.566406 C 304.453125 329.113281 302.605469 330.621094 300.730469 332.097656 C 298.851562 333.570312 296.949219 335.003906 295.015625 336.40625 C 293.082031 337.804688 291.125 339.164062 289.140625 340.488281 C 287.152344 341.808594 285.144531 343.09375 283.109375 344.339844 C 281.074219 345.582031 279.011719 346.785156 276.929688 347.949219 C 274.847656 349.113281 272.746094 350.238281 270.617188 351.320312 C 268.492188 352.402344 266.34375 353.441406 264.179688 354.441406 C 262.011719 355.4375 259.828125 356.394531 257.621094 357.308594 C 255.417969 358.222656 253.199219 359.089844 250.960938 359.917969 C 248.722656 360.746094 246.46875 361.527344 244.203125 362.265625 C 241.933594 363.003906 239.652344 363.699219 237.355469 364.351562 C 235.0625 365 232.753906 365.605469 230.433594 366.164062 C 228.117188 366.726562 225.785156 367.238281 223.449219 367.707031 C 221.109375 368.179688 218.761719 368.601562 216.40625 368.980469 C 214.050781 369.355469 211.6875 369.6875 209.320312 369.972656 C 206.953125 370.261719 204.578125 370.5 202.203125 370.691406 C 199.824219 370.886719 197.445312 371.03125 195.058594 371.132812 C 192.675781 371.234375 190.292969 371.289062 187.90625 371.292969 C 185.519531 371.300781 183.136719 371.261719 180.753906 371.175781 C 178.367188 371.09375 175.988281 370.960938 173.609375 370.78125 C 171.230469 370.605469 168.855469 370.378906 166.484375 370.109375 C 164.113281 369.835938 161.75 369.519531 159.394531 369.15625 C 157.035156 368.792969 154.6875 368.386719 152.34375 367.929688 C 150.003906 367.476562 147.671875 366.976562 145.347656 366.429688 C 143.027344 365.886719 140.714844 365.292969 138.414062 364.660156 C 136.117188 364.023438 133.828125 363.34375 131.558594 362.617188 C 129.285156 361.894531 127.027344 361.125 124.785156 360.3125 C 122.539062 359.5 120.3125 358.644531 118.105469 357.746094 C 115.894531 356.84375 113.703125 355.902344 111.53125 354.917969 C 109.359375 353.933594 107.207031 352.90625 105.074219 351.835938 C 102.941406 350.769531 100.828125 349.660156 98.738281 348.507812 C 96.648438 347.355469 94.582031 346.164062 92.539062 344.933594 C 90.496094 343.703125 88.476562 342.429688 86.484375 341.121094 C 84.488281 339.8125 82.523438 338.460938 80.582031 337.074219 C 78.640625 335.6875 76.726562 334.265625 74.839844 332.800781 C 72.957031 331.339844 71.097656 329.84375 69.269531 328.308594 C 67.445312 326.773438 65.648438 325.207031 63.878906 323.601562 C 62.113281 322 60.378906 320.359375 58.675781 318.6875 C 56.976562 317.019531 55.304688 315.3125 53.667969 313.578125 C 52.035156 311.839844 50.429688 310.074219 48.863281 308.273438 C 47.296875 306.472656 45.765625 304.644531 44.269531 302.785156 C 42.773438 300.929688 41.3125 299.039062 39.890625 297.125 C 38.46875 295.210938 37.085938 293.265625 35.738281 291.296875 C 34.390625 289.328125 33.082031 287.332031 31.8125 285.3125 C 30.542969 283.292969 29.3125 281.246094 28.125 279.179688 C 26.933594 277.109375 25.785156 275.019531 24.679688 272.90625 C 23.570312 270.792969 22.503906 268.65625 21.480469 266.503906 C 20.453125 264.347656 19.472656 262.175781 18.53125 259.980469 C 17.589844 257.789062 16.691406 255.578125 15.839844 253.347656 C 14.984375 251.121094 14.175781 248.875 13.40625 246.617188 Z M 13.40625 246.617188 " fill-opacity="1" fill-rule="nonzero"/><path fill="#ffffff" d="M 15.367188 123.507812 L 359.105469 122.125 C 360.964844 127.03125 362.617188 132.007812 364.054688 137.050781 C 365.492188 142.097656 366.710938 147.199219 367.714844 152.347656 C 368.714844 157.5 369.496094 162.683594 370.058594 167.898438 C 370.617188 173.117188 370.953125 178.347656 371.066406 183.59375 C 371.179688 188.839844 371.070312 194.082031 370.738281 199.320312 C 370.40625 204.554688 369.847656 209.769531 369.070312 214.957031 C 368.292969 220.148438 367.292969 225.296875 366.078125 230.398438 C 364.859375 235.503906 363.425781 240.546875 361.78125 245.527344 L 13.578125 246.617188 C 11.90625 241.660156 10.445312 236.636719 9.199219 231.554688 C 7.953125 226.472656 6.921875 221.347656 6.113281 216.175781 C 5.300781 211.003906 4.710938 205.808594 4.34375 200.589844 C 3.976562 195.367188 3.828125 190.140625 3.90625 184.910156 C 3.980469 179.675781 4.277344 174.457031 4.800781 169.25 C 5.320312 164.042969 6.058594 158.863281 7.019531 153.71875 C 7.980469 148.574219 9.15625 143.480469 10.550781 138.4375 C 11.945312 133.394531 13.550781 128.417969 15.367188 123.507812 Z M 15.367188 123.507812 " fill-opacity="1" fill-rule="nonzero"/><g clip-path="url(#334b5c2dd0)"><path fill="#ff9934" d="M 359.351562 122.140625 L 15.617188 123.523438 C 17.234375 119.179688 19.011719 114.902344 20.953125 110.695312 C 22.890625 106.484375 24.988281 102.355469 27.242188 98.304688 C 29.496094 94.253906 31.898438 90.292969 34.449219 86.425781 C 37 82.558594 39.695312 78.789062 42.535156 75.125 C 45.371094 71.460938 48.34375 67.910156 51.449219 64.46875 C 54.554688 61.027344 57.785156 57.710938 61.144531 54.515625 C 64.5 51.320312 67.972656 48.257812 71.5625 45.324219 C 75.152344 42.394531 78.847656 39.601562 82.644531 36.949219 C 86.445312 34.296875 90.339844 31.792969 94.332031 29.433594 C 98.320312 27.078125 102.394531 24.875 106.550781 22.824219 C 110.707031 20.773438 114.933594 18.886719 119.230469 17.15625 C 123.53125 15.429688 127.890625 13.863281 132.308594 12.464844 C 136.726562 11.066406 141.1875 9.835938 145.699219 8.773438 C 150.210938 7.714844 154.753906 6.824219 159.332031 6.105469 C 163.910156 5.390625 168.507812 4.847656 173.125 4.476562 C 177.746094 4.109375 182.371094 3.914062 187.003906 3.898438 C 191.640625 3.878906 196.265625 4.035156 200.886719 4.367188 C 205.511719 4.699219 210.113281 5.203125 214.695312 5.882812 C 219.28125 6.5625 223.832031 7.417969 228.351562 8.441406 C 232.867188 9.464844 237.34375 10.660156 241.769531 12.023438 C 246.199219 13.386719 250.570312 14.917969 254.882812 16.609375 C 259.195312 18.304688 263.441406 20.160156 267.613281 22.175781 C 271.785156 24.191406 275.875 26.363281 279.882812 28.6875 C 283.890625 31.011719 287.808594 33.484375 291.628906 36.105469 C 295.449219 38.730469 299.167969 41.492188 302.777344 44.394531 C 306.390625 47.296875 309.886719 50.332031 313.269531 53.5 C 316.652344 56.667969 319.910156 59.960938 323.046875 63.375 C 326.179688 66.789062 329.179688 70.316406 332.046875 73.960938 C 334.914062 77.601562 337.636719 81.34375 340.222656 85.195312 C 342.804688 89.042969 345.238281 92.980469 347.523438 97.015625 C 349.808594 101.046875 351.941406 105.160156 353.914062 109.351562 C 355.886719 113.546875 357.703125 117.808594 359.351562 122.140625 Z M 359.351562 122.140625 " fill-opacity="1" fill-rule="nonzero"/></g><path fill="#000080" d="M 205.152344 193.105469 L 229.605469 208.667969 L 203.503906 195.953125 L 195.726562 190.246094 C 195.453125 190.675781 195.144531 191.082031 194.792969 191.457031 L 202.570312 197.339844 L 221.96875 218.609375 L 200.113281 199.6875 L 194.015625 192.160156 C 193.648438 192.507812 193.25 192.820312 192.820312 193.09375 L 198.714844 200.746094 L 211.996094 226.25 L 195.867188 202.398438 L 191.949219 193.589844 C 191.496094 193.835938 191.023438 194.03125 190.53125 194.179688 L 194.234375 203.082031 L 200.347656 231.089844 L 191.015625 203.953125 L 189.570312 194.445312 C 189.054688 194.558594 188.539062 194.621094 188.011719 194.632812 L 189.242188 204.1875 L 187.78125 232.800781 L 185.929688 204.21875 L 187.019531 194.648438 C 186.496094 194.632812 185.976562 194.574219 185.460938 194.476562 L 184.15625 204 L 175.226562 231.273438 L 180.9375 203.175781 L 184.515625 194.226562 C 184.015625 194.085938 183.539062 193.890625 183.082031 193.652344 L 179.289062 202.519531 L 163.578125 226.546875 L 176.488281 200.871094 L 182.273438 193.09375 C 181.847656 192.804688 181.445312 192.496094 181.0625 192.160156 L 175.058594 199.765625 L 153.484375 219.046875 L 172.707031 197.527344 L 180.359375 191.519531 C 180 191.15625 179.679688 190.761719 179.398438 190.335938 L 171.621094 196.15625 L 145.722656 209.273438 L 169.941406 193.386719 L 178.898438 189.542969 C 178.652344 189.101562 178.457031 188.640625 178.308594 188.160156 L 169.253906 191.785156 L 140.761719 197.757812 L 168.324219 188.578125 L 177.980469 187.164062 C 177.875 186.648438 177.8125 186.132812 177.792969 185.609375 L 168.089844 186.820312 L 139.019531 185.390625 L 168.058594 183.554688 L 177.777344 184.628906 C 177.792969 184.105469 177.847656 183.585938 177.949219 183.070312 L 168.277344 181.78125 L 140.574219 172.972656 L 169.117188 178.605469 L 178.214844 182.121094 C 178.355469 181.632812 178.546875 181.167969 178.789062 180.722656 L 169.769531 177.003906 L 145.425781 161.550781 L 171.511719 174.265625 L 179.367188 179.992188 C 179.640625 179.554688 179.957031 179.152344 180.3125 178.777344 L 172.539062 172.878906 L 153 151.703125 L 174.777344 170.625 L 180.875 178.15625 C 181.253906 177.808594 181.660156 177.492188 182.085938 177.207031 L 176.175781 169.566406 L 162.988281 143.921875 L 179.117188 167.777344 L 183.019531 176.582031 C 183.476562 176.34375 183.945312 176.148438 184.4375 175.992188 L 180.734375 167.089844 L 174.636719 139.085938 L 183.96875 166.234375 L 185.429688 175.726562 C 185.945312 175.625 186.464844 175.5625 186.988281 175.539062 L 185.757812 165.988281 L 187.21875 137.371094 L 188.976562 166.019531 L 187.875 175.585938 C 188.394531 175.601562 188.914062 175.660156 189.429688 175.757812 L 190.75 166.25 L 199.679688 138.976562 L 193.96875 167.058594 L 190.394531 176.007812 C 190.886719 176.160156 191.363281 176.351562 191.824219 176.582031 L 195.601562 167.730469 L 211.40625 143.660156 L 198.480469 169.332031 L 192.695312 177.113281 C 193.128906 177.371094 193.535156 177.671875 193.90625 178.015625 L 199.863281 170.375 L 221.484375 151.160156 L 202.261719 172.675781 L 194.625 178.667969 C 194.980469 179.035156 195.296875 179.433594 195.574219 179.867188 L 203.347656 174.046875 L 229.261719 161.039062 L 205.042969 176.925781 L 196.085938 180.769531 C 196.328125 181.214844 196.523438 181.683594 196.675781 182.167969 L 205.730469 178.527344 L 234.175781 172.507812 L 206.601562 181.6875 L 196.957031 183.101562 C 197.070312 183.613281 197.132812 184.132812 197.144531 184.660156 L 206.847656 183.445312 L 235.917969 184.875 L 206.878906 186.710938 L 197.160156 185.640625 C 197.144531 186.164062 197.085938 186.679688 196.988281 187.195312 L 206.664062 188.484375 L 234.347656 197.277344 L 205.824219 191.644531 L 196.753906 187.988281 C 196.605469 188.46875 196.414062 188.929688 196.179688 189.375 Z M 242.839844 184.722656 C 243.058594 214.8125 218.453125 239.367188 187.890625 239.585938 C 157.324219 239.800781 132.363281 215.574219 132.144531 185.484375 C 131.925781 155.390625 156.53125 130.835938 187.109375 130.621094 C 217.691406 130.402344 242.621094 154.644531 242.839844 184.722656 Z M 235.792969 188.625 C 235.886719 187.367188 235.933594 186.058594 235.917969 184.765625 C 235.902344 183.476562 235.917969 182.183594 235.746094 180.925781 C 235.433594 180.960938 235.125 180.941406 234.824219 180.859375 C 234.519531 180.777344 234.242188 180.640625 233.988281 180.449219 C 233.738281 180.257812 233.53125 180.027344 233.371094 179.757812 C 233.210938 179.488281 233.105469 179.195312 233.058594 178.886719 C 233.015625 178.574219 233.035156 178.265625 233.113281 177.960938 C 233.191406 177.660156 233.328125 177.382812 233.515625 177.132812 C 233.707031 176.878906 233.9375 176.675781 234.207031 176.515625 C 234.476562 176.355469 234.769531 176.253906 235.078125 176.210938 C 234.589844 173.6875 233.894531 171.222656 232.996094 168.820312 C 232.703125 168.933594 232.402344 168.992188 232.085938 168.988281 C 231.773438 168.988281 231.472656 168.925781 231.183594 168.808594 C 230.894531 168.6875 230.636719 168.519531 230.410156 168.300781 C 230.1875 168.082031 230.011719 167.828125 229.882812 167.542969 C 229.757812 167.253906 229.695312 166.953125 229.691406 166.636719 C 229.6875 166.324219 229.742188 166.019531 229.859375 165.726562 C 229.976562 165.4375 230.144531 165.179688 230.363281 164.953125 C 230.585938 164.726562 230.839844 164.554688 231.128906 164.429688 C 230.566406 163.28125 229.945312 162.144531 229.277344 161.039062 C 228.621094 159.917969 227.914062 158.835938 227.144531 157.785156 C 226.894531 157.976562 226.617188 158.113281 226.3125 158.191406 C 226.007812 158.273438 225.699219 158.292969 225.386719 158.25 C 225.074219 158.210938 224.78125 158.113281 224.503906 157.957031 C 224.230469 157.800781 223.996094 157.597656 223.800781 157.351562 C 223.609375 157.105469 223.472656 156.832031 223.390625 156.53125 C 223.304688 156.230469 223.28125 155.925781 223.320312 155.613281 C 223.355469 155.304688 223.449219 155.011719 223.601562 154.738281 C 223.75 154.46875 223.949219 154.234375 224.191406 154.039062 C 223.335938 153.058594 222.433594 152.109375 221.5 151.222656 C 220.566406 150.332031 219.585938 149.386719 218.53125 148.589844 C 218.332031 148.835938 218.097656 149.035156 217.820312 149.1875 C 217.546875 149.339844 217.253906 149.4375 216.941406 149.476562 C 216.628906 149.515625 216.324219 149.496094 216.019531 149.414062 C 215.714844 149.335938 215.4375 149.199219 215.1875 149.011719 C 214.933594 148.828125 214.722656 148.605469 214.558594 148.339844 C 214.398438 148.074219 214.289062 147.785156 214.242188 147.476562 C 214.195312 147.167969 214.207031 146.863281 214.28125 146.558594 C 214.355469 146.257812 214.488281 145.980469 214.671875 145.726562 C 213.582031 144.996094 212.496094 144.328125 211.359375 143.691406 C 210.222656 143.039062 209.054688 142.449219 207.859375 141.917969 C 207.730469 142.203125 207.554688 142.453125 207.328125 142.667969 C 207.105469 142.886719 206.847656 143.054688 206.558594 143.171875 C 206.265625 143.289062 205.964844 143.347656 205.652344 143.347656 C 205.339844 143.347656 205.039062 143.292969 204.75 143.175781 C 204.449219 143.0625 204.183594 142.898438 203.953125 142.675781 C 203.722656 142.457031 203.542969 142.199219 203.414062 141.90625 C 203.289062 141.613281 203.222656 141.308594 203.21875 140.988281 C 203.214844 140.667969 203.273438 140.359375 203.394531 140.066406 C 202.164062 139.628906 200.914062 139.253906 199.648438 138.945312 C 198.386719 138.601562 197.113281 138.335938 195.820312 138.121094 C 195.773438 138.429688 195.667969 138.71875 195.507812 138.988281 C 195.34375 139.257812 195.136719 139.484375 194.886719 139.671875 C 194.632812 139.859375 194.355469 139.996094 194.054688 140.074219 C 193.75 140.152344 193.441406 140.167969 193.128906 140.125 C 192.820312 140.09375 192.527344 140 192.25 139.851562 C 191.976562 139.703125 191.738281 139.503906 191.542969 139.261719 C 191.347656 139.019531 191.203125 138.746094 191.113281 138.445312 C 191.027344 138.144531 190.996094 137.839844 191.03125 137.527344 C 189.738281 137.433594 188.417969 137.402344 187.109375 137.402344 C 185.804688 137.402344 184.46875 137.402344 183.175781 137.574219 C 183.21875 137.882812 183.203125 138.1875 183.128906 138.488281 C 183.054688 138.789062 182.921875 139.0625 182.738281 139.3125 C 182.550781 139.5625 182.328125 139.765625 182.058594 139.925781 C 181.792969 140.085938 181.507812 140.191406 181.199219 140.234375 C 180.890625 140.28125 180.582031 140.269531 180.277344 140.195312 C 179.972656 140.125 179.695312 139.996094 179.441406 139.8125 C 179.183594 139.628906 178.976562 139.402344 178.808594 139.136719 C 178.640625 138.871094 178.53125 138.585938 178.480469 138.273438 C 177.191406 138.492188 175.921875 138.785156 174.667969 139.148438 C 173.398438 139.46875 172.148438 139.859375 170.917969 140.3125 C 171.042969 140.605469 171.105469 140.910156 171.105469 141.230469 C 171.101562 141.546875 171.042969 141.851562 170.917969 142.144531 C 170.796875 142.4375 170.621094 142.695312 170.394531 142.917969 C 170.167969 143.136719 169.90625 143.308594 169.613281 143.425781 C 169.324219 143.542969 169.023438 143.601562 168.714844 143.601562 C 168.402344 143.605469 168.101562 143.546875 167.8125 143.433594 C 167.523438 143.316406 167.265625 143.152344 167.039062 142.941406 C 166.8125 142.726562 166.632812 142.480469 166.503906 142.195312 C 165.304688 142.773438 164.167969 143.363281 163.050781 144.015625 C 161.929688 144.671875 160.808594 145.371094 159.738281 146.117188 C 159.925781 146.363281 160.0625 146.636719 160.144531 146.9375 C 160.222656 147.238281 160.242188 147.542969 160.203125 147.855469 C 160.160156 148.164062 160.058594 148.449219 159.898438 148.71875 C 159.742188 148.988281 159.535156 149.214844 159.285156 149.398438 C 159.035156 149.589844 158.757812 149.730469 158.457031 149.8125 C 158.15625 149.898438 157.847656 149.925781 157.535156 149.890625 C 157.222656 149.855469 156.925781 149.765625 156.648438 149.621094 C 156.371094 149.472656 156.128906 149.28125 155.925781 149.042969 C 154.945312 149.867188 153.996094 150.738281 153.0625 151.65625 C 152.132812 152.574219 151.277344 153.523438 150.433594 154.519531 C 150.679688 154.710938 150.875 154.945312 151.027344 155.214844 C 151.179688 155.484375 151.277344 155.773438 151.316406 156.082031 C 151.355469 156.390625 151.335938 156.695312 151.253906 156.996094 C 151.175781 157.296875 151.042969 157.570312 150.855469 157.816406 C 150.664062 158.070312 150.433594 158.273438 150.160156 158.433594 C 149.886719 158.59375 149.597656 158.699219 149.285156 158.746094 C 148.972656 158.792969 148.664062 158.777344 148.355469 158.703125 C 148.050781 158.628906 147.769531 158.5 147.511719 158.316406 C 146.78125 159.375 146.097656 160.464844 145.441406 161.582031 C 144.804688 162.703125 144.214844 163.839844 143.652344 165.023438 C 143.945312 165.144531 144.203125 165.316406 144.425781 165.539062 C 144.652344 165.761719 144.824219 166.019531 144.945312 166.308594 C 145.066406 166.601562 145.125 166.90625 145.125 167.222656 C 145.125 167.539062 145.066406 167.84375 144.945312 168.132812 C 144.820312 168.421875 144.648438 168.679688 144.425781 168.902344 C 144.203125 169.125 143.945312 169.296875 143.65625 169.421875 C 143.367188 169.542969 143.0625 169.609375 142.75 169.613281 C 142.433594 169.621094 142.128906 169.570312 141.835938 169.457031 C 141.398438 170.671875 141.027344 171.898438 140.699219 173.144531 C 140.371094 174.390625 140.078125 175.648438 139.875 176.925781 C 140.183594 176.96875 140.472656 177.066406 140.742188 177.222656 C 141.015625 177.382812 141.242188 177.582031 141.433594 177.832031 C 141.625 178.078125 141.761719 178.351562 141.84375 178.652344 C 141.925781 178.953125 141.949219 179.261719 141.910156 179.570312 C 141.859375 179.878906 141.753906 180.167969 141.589844 180.4375 C 141.425781 180.707031 141.214844 180.933594 140.964844 181.121094 C 140.710938 181.308594 140.433594 181.441406 140.128906 181.519531 C 139.824219 181.597656 139.515625 181.617188 139.207031 181.578125 C 139.113281 182.855469 139.066406 184.144531 139.082031 185.4375 C 139.097656 186.726562 139.082031 188.019531 139.269531 189.296875 C 139.578125 189.257812 139.882812 189.285156 140.183594 189.367188 C 140.488281 189.449219 140.761719 189.585938 141.007812 189.777344 C 141.257812 189.96875 141.460938 190.195312 141.621094 190.464844 C 141.777344 190.734375 141.882812 191.023438 141.925781 191.332031 C 141.96875 191.640625 141.953125 191.945312 141.875 192.246094 C 141.796875 192.546875 141.664062 192.824219 141.476562 193.074219 C 141.292969 193.320312 141.066406 193.527344 140.796875 193.6875 C 140.53125 193.84375 140.246094 193.949219 139.9375 193.996094 C 140.140625 195.265625 140.414062 196.519531 140.761719 197.757812 C 141.09375 199.007812 141.484375 200.238281 141.941406 201.449219 C 142.234375 201.332031 142.535156 201.277344 142.851562 201.277344 C 143.164062 201.28125 143.464844 201.339844 143.753906 201.457031 C 144.046875 201.578125 144.300781 201.746094 144.527344 201.964844 C 144.75 202.183594 144.925781 202.4375 145.054688 202.722656 C 145.175781 203.011719 145.238281 203.3125 145.242188 203.628906 C 145.246094 203.941406 145.1875 204.242188 145.070312 204.535156 C 144.957031 204.828125 144.789062 205.085938 144.570312 205.308594 C 144.351562 205.535156 144.097656 205.710938 143.808594 205.835938 C 144.371094 207.003906 144.992188 208.136719 145.644531 209.242188 C 146.296875 210.347656 147 211.4375 147.761719 212.480469 C 148.015625 212.292969 148.292969 212.164062 148.597656 212.085938 C 148.902344 212.007812 149.210938 211.992188 149.523438 212.035156 C 149.835938 212.074219 150.125 212.175781 150.398438 212.328125 C 150.671875 212.484375 150.90625 212.683594 151.105469 212.929688 C 151.296875 213.175781 151.4375 213.449219 151.523438 213.75 C 151.609375 214.046875 151.636719 214.355469 151.601562 214.664062 C 151.566406 214.976562 151.472656 215.265625 151.324219 215.539062 C 151.171875 215.816406 150.976562 216.050781 150.730469 216.246094 C 151.585938 217.226562 152.472656 218.160156 153.40625 219.0625 C 154.339844 219.964844 155.304688 220.835938 156.300781 221.644531 C 156.5 221.402344 156.742188 221.207031 157.015625 221.058594 C 157.292969 220.90625 157.585938 220.8125 157.898438 220.777344 C 158.210938 220.738281 158.519531 220.761719 158.824219 220.839844 C 159.128906 220.921875 159.40625 221.054688 159.660156 221.238281 C 159.910156 221.421875 160.117188 221.648438 160.28125 221.914062 C 160.441406 222.179688 160.546875 222.46875 160.59375 222.777344 C 160.640625 223.085938 160.625 223.390625 160.550781 223.691406 C 160.472656 223.996094 160.34375 224.273438 160.15625 224.523438 C 161.246094 225.253906 162.351562 225.9375 163.5 226.5625 C 164.625 227.210938 165.78125 227.800781 166.96875 228.335938 C 167.097656 228.050781 167.277344 227.800781 167.5 227.585938 C 167.726562 227.367188 167.984375 227.203125 168.273438 227.085938 C 168.5625 226.96875 168.863281 226.910156 169.175781 226.90625 C 169.488281 226.90625 169.789062 226.960938 170.078125 227.074219 C 170.378906 227.1875 170.644531 227.351562 170.875 227.574219 C 171.105469 227.792969 171.285156 228.050781 171.414062 228.34375 C 171.542969 228.636719 171.605469 228.945312 171.609375 229.261719 C 171.613281 229.582031 171.554688 229.890625 171.433594 230.1875 C 172.660156 230.605469 173.921875 230.980469 175.195312 231.304688 C 176.472656 231.632812 177.730469 231.914062 179.023438 232.117188 C 179.0625 231.796875 179.160156 231.5 179.320312 231.222656 C 179.476562 230.941406 179.679688 230.703125 179.933594 230.507812 C 180.1875 230.3125 180.464844 230.167969 180.773438 230.085938 C 181.082031 230 181.394531 229.976562 181.714844 230.015625 C 182.03125 230.054688 182.328125 230.152344 182.609375 230.308594 C 182.886719 230.46875 183.125 230.671875 183.320312 230.925781 C 183.519531 231.179688 183.660156 231.457031 183.746094 231.765625 C 183.828125 232.074219 183.851562 232.390625 183.8125 232.707031 C 185.089844 232.800781 186.410156 232.847656 187.734375 232.832031 C 189.054688 232.816406 190.363281 232.832031 191.652344 232.660156 C 191.636719 232.355469 191.671875 232.058594 191.769531 231.769531 C 191.863281 231.476562 192.003906 231.214844 192.199219 230.980469 C 192.390625 230.742188 192.621094 230.550781 192.886719 230.402344 C 193.152344 230.253906 193.4375 230.15625 193.738281 230.113281 C 194.042969 230.074219 194.339844 230.085938 194.636719 230.15625 C 194.933594 230.226562 195.207031 230.351562 195.457031 230.523438 C 195.707031 230.699219 195.917969 230.910156 196.089844 231.164062 C 196.257812 231.417969 196.378906 231.691406 196.445312 231.992188 C 197.730469 231.773438 199 231.480469 200.253906 231.121094 C 201.519531 230.796875 202.761719 230.410156 203.988281 229.953125 C 203.863281 229.660156 203.804688 229.355469 203.804688 229.039062 C 203.804688 228.71875 203.863281 228.414062 203.988281 228.121094 C 204.109375 227.828125 204.285156 227.574219 204.511719 227.351562 C 204.738281 227.128906 205 226.957031 205.292969 226.839844 C 205.582031 226.726562 205.878906 226.667969 206.191406 226.664062 C 206.5 226.664062 206.800781 226.71875 207.089844 226.832031 C 207.378906 226.945312 207.636719 227.105469 207.863281 227.316406 C 208.089844 227.527344 208.269531 227.773438 208.402344 228.054688 C 209.585938 227.511719 210.738281 226.886719 211.855469 226.234375 C 212.976562 225.582031 214.082031 224.894531 215.15625 224.148438 C 214.964844 223.898438 214.828125 223.625 214.75 223.320312 C 214.667969 223.019531 214.652344 222.710938 214.695312 222.402344 C 214.738281 222.089844 214.84375 221.800781 215.003906 221.53125 C 215.164062 221.265625 215.367188 221.035156 215.621094 220.851562 C 215.871094 220.660156 216.144531 220.523438 216.449219 220.441406 C 216.75 220.359375 217.054688 220.335938 217.367188 220.367188 C 217.679688 220.402344 217.972656 220.496094 218.25 220.644531 C 218.523438 220.789062 218.761719 220.984375 218.964844 221.222656 C 219.960938 220.382812 220.910156 219.527344 221.828125 218.59375 C 222.746094 217.660156 223.632812 216.726562 224.472656 215.746094 C 224.222656 215.554688 224.023438 215.324219 223.867188 215.050781 C 223.714844 214.78125 223.613281 214.488281 223.574219 214.179688 C 223.535156 213.867188 223.554688 213.5625 223.632812 213.261719 C 223.710938 212.957031 223.847656 212.683594 224.035156 212.433594 C 224.226562 212.179688 224.460938 211.976562 224.730469 211.816406 C 225.003906 211.65625 225.296875 211.550781 225.609375 211.507812 C 225.921875 211.460938 226.230469 211.476562 226.539062 211.554688 C 226.84375 211.632812 227.125 211.761719 227.378906 211.949219 C 228.128906 210.890625 228.824219 209.796875 229.464844 208.667969 C 230.117188 207.5625 230.722656 206.410156 231.269531 205.242188 C 230.976562 205.125 230.714844 204.953125 230.492188 204.730469 C 230.265625 204.507812 230.09375 204.25 229.972656 203.957031 C 229.851562 203.664062 229.789062 203.359375 229.792969 203.042969 C 229.792969 202.726562 229.855469 202.421875 229.976562 202.132812 C 230.101562 201.84375 230.277344 201.589844 230.5 201.367188 C 230.722656 201.148438 230.980469 200.976562 231.269531 200.855469 C 231.558594 200.734375 231.863281 200.667969 232.175781 200.664062 C 232.492188 200.660156 232.792969 200.710938 233.089844 200.824219 C 233.953125 198.386719 234.605469 195.890625 235.046875 193.339844 C 234.738281 193.300781 234.445312 193.203125 234.175781 193.046875 C 233.90625 192.890625 233.671875 192.6875 233.484375 192.441406 C 233.292969 192.191406 233.15625 191.917969 233.074219 191.613281 C 232.992188 191.3125 232.96875 191.007812 233.011719 190.695312 C 233.050781 190.371094 233.152344 190.066406 233.316406 189.78125 C 233.480469 189.5 233.695312 189.261719 233.957031 189.0625 C 234.222656 188.867188 234.511719 188.734375 234.832031 188.65625 C 235.152344 188.582031 235.472656 188.570312 235.792969 188.625 Z M 235.792969 188.625 " fill-opacity="1" fill-rule="nonzero"/></svg>