<svg xmlns="http://www.w3.org/2000/svg" xmlns:xlink="http://www.w3.org/1999/xlink" width="500" zoomAndPan="magnify" viewBox="0 0 375 374.999991" height="500" preserveAspectRatio="xMidYMid meet" version="1.0"><path fill="#ffffff" d="M 375 187.5 C 375 190.570312 374.925781 193.636719 374.773438 196.699219 C 374.625 199.765625 374.398438 202.824219 374.097656 205.878906 C 373.796875 208.933594 373.421875 211.976562 372.96875 215.011719 C 372.519531 218.046875 371.996094 221.070312 371.398438 224.078125 C 370.796875 227.089844 370.125 230.082031 369.378906 233.058594 C 368.636719 236.035156 367.816406 238.992188 366.925781 241.929688 C 366.035156 244.863281 365.074219 247.777344 364.039062 250.667969 C 363.003906 253.554688 361.902344 256.417969 360.726562 259.253906 C 359.554688 262.089844 358.308594 264.890625 356.996094 267.667969 C 355.6875 270.441406 354.308594 273.179688 352.859375 275.886719 C 351.414062 278.59375 349.902344 281.261719 348.324219 283.894531 C 346.746094 286.527344 345.105469 289.117188 343.402344 291.667969 C 341.695312 294.222656 339.929688 296.730469 338.101562 299.195312 C 336.273438 301.660156 334.386719 304.078125 332.441406 306.449219 C 330.492188 308.820312 328.488281 311.144531 326.429688 313.417969 C 324.367188 315.691406 322.253906 317.914062 320.082031 320.082031 C 317.914062 322.253906 315.691406 324.367188 313.417969 326.429688 C 311.144531 328.488281 308.820312 330.492188 306.449219 332.441406 C 304.078125 334.386719 301.660156 336.273438 299.195312 338.101562 C 296.730469 339.929688 294.222656 341.695312 291.667969 343.402344 C 289.117188 345.105469 286.527344 346.746094 283.894531 348.324219 C 281.261719 349.902344 278.59375 351.414062 275.886719 352.859375 C 273.179688 354.308594 270.441406 355.6875 267.667969 356.996094 C 264.890625 358.308594 262.089844 359.554688 259.253906 360.726562 C 256.417969 361.902344 253.554688 363.003906 250.667969 364.039062 C 247.777344 365.074219 244.863281 366.035156 241.929688 366.925781 C 238.992188 367.816406 236.035156 368.636719 233.058594 369.378906 C 230.082031 370.125 227.089844 370.796875 224.078125 371.398438 C 221.070312 371.996094 218.046875 372.519531 215.011719 372.96875 C 211.976562 373.421875 208.933594 373.796875 205.878906 374.097656 C 202.824219 374.398438 199.765625 374.625 196.699219 374.773438 C 193.636719 374.925781 190.570312 375 187.5 375 C 184.429688 375 181.363281 374.925781 178.300781 374.773438 C 175.234375 374.625 172.175781 374.398438 169.121094 374.097656 C 166.066406 373.796875 163.023438 373.421875 159.988281 372.96875 C 156.953125 372.519531 153.929688 371.996094 150.921875 371.398438 C 147.910156 370.796875 144.917969 370.125 141.941406 369.378906 C 138.964844 368.636719 136.007812 367.816406 133.070312 366.925781 C 130.136719 366.035156 127.222656 365.074219 124.332031 364.039062 C 121.445312 363.003906 118.582031 361.902344 115.746094 360.726562 C 112.910156 359.554688 110.105469 358.308594 107.332031 356.996094 C 104.558594 355.6875 101.820312 354.308594 99.113281 352.859375 C 96.40625 351.414062 93.738281 349.902344 91.105469 348.324219 C 88.472656 346.746094 85.882812 345.105469 83.332031 343.402344 C 80.777344 341.695312 78.269531 339.929688 75.804688 338.101562 C 73.339844 336.273438 70.921875 334.386719 68.550781 332.441406 C 66.179688 330.492188 63.855469 328.488281 61.582031 326.429688 C 59.308594 324.367188 57.085938 322.253906 54.917969 320.082031 C 52.746094 317.914062 50.632812 315.691406 48.570312 313.417969 C 46.511719 311.144531 44.507812 308.820312 42.558594 306.449219 C 40.613281 304.078125 38.726562 301.660156 36.898438 299.195312 C 35.070312 296.730469 33.304688 294.222656 31.597656 291.667969 C 29.894531 289.117188 28.253906 286.527344 26.675781 283.894531 C 25.097656 281.261719 23.585938 278.59375 22.140625 275.886719 C 20.691406 273.179688 19.3125 270.441406 18.003906 267.667969 C 16.691406 264.890625 15.445312 262.089844 14.273438 259.253906 C 13.097656 256.417969 11.996094 253.554688 10.960938 250.667969 C 9.925781 247.777344 8.964844 244.863281 8.074219 241.929688 C 7.183594 238.992188 6.363281 236.035156 5.621094 233.058594 C 4.875 230.082031 4.203125 227.089844 3.601562 224.078125 C 3.003906 221.070312 2.480469 218.046875 2.03125 215.011719 C 1.578125 211.976562 1.203125 208.933594 0.902344 205.878906 C 0.601562 202.824219 0.375 199.765625 0.226562 196.699219 C 0.0742188 193.636719 0 190.570312 0 187.5 C 0 184.429688 0.0742188 181.363281 0.226562 178.300781 C 0.375 175.234375 0.601562 172.175781 0.902344 169.121094 C 1.203125 166.066406 1.578125 163.023438 2.03125 159.988281 C 2.480469 156.953125 3.003906 153.929688 3.601562 150.921875 C 4.203125 147.910156 4.875 144.917969 5.621094 141.941406 C 6.363281 138.964844 7.183594 136.007812 8.074219 133.070312 C 8.964844 130.136719 9.925781 127.222656 10.960938 124.332031 C 11.996094 121.445312 13.097656 118.582031 14.273438 115.746094 C 15.445312 112.910156 16.691406 110.105469 18.003906 107.332031 C 19.3125 104.558594 20.691406 101.820312 22.140625 99.113281 C 23.585938 96.40625 25.097656 93.738281 26.675781 91.105469 C 28.253906 88.472656 29.894531 85.882812 31.597656 83.332031 C 33.304688 80.777344 35.070312 78.269531 36.898438 75.804688 C 38.726562 73.339844 40.613281 70.921875 42.558594 68.550781 C 44.507812 66.179688 46.511719 63.855469 48.570312 61.582031 C 50.632812 59.308594 52.746094 57.085938 54.917969 54.917969 C 57.085938 52.746094 59.308594 50.632812 61.582031 48.570312 C 63.855469 46.511719 66.179688 44.507812 68.550781 42.558594 C 70.921875 40.613281 73.339844 38.726562 75.804688 36.898438 C 78.269531 35.070312 80.777344 33.304688 83.332031 31.597656 C 85.882812 29.894531 88.472656 28.253906 91.105469 26.675781 C 93.738281 25.097656 96.40625 23.585938 99.113281 22.140625 C 101.820312 20.691406 104.558594 19.3125 107.332031 18.003906 C 110.105469 16.691406 112.910156 15.445312 115.746094 14.273438 C 118.582031 13.097656 121.445312 11.996094 124.332031 10.960938 C 127.222656 9.925781 130.136719 8.964844 133.070312 8.074219 C 136.007812 7.183594 138.964844 6.363281 141.941406 5.617188 C 144.917969 4.875 147.910156 4.203125 150.921875 3.601562 C 153.929688 3.003906 156.953125 2.480469 159.988281 2.03125 C 163.023438 1.578125 166.066406 1.203125 169.121094 0.902344 C 172.175781 0.601562 175.234375 0.375 178.300781 0.226562 C 181.363281 0.0742188 184.429688 0 187.5 0 C 190.570312 0 193.636719 0.0742188 196.699219 0.226562 C 199.765625 0.375 202.824219 0.601562 205.878906 0.902344 C 208.933594 1.203125 211.976562 1.578125 215.011719 2.03125 C 218.046875 2.480469 221.070312 3.003906 224.078125 3.601562 C 227.089844 4.203125 230.082031 4.875 233.058594 5.617188 C 236.035156 6.363281 238.992188 7.183594 241.929688 8.074219 C 244.863281 8.964844 247.777344 9.925781 250.667969 10.960938 C 253.554688 11.996094 256.417969 13.097656 259.253906 14.273438 C 262.089844 15.445312 264.890625 16.691406 267.667969 18.003906 C 270.441406 19.3125 273.179688 20.691406 275.886719 22.140625 C 278.59375 23.585938 281.261719 25.097656 283.894531 26.675781 C 286.527344 28.253906 289.117188 29.894531 291.667969 31.597656 C 294.222656 33.304688 296.730469 35.070312 299.195312 36.898438 C 301.660156 38.726562 304.078125 40.613281 306.449219 42.558594 C 308.820312 44.507812 311.144531 46.511719 313.417969 48.570312 C 315.691406 50.632812 317.914062 52.746094 320.082031 54.917969 C 322.253906 57.085938 324.367188 59.308594 326.429688 61.582031 C 328.488281 63.855469 330.492188 66.179688 332.441406 68.550781 C 334.386719 70.921875 336.273438 73.339844 338.101562 75.804688 C 339.929688 78.269531 341.695312 80.777344 343.402344 83.332031 C 345.105469 85.882812 346.746094 88.472656 348.324219 91.105469 C 349.902344 93.738281 351.414062 96.40625 352.859375 99.113281 C 354.308594 101.820312 355.6875 104.558594 356.996094 107.332031 C 358.308594 110.105469 359.554688 112.910156 360.726562 115.746094 C 361.902344 118.582031 363.003906 121.445312 364.039062 124.332031 C 365.074219 127.222656 366.035156 130.136719 366.925781 133.070312 C 367.816406 136.007812 368.636719 138.964844 369.378906 141.941406 C 370.125 144.917969 370.796875 147.910156 371.398438 150.921875 C 371.996094 153.929688 372.519531 156.953125 372.96875 159.988281 C 373.421875 163.023438 373.796875 166.066406 374.097656 169.121094 C 374.398438 172.175781 374.625 175.234375 374.773438 178.300781 C 374.925781 181.363281 375 184.429688 375 187.5 Z M 375 187.5 " fill-opacity="1" fill-rule="nonzero"/><path fill="#cf142f" d="M 296.300781 187.5 C 296.300781 189.28125 296.257812 191.058594 296.167969 192.839844 C 296.082031 194.617188 295.949219 196.390625 295.777344 198.164062 C 295.601562 199.9375 295.382812 201.703125 295.121094 203.464844 C 294.859375 205.226562 294.558594 206.980469 294.210938 208.726562 C 293.863281 210.472656 293.472656 212.207031 293.039062 213.9375 C 292.605469 215.664062 292.132812 217.378906 291.613281 219.082031 C 291.097656 220.785156 290.539062 222.476562 289.941406 224.152344 C 289.339844 225.832031 288.699219 227.492188 288.019531 229.136719 C 287.335938 230.78125 286.617188 232.410156 285.855469 234.019531 C 285.09375 235.628906 284.292969 237.21875 283.453125 238.789062 C 282.613281 240.359375 281.734375 241.90625 280.820312 243.433594 C 279.90625 244.960938 278.953125 246.464844 277.964844 247.945312 C 276.976562 249.425781 275.949219 250.882812 274.890625 252.3125 C 273.828125 253.742188 272.734375 255.144531 271.605469 256.523438 C 270.472656 257.898438 269.3125 259.246094 268.117188 260.566406 C 266.917969 261.886719 265.691406 263.175781 264.433594 264.433594 C 263.175781 265.691406 261.886719 266.917969 260.566406 268.117188 C 259.246094 269.3125 257.898438 270.472656 256.523438 271.605469 C 255.144531 272.734375 253.742188 273.828125 252.3125 274.890625 C 250.882812 275.949219 249.425781 276.976562 247.945312 277.964844 C 246.464844 278.953125 244.960938 279.90625 243.433594 280.820312 C 241.90625 281.734375 240.359375 282.613281 238.789062 283.453125 C 237.21875 284.292969 235.628906 285.09375 234.019531 285.855469 C 232.410156 286.617188 230.78125 287.335938 229.136719 288.019531 C 227.492188 288.699219 225.832031 289.339844 224.152344 289.941406 C 222.476562 290.539062 220.785156 291.097656 219.082031 291.613281 C 217.378906 292.132812 215.664062 292.605469 213.9375 293.039062 C 212.207031 293.472656 210.472656 293.863281 208.726562 294.210938 C 206.980469 294.558594 205.226562 294.859375 203.464844 295.121094 C 201.703125 295.382812 199.9375 295.601562 198.164062 295.777344 C 196.390625 295.949219 194.617188 296.082031 192.839844 296.167969 C 191.058594 296.257812 189.28125 296.300781 187.5 296.300781 C 185.71875 296.300781 183.941406 296.257812 182.160156 296.167969 C 180.382812 296.082031 178.609375 295.949219 176.835938 295.777344 C 175.0625 295.601562 173.296875 295.382812 171.535156 295.121094 C 169.773438 294.859375 168.019531 294.558594 166.273438 294.210938 C 164.527344 293.863281 162.789062 293.472656 161.0625 293.039062 C 159.335938 292.605469 157.621094 292.132812 155.917969 291.613281 C 154.214844 291.097656 152.523438 290.539062 150.847656 289.941406 C 149.167969 289.339844 147.507812 288.699219 145.863281 288.019531 C 144.21875 287.335938 142.589844 286.617188 140.980469 285.855469 C 139.371094 285.09375 137.78125 284.292969 136.210938 283.453125 C 134.640625 282.613281 133.09375 281.734375 131.566406 280.820312 C 130.039062 279.90625 128.535156 278.953125 127.054688 277.964844 C 125.574219 276.976562 124.117188 275.949219 122.6875 274.890625 C 121.257812 273.828125 119.855469 272.734375 118.476562 271.605469 C 117.101562 270.472656 115.753906 269.3125 114.433594 268.117188 C 113.113281 266.917969 111.824219 265.691406 110.566406 264.433594 C 109.308594 263.175781 108.082031 261.886719 106.882812 260.566406 C 105.6875 259.246094 104.527344 257.898438 103.394531 256.523438 C 102.265625 255.144531 101.171875 253.742188 100.109375 252.3125 C 99.050781 250.882812 98.023438 249.425781 97.035156 247.945312 C 96.046875 246.464844 95.09375 244.960938 94.179688 243.433594 C 93.265625 241.90625 92.386719 240.359375 91.546875 238.789062 C 90.707031 237.21875 89.90625 235.628906 89.144531 234.019531 C 88.382812 232.410156 87.664062 230.78125 86.980469 229.136719 C 86.300781 227.492188 85.660156 225.832031 85.058594 224.152344 C 84.460938 222.476562 83.902344 220.785156 83.386719 219.082031 C 82.867188 217.378906 82.394531 215.664062 81.960938 213.9375 C 81.527344 212.207031 81.136719 210.472656 80.789062 208.726562 C 80.441406 206.980469 80.140625 205.226562 79.878906 203.464844 C 79.617188 201.703125 79.398438 199.9375 79.222656 198.164062 C 79.050781 196.390625 78.917969 194.617188 78.832031 192.839844 C 78.742188 191.058594 78.699219 189.28125 78.699219 187.5 C 78.699219 185.71875 78.742188 183.941406 78.832031 182.160156 C 78.917969 180.382812 79.050781 178.609375 79.222656 176.835938 C 79.398438 175.0625 79.617188 173.296875 79.878906 171.535156 C 80.140625 169.773438 80.441406 168.019531 80.789062 166.273438 C 81.136719 164.527344 81.527344 162.789062 81.960938 161.0625 C 82.394531 159.335938 82.867188 157.621094 83.386719 155.917969 C 83.902344 154.214844 84.460938 152.523438 85.058594 150.847656 C 85.660156 149.167969 86.300781 147.507812 86.980469 145.863281 C 87.664062 144.21875 88.382812 142.589844 89.144531 140.980469 C 89.90625 139.371094 90.707031 137.78125 91.546875 136.210938 C 92.386719 134.640625 93.265625 133.09375 94.179688 131.566406 C 95.09375 130.039062 96.046875 128.535156 97.035156 127.054688 C 98.023438 125.574219 99.050781 124.117188 100.109375 122.6875 C 101.171875 121.257812 102.265625 119.855469 103.394531 118.476562 C 104.527344 117.101562 105.6875 115.753906 106.882812 114.433594 C 108.082031 113.113281 109.308594 111.824219 110.566406 110.566406 C 111.824219 109.308594 113.113281 108.082031 114.433594 106.882812 C 115.753906 105.6875 117.101562 104.527344 118.476562 103.394531 C 119.855469 102.265625 121.257812 101.171875 122.6875 100.109375 C 124.117188 99.050781 125.574219 98.023438 127.054688 97.035156 C 128.535156 96.046875 130.039062 95.09375 131.566406 94.179688 C 133.09375 93.265625 134.640625 92.386719 136.210938 91.546875 C 137.78125 90.707031 139.371094 89.90625 140.980469 89.144531 C 142.589844 88.382812 144.21875 87.664062 145.863281 86.980469 C 147.507812 86.300781 149.167969 85.660156 150.847656 85.058594 C 152.523438 84.460938 154.214844 83.902344 155.917969 83.386719 C 157.621094 82.867188 159.335938 82.394531 161.0625 81.960938 C 162.789062 81.527344 164.527344 81.136719 166.273438 80.789062 C 168.019531 80.441406 169.773438 80.140625 171.535156 79.878906 C 173.296875 79.617188 175.0625 79.398438 176.835938 79.222656 C 178.609375 79.050781 180.382812 78.917969 182.160156 78.832031 C 183.941406 78.742188 185.71875 78.699219 187.5 78.699219 C 189.28125 78.699219 191.058594 78.742188 192.839844 78.832031 C 194.617188 78.917969 196.390625 79.050781 198.164062 79.222656 C 199.9375 79.398438 201.703125 79.617188 203.464844 79.878906 C 205.226562 80.140625 206.980469 80.441406 208.726562 80.789062 C 210.472656 81.136719 212.207031 81.527344 213.9375 81.960938 C 215.664062 82.394531 217.378906 82.867188 219.082031 83.386719 C 220.785156 83.902344 222.476562 84.460938 224.152344 85.058594 C 225.832031 85.660156 227.492188 86.300781 229.136719 86.980469 C 230.78125 87.664062 232.410156 88.382812 234.019531 89.144531 C 235.628906 89.90625 237.21875 90.707031 238.789062 91.546875 C 240.359375 92.386719 241.90625 93.265625 243.433594 94.179688 C 244.960938 95.09375 246.464844 96.046875 247.945312 97.035156 C 249.425781 98.023438 250.882812 99.050781 252.3125 100.109375 C 253.742188 101.171875 255.144531 102.265625 256.523438 103.394531 C 257.898438 104.527344 259.246094 105.6875 260.566406 106.882812 C 261.886719 108.082031 263.175781 109.308594 264.433594 110.566406 C 265.691406 111.824219 266.917969 113.113281 268.117188 114.433594 C 269.3125 115.753906 270.472656 117.101562 271.605469 118.476562 C 272.734375 119.855469 273.828125 121.257812 274.890625 122.6875 C 275.949219 124.117188 276.976562 125.574219 277.964844 127.054688 C 278.953125 128.535156 279.90625 130.039062 280.820312 131.566406 C 281.734375 133.09375 282.613281 134.640625 283.453125 136.210938 C 284.292969 137.78125 285.09375 139.371094 285.855469 140.980469 C 286.617188 142.589844 287.335938 144.21875 288.019531 145.863281 C 288.699219 147.507812 289.339844 149.167969 289.941406 150.847656 C 290.539062 152.523438 291.097656 154.214844 291.613281 155.917969 C 292.132812 157.621094 292.605469 159.335938 293.039062 161.0625 C 293.472656 162.789062 293.863281 164.527344 294.210938 166.273438 C 294.558594 168.019531 294.859375 169.773438 295.121094 171.535156 C 295.382812 173.296875 295.601562 175.0625 295.777344 176.835938 C 295.949219 178.609375 296.082031 180.382812 296.167969 182.160156 C 296.257812 183.941406 296.300781 185.71875 296.300781 187.5 Z M 296.300781 187.5 " fill-opacity="1" fill-rule="nonzero"/></svg>