<svg xmlns="http://www.w3.org/2000/svg" xmlns:xlink="http://www.w3.org/1999/xlink" width="500" zoomAndPan="magnify" viewBox="0 0 375 374.999991" height="500" preserveAspectRatio="xMidYMid meet" version="1.0"><path fill="#ee2332" d="M 320.089844 54.917969 C 309.144531 43.972656 297.078125 34.550781 284.15625 26.75 C 281.601562 25.207031 275.808594 22.269531 270.429688 19.601562 L 270.429688 19.261719 C 267.191406 17.664062 263.910156 16.164062 260.589844 14.753906 C 260.585938 14.753906 260.578125 14.75 260.574219 14.746094 L 260.574219 14.75 C 237.757812 5.089844 213.027344 0 187.507812 0 C 161.980469 0 137.242188 5.09375 114.421875 14.746094 C 105.027344 18.726562 95.949219 23.453125 87.292969 28.949219 C 75.707031 36.300781 64.851562 44.980469 54.917969 54.917969 C 19.503906 90.332031 0 137.421875 0 187.507812 C 0 237.59375 19.503906 284.679688 54.917969 320.09375 C 64.851562 330.03125 75.707031 338.710938 87.292969 346.0625 C 95.949219 351.5625 105.027344 356.289062 114.421875 360.265625 C 137.242188 369.925781 161.980469 375.011719 187.507812 375.011719 C 216.75 375.011719 244.957031 368.339844 270.429688 355.753906 L 270.429688 355.414062 C 275.808594 352.746094 281.601562 349.808594 284.15625 348.265625 C 297.078125 340.460938 309.144531 331.039062 320.089844 320.09375 C 355.503906 284.679688 375.007812 237.59375 375.007812 187.507812 C 375.007812 137.425781 355.503906 90.339844 320.089844 54.917969 " fill-opacity="1" fill-rule="nonzero"/><path fill="#ffffff" d="M 108.359375 198.992188 C 98.945312 150.277344 155.972656 70.328125 243.71875 128.332031 C 149.101562 28.023438 61.484375 126.40625 61.484375 187.039062 C 61.484375 273.355469 175.746094 336.003906 245.28125 240.398438 C 192.988281 293.6875 119.6875 257.628906 108.359375 198.992188 " fill-opacity="1" fill-rule="nonzero"/><path fill="#ffffff" d="M 299.058594 163.375 L 276.613281 140.003906 L 271.71875 172.035156 L 242.554688 186.152344 L 271.503906 200.710938 L 275.921875 232.808594 L 298.710938 209.777344 L 330.605469 215.492188 L 315.742188 186.703125 L 331.03125 158.136719 L 299.058594 163.375 " fill-opacity="1" fill-rule="nonzero"/></svg>