<svg xmlns="http://www.w3.org/2000/svg" xmlns:xlink="http://www.w3.org/1999/xlink" width="500" zoomAndPan="magnify" viewBox="0 0 375 374.999991" height="500" preserveAspectRatio="xMidYMid meet" version="1.0"><path fill="#e72a2e" d="M 74.5 37.835938 L 74.5 147.621094 L 4.246094 147.621094 C 13.902344 103.101562 39.375 64.417969 74.5 37.835938 Z M 74.5 37.835938 " fill-opacity="1" fill-rule="nonzero"/><path fill="#e72a2e" d="M 74.5 227.324219 L 74.5 337.164062 C 39.375 310.582031 13.902344 271.898438 4.246094 227.324219 Z M 74.5 227.324219 " fill-opacity="1" fill-rule="nonzero"/><path fill="#e72a2e" d="M 370.753906 147.621094 L 154.203125 147.621094 L 154.203125 2.972656 C 165.027344 1.007812 176.117188 0 187.527344 0 C 277.363281 0 352.5 63.25 370.753906 147.621094 Z M 370.753906 147.621094 " fill-opacity="1" fill-rule="nonzero"/><path fill="#e72a2e" d="M 370.753906 227.324219 C 352.5 311.75 277.363281 375 187.472656 375 C 176.117188 375 164.972656 373.992188 154.148438 372.027344 L 154.148438 227.324219 Z M 370.753906 227.324219 " fill-opacity="1" fill-rule="nonzero"/><path fill="#ededed" d="M 89.519531 27.59375 L 89.519531 162.640625 L 1.644531 162.640625 C 2.335938 157.546875 3.183594 152.558594 4.246094 147.621094 L 74.5 147.621094 L 74.5 37.835938 C 79.328125 34.226562 84.371094 30.777344 89.519531 27.59375 Z M 89.519531 27.59375 " fill-opacity="1" fill-rule="nonzero"/><path fill="#ededed" d="M 373.355469 162.640625 L 139.1875 162.640625 L 139.1875 6.316406 C 144.121094 4.988281 149.109375 3.875 154.203125 2.972656 L 154.203125 147.675781 L 370.753906 147.675781 C 371.816406 152.558594 372.71875 157.597656 373.355469 162.640625 Z M 373.355469 162.640625 " fill-opacity="1" fill-rule="nonzero"/><path fill="#ededed" d="M 373.40625 212.308594 C 372.71875 217.402344 371.871094 222.390625 370.808594 227.324219 L 154.203125 227.324219 L 154.203125 372.082031 C 149.109375 371.179688 144.121094 370.066406 139.1875 368.738281 L 139.1875 212.308594 Z M 373.40625 212.308594 " fill-opacity="1" fill-rule="nonzero"/><path fill="#013362" d="M 375 187.527344 C 375 195.910156 374.46875 204.242188 373.355469 212.308594 L 139.1875 212.308594 L 139.1875 368.738281 C 121.460938 364.015625 104.800781 356.800781 89.519531 347.40625 L 89.519531 212.308594 L 1.644531 212.308594 C 0.53125 204.1875 0 195.910156 0 187.527344 C 0 179.089844 0.53125 170.8125 1.644531 162.691406 L 89.519531 162.691406 L 89.519531 27.59375 C 104.746094 18.253906 121.460938 10.984375 139.1875 6.261719 L 139.1875 162.640625 L 373.40625 162.640625 C 374.46875 170.8125 375 179.089844 375 187.527344 Z M 375 187.527344 " fill-opacity="1" fill-rule="nonzero"/><path fill="#ededed" d="M 89.519531 212.308594 L 89.519531 347.40625 C 84.316406 344.222656 79.328125 340.828125 74.5 337.164062 L 74.5 227.324219 L 4.246094 227.324219 C 3.183594 222.390625 2.28125 217.402344 1.644531 212.308594 Z M 89.519531 212.308594 " fill-opacity="1" fill-rule="nonzero"/></svg>