<svg xmlns="http://www.w3.org/2000/svg" xmlns:xlink="http://www.w3.org/1999/xlink" width="500" zoomAndPan="magnify" viewBox="0 0 375 374.999991" height="500" preserveAspectRatio="xMidYMid meet" version="1.0"><defs><clipPath id="0d8ffa90f6"><path d="M 0 33.28125 L 375 33.28125 L 375 341.53125 L 0 341.53125 Z M 0 33.28125 " clip-rule="nonzero"/></clipPath></defs><g clip-path="url(#0d8ffa90f6)"><path fill="#3eadcf" d="M 303.328125 245.351562 C 304.308594 246.472656 305.207031 247.660156 306.019531 248.914062 C 306.832031 250.164062 307.550781 251.464844 308.179688 252.820312 C 308.804688 254.175781 309.332031 255.566406 309.757812 256.996094 C 310.183594 258.425781 310.503906 259.878906 310.722656 261.355469 C 310.941406 262.832031 311.050781 264.316406 311.054688 265.804688 C 311.0625 267.296875 310.960938 268.78125 310.753906 270.261719 C 310.542969 271.738281 310.230469 273.191406 309.816406 274.625 C 309.398438 276.058594 308.882812 277.453125 308.265625 278.8125 C 307.648438 280.167969 306.9375 281.476562 306.132812 282.734375 C 305.328125 283.988281 304.441406 285.183594 303.464844 286.3125 C 302.488281 287.441406 301.4375 288.496094 300.3125 289.472656 C 299.183594 290.453125 297.992188 291.34375 296.738281 292.152344 C 295.484375 292.960938 294.179688 293.675781 292.820312 294.296875 C 291.464844 294.917969 290.070312 295.4375 288.636719 295.859375 C 287.207031 296.28125 285.75 296.597656 284.273438 296.8125 C 282.796875 297.023438 281.308594 297.128906 279.816406 297.128906 L 95.183594 297.128906 C 93.691406 297.128906 92.207031 297.023438 90.730469 296.8125 C 89.253906 296.597656 87.796875 296.28125 86.367188 295.859375 C 84.933594 295.4375 83.539062 294.917969 82.183594 294.296875 C 80.824219 293.675781 79.519531 292.960938 78.265625 292.152344 C 77.007812 291.34375 75.820312 290.453125 74.691406 289.472656 C 73.566406 288.496094 72.515625 287.441406 71.539062 286.3125 C 70.5625 285.183594 69.675781 283.988281 68.871094 282.734375 C 68.066406 281.476562 67.355469 280.167969 66.738281 278.8125 C 66.121094 277.453125 65.605469 276.058594 65.1875 274.625 C 64.769531 273.191406 64.457031 271.738281 64.25 270.257812 C 64.042969 268.78125 63.941406 267.296875 63.945312 265.804688 C 63.953125 264.316406 64.0625 262.832031 64.28125 261.355469 C 64.5 259.878906 64.820312 258.425781 65.246094 256.996094 C 65.671875 255.566406 66.199219 254.175781 66.824219 252.820312 C 67.449219 251.464844 68.167969 250.164062 68.984375 248.914062 C 69.796875 247.660156 70.691406 246.472656 71.675781 245.351562 C 74.058594 242.628906 76.316406 239.808594 78.445312 236.882812 C 80.570312 233.957031 82.566406 230.945312 84.421875 227.839844 C 86.28125 224.738281 87.996094 221.558594 89.566406 218.300781 C 91.136719 215.042969 92.5625 211.71875 93.832031 208.335938 C 95.105469 204.949219 96.222656 201.511719 97.1875 198.027344 C 98.152344 194.539062 98.957031 191.019531 99.601562 187.460938 C 100.25 183.902344 100.734375 180.320312 101.0625 176.71875 C 101.386719 173.117188 101.546875 169.507812 101.546875 165.890625 L 101.546875 136.066406 C 101.546875 134.726562 101.582031 133.382812 101.644531 132.042969 C 101.707031 130.699219 101.800781 129.363281 101.929688 128.023438 C 102.054688 126.6875 102.214844 125.355469 102.402344 124.027344 C 102.589844 122.695312 102.8125 121.371094 103.0625 120.054688 C 103.3125 118.734375 103.597656 117.421875 103.910156 116.117188 C 104.222656 114.808594 104.566406 113.511719 104.9375 112.222656 C 105.3125 110.933594 105.71875 109.652344 106.152344 108.382812 C 106.585938 107.113281 107.046875 105.851562 107.542969 104.601562 C 108.035156 103.351562 108.554688 102.117188 109.109375 100.890625 C 109.660156 99.667969 110.238281 98.457031 110.847656 97.257812 C 111.453125 96.0625 112.089844 94.878906 112.753906 93.710938 C 113.417969 92.542969 114.109375 91.394531 114.824219 90.257812 C 115.542969 89.121094 116.285156 88.003906 117.058594 86.90625 C 117.828125 85.804688 118.621094 84.722656 119.441406 83.660156 C 120.265625 82.597656 121.109375 81.554688 121.980469 80.53125 C 122.847656 79.507812 123.742188 78.503906 124.660156 77.523438 C 125.574219 76.542969 126.515625 75.582031 127.476562 74.644531 C 128.4375 73.707031 129.421875 72.792969 130.425781 71.902344 C 131.433594 71.011719 132.457031 70.144531 133.503906 69.300781 C 134.550781 68.457031 135.613281 67.640625 136.699219 66.847656 C 137.78125 66.054688 138.882812 65.285156 140.003906 64.542969 C 141.125 63.800781 142.261719 63.085938 143.414062 62.398438 C 144.566406 61.710938 145.738281 61.050781 146.921875 60.417969 C 148.105469 59.785156 149.304688 59.179688 150.519531 58.601562 C 151.730469 58.023438 152.957031 57.476562 154.195312 56.957031 C 155.433594 56.4375 156.683594 55.945312 157.945312 55.484375 C 159.207031 55.023438 160.480469 54.59375 161.761719 54.191406 C 163.042969 53.789062 164.335938 53.417969 165.636719 53.078125 C 166.933594 52.738281 168.242188 52.425781 169.554688 52.148438 C 170.871094 51.867188 172.1875 51.617188 173.515625 51.402344 C 174.839844 51.183594 176.171875 50.996094 177.503906 50.839844 C 178.839844 50.6875 180.175781 50.5625 181.519531 50.46875 C 181.511719 50.363281 181.457031 50.273438 181.457031 50.167969 L 181.457031 39.429688 C 181.457031 39.035156 181.496094 38.640625 181.574219 38.25 C 181.648438 37.863281 181.765625 37.484375 181.917969 37.117188 C 182.066406 36.753906 182.253906 36.40625 182.476562 36.074219 C 182.695312 35.746094 182.945312 35.441406 183.226562 35.160156 C 183.507812 34.878906 183.8125 34.628906 184.140625 34.410156 C 184.472656 34.1875 184.820312 34 185.1875 33.851562 C 185.554688 33.699219 185.933594 33.582031 186.320312 33.507812 C 186.710938 33.429688 187.101562 33.390625 187.5 33.390625 C 187.898438 33.390625 188.289062 33.429688 188.679688 33.507812 C 189.066406 33.582031 189.445312 33.699219 189.8125 33.851562 C 190.179688 34 190.527344 34.1875 190.859375 34.410156 C 191.1875 34.628906 191.492188 34.878906 191.773438 35.160156 C 192.054688 35.441406 192.304688 35.746094 192.523438 36.074219 C 192.746094 36.40625 192.929688 36.753906 193.082031 37.117188 C 193.234375 37.484375 193.351562 37.863281 193.425781 38.25 C 193.503906 38.640625 193.542969 39.035156 193.542969 39.429688 L 193.542969 50.167969 C 193.542969 50.273438 193.488281 50.363281 193.480469 50.46875 C 194.824219 50.5625 196.160156 50.6875 197.496094 50.84375 C 198.828125 50.996094 200.160156 51.183594 201.484375 51.402344 C 202.8125 51.621094 204.128906 51.867188 205.445312 52.148438 C 206.757812 52.425781 208.066406 52.738281 209.363281 53.078125 C 210.664062 53.417969 211.957031 53.789062 213.238281 54.191406 C 214.519531 54.59375 215.792969 55.023438 217.054688 55.484375 C 218.316406 55.945312 219.566406 56.4375 220.804688 56.957031 C 222.042969 57.476562 223.269531 58.023438 224.480469 58.601562 C 225.695312 59.179688 226.894531 59.785156 228.078125 60.417969 C 229.261719 61.050781 230.433594 61.710938 231.585938 62.398438 C 232.738281 63.089844 233.875 63.804688 234.996094 64.542969 C 236.117188 65.285156 237.21875 66.054688 238.300781 66.847656 C 239.386719 67.640625 240.449219 68.457031 241.496094 69.300781 C 242.542969 70.144531 243.566406 71.011719 244.570312 71.902344 C 245.578125 72.792969 246.558594 73.707031 247.523438 74.644531 C 248.484375 75.582031 249.421875 76.542969 250.339844 77.523438 C 251.257812 78.503906 252.152344 79.507812 253.019531 80.53125 C 253.890625 81.554688 254.734375 82.597656 255.558594 83.660156 C 256.378906 84.722656 257.171875 85.804688 257.941406 86.90625 C 258.714844 88.003906 259.457031 89.125 260.175781 90.257812 C 260.890625 91.394531 261.582031 92.542969 262.246094 93.710938 C 262.910156 94.878906 263.546875 96.0625 264.152344 97.257812 C 264.761719 98.457031 265.339844 99.667969 265.890625 100.890625 C 266.441406 102.117188 266.964844 103.355469 267.457031 104.601562 C 267.953125 105.851562 268.414062 107.113281 268.847656 108.382812 C 269.28125 109.652344 269.6875 110.933594 270.0625 112.222656 C 270.433594 113.511719 270.777344 114.808594 271.089844 116.117188 C 271.402344 117.421875 271.6875 118.734375 271.9375 120.054688 C 272.1875 121.371094 272.410156 122.695312 272.597656 124.027344 C 272.785156 125.355469 272.945312 126.6875 273.070312 128.023438 C 273.199219 129.363281 273.292969 130.699219 273.355469 132.042969 C 273.417969 133.382812 273.453125 134.726562 273.453125 136.066406 L 273.453125 165.890625 C 273.453125 169.507812 273.613281 173.117188 273.9375 176.71875 C 274.265625 180.320312 274.75 183.898438 275.398438 187.457031 C 276.042969 191.015625 276.847656 194.539062 277.8125 198.023438 C 278.777344 201.511719 279.894531 204.945312 281.167969 208.332031 C 282.441406 211.71875 283.863281 215.039062 285.433594 218.296875 C 287.003906 221.554688 288.71875 224.734375 290.578125 227.839844 C 292.4375 230.945312 294.429688 233.957031 296.558594 236.882812 C 298.6875 239.808594 300.945312 242.628906 303.328125 245.351562 Z M 76.414062 109.085938 C 76.101562 108.84375 75.765625 108.632812 75.414062 108.453125 C 75.058594 108.277344 74.6875 108.136719 74.304688 108.03125 C 73.921875 107.925781 73.535156 107.859375 73.136719 107.832031 C 72.742188 107.804688 72.347656 107.816406 71.953125 107.863281 C 71.558594 107.914062 71.175781 108 70.796875 108.128906 C 70.421875 108.253906 70.0625 108.414062 69.714844 108.609375 C 69.371094 108.808594 69.050781 109.035156 68.75 109.296875 C 68.449219 109.554688 68.179688 109.84375 67.9375 110.15625 C 63.847656 115.425781 60.125 120.945312 56.769531 126.710938 C 53.414062 132.476562 50.457031 138.441406 47.898438 144.601562 C 45.339844 150.761719 43.203125 157.066406 41.484375 163.511719 C 39.769531 169.957031 38.484375 176.488281 37.640625 183.101562 C 37.589844 183.496094 37.578125 183.890625 37.605469 184.285156 C 37.632812 184.683594 37.699219 185.070312 37.804688 185.453125 C 37.90625 185.835938 38.046875 186.207031 38.226562 186.5625 C 38.402344 186.917969 38.613281 187.25 38.855469 187.5625 C 39.097656 187.878906 39.371094 188.164062 39.667969 188.425781 C 39.96875 188.6875 40.289062 188.914062 40.636719 189.109375 C 40.980469 189.308594 41.339844 189.46875 41.714844 189.59375 C 42.09375 189.722656 42.476562 189.808594 42.871094 189.859375 C 43.128906 189.890625 43.386719 189.90625 43.644531 189.90625 C 44.007812 189.90625 44.371094 189.871094 44.730469 189.808594 C 45.085938 189.742188 45.4375 189.644531 45.777344 189.515625 C 46.117188 189.386719 46.445312 189.226562 46.757812 189.039062 C 47.066406 188.851562 47.359375 188.636719 47.632812 188.398438 C 47.90625 188.15625 48.15625 187.890625 48.382812 187.605469 C 48.609375 187.320312 48.804688 187.015625 48.976562 186.695312 C 49.148438 186.375 49.289062 186.039062 49.398438 185.691406 C 49.507812 185.34375 49.585938 184.992188 49.632812 184.628906 C 50.410156 178.546875 51.589844 172.542969 53.167969 166.617188 C 54.746094 160.6875 56.710938 154.894531 59.066406 149.230469 C 61.417969 143.566406 64.136719 138.082031 67.21875 132.78125 C 70.304688 127.476562 73.726562 122.402344 77.484375 117.558594 C 77.730469 117.246094 77.9375 116.910156 78.117188 116.554688 C 78.292969 116.199219 78.433594 115.832031 78.539062 115.449219 C 78.644531 115.066406 78.710938 114.679688 78.738281 114.285156 C 78.765625 113.886719 78.753906 113.492188 78.707031 113.101562 C 78.65625 112.707031 78.566406 112.324219 78.441406 111.945312 C 78.316406 111.570312 78.15625 111.210938 77.960938 110.867188 C 77.761719 110.519531 77.535156 110.199219 77.273438 109.898438 C 77.015625 109.601562 76.726562 109.328125 76.414062 109.085938 Z M 63.574219 70.109375 C 63.292969 69.828125 62.988281 69.578125 62.65625 69.359375 C 62.328125 69.140625 61.980469 68.953125 61.613281 68.800781 C 61.246094 68.648438 60.867188 68.535156 60.480469 68.457031 C 60.089844 68.378906 59.695312 68.34375 59.300781 68.34375 C 58.902344 68.34375 58.511719 68.378906 58.121094 68.457031 C 57.730469 68.535156 57.355469 68.648438 56.988281 68.800781 C 56.621094 68.953125 56.273438 69.140625 55.941406 69.359375 C 55.613281 69.578125 55.308594 69.828125 55.027344 70.109375 C 50.675781 74.4375 46.546875 78.964844 42.644531 83.699219 C 38.738281 88.433594 35.078125 93.347656 31.660156 98.445312 C 28.242188 103.542969 25.085938 108.792969 22.191406 114.203125 C 19.292969 119.609375 16.667969 125.148438 14.320312 130.816406 C 11.972656 136.484375 9.90625 142.253906 8.128906 148.125 C 6.351562 153.996094 4.867188 159.941406 3.679688 165.957031 C 2.488281 171.976562 1.597656 178.039062 1.011719 184.144531 C 0.421875 190.25 0.132812 196.371094 0.152344 202.503906 C 0.152344 202.902344 0.191406 203.296875 0.265625 203.683594 C 0.34375 204.074219 0.460938 204.449219 0.609375 204.816406 C 0.761719 205.183594 0.949219 205.53125 1.167969 205.863281 C 1.390625 206.191406 1.640625 206.496094 1.921875 206.777344 C 2.203125 207.058594 2.507812 207.308594 2.835938 207.527344 C 3.167969 207.75 3.515625 207.933594 3.882812 208.085938 C 4.25 208.238281 4.625 208.351562 5.015625 208.429688 C 5.40625 208.507812 5.796875 208.546875 6.195312 208.546875 C 6.589844 208.546875 6.984375 208.507812 7.375 208.429688 C 7.761719 208.351562 8.140625 208.238281 8.507812 208.085938 C 8.875 207.933594 9.222656 207.75 9.550781 207.527344 C 9.882812 207.308594 10.1875 207.058594 10.46875 206.777344 C 10.75 206.496094 11 206.191406 11.21875 205.863281 C 11.441406 205.53125 11.625 205.183594 11.777344 204.816406 C 11.929688 204.449219 12.042969 204.074219 12.121094 203.683594 C 12.199219 203.296875 12.238281 202.902344 12.238281 202.503906 C 12.222656 196.765625 12.492188 191.042969 13.042969 185.328125 C 13.59375 179.617188 14.425781 173.945312 15.539062 168.316406 C 16.648438 162.6875 18.039062 157.125 19.699219 151.632812 C 21.363281 146.140625 23.292969 140.742188 25.492188 135.441406 C 27.6875 130.136719 30.144531 124.957031 32.851562 119.898438 C 35.5625 114.839844 38.515625 109.925781 41.710938 105.160156 C 44.910156 100.390625 48.332031 95.792969 51.984375 91.363281 C 55.636719 86.933594 59.5 82.699219 63.570312 78.652344 C 63.851562 78.371094 64.101562 78.066406 64.320312 77.734375 C 64.542969 77.40625 64.726562 77.058594 64.878906 76.691406 C 65.03125 76.324219 65.144531 75.949219 65.222656 75.558594 C 65.300781 75.167969 65.339844 74.777344 65.339844 74.378906 C 65.339844 73.984375 65.300781 73.589844 65.222656 73.203125 C 65.144531 72.8125 65.03125 72.4375 64.878906 72.070312 C 64.726562 71.703125 64.542969 71.355469 64.320312 71.027344 C 64.101562 70.695312 63.851562 70.390625 63.570312 70.109375 Z M 298.589844 109.085938 C 298.277344 109.328125 297.988281 109.601562 297.730469 109.898438 C 297.46875 110.199219 297.242188 110.519531 297.042969 110.867188 C 296.847656 111.210938 296.6875 111.570312 296.5625 111.945312 C 296.4375 112.324219 296.347656 112.707031 296.296875 113.101562 C 296.25 113.492188 296.238281 113.886719 296.265625 114.285156 C 296.292969 114.679688 296.359375 115.066406 296.464844 115.449219 C 296.570312 115.832031 296.710938 116.203125 296.886719 116.554688 C 297.066406 116.910156 297.273438 117.246094 297.519531 117.558594 C 301.28125 122.40625 304.703125 127.480469 307.785156 132.78125 C 310.871094 138.082031 313.585938 143.566406 315.941406 149.230469 C 318.292969 154.894531 320.257812 160.691406 321.835938 166.617188 C 323.414062 172.542969 324.59375 178.546875 325.371094 184.632812 C 325.417969 184.992188 325.496094 185.347656 325.605469 185.691406 C 325.714844 186.039062 325.855469 186.375 326.027344 186.695312 C 326.199219 187.019531 326.398438 187.320312 326.621094 187.609375 C 326.847656 187.894531 327.097656 188.15625 327.371094 188.398438 C 327.644531 188.636719 327.9375 188.851562 328.25 189.039062 C 328.558594 189.226562 328.886719 189.386719 329.226562 189.515625 C 329.566406 189.644531 329.917969 189.742188 330.277344 189.808594 C 330.632812 189.875 330.996094 189.90625 331.359375 189.90625 C 331.617188 189.90625 331.875 189.890625 332.132812 189.859375 C 332.527344 189.808594 332.910156 189.722656 333.289062 189.597656 C 333.664062 189.46875 334.023438 189.308594 334.371094 189.113281 C 334.714844 188.914062 335.035156 188.6875 335.335938 188.425781 C 335.636719 188.164062 335.90625 187.878906 336.148438 187.566406 C 336.390625 187.25 336.601562 186.917969 336.777344 186.5625 C 336.957031 186.207031 337.097656 185.839844 337.199219 185.457031 C 337.304688 185.074219 337.371094 184.683594 337.398438 184.289062 C 337.425781 183.890625 337.414062 183.496094 337.363281 183.105469 C 336.519531 176.488281 335.234375 169.957031 333.519531 163.511719 C 331.800781 157.066406 329.660156 150.761719 327.101562 144.601562 C 324.542969 138.441406 321.585938 132.476562 318.230469 126.710938 C 314.878906 120.945312 311.15625 115.425781 307.0625 110.15625 C 306.820312 109.84375 306.550781 109.554688 306.25 109.296875 C 305.949219 109.035156 305.628906 108.808594 305.285156 108.609375 C 304.9375 108.414062 304.578125 108.253906 304.203125 108.128906 C 303.824219 108 303.441406 107.914062 303.046875 107.863281 C 302.652344 107.816406 302.257812 107.804688 301.863281 107.832031 C 301.464844 107.859375 301.078125 107.925781 300.695312 108.03125 C 300.3125 108.136719 299.941406 108.277344 299.585938 108.453125 C 299.234375 108.632812 298.898438 108.84375 298.585938 109.085938 Z M 319.980469 70.109375 C 319.699219 69.835938 319.390625 69.59375 319.0625 69.382812 C 318.734375 69.167969 318.386719 68.988281 318.023438 68.84375 C 317.65625 68.699219 317.28125 68.589844 316.898438 68.519531 C 316.511719 68.445312 316.121094 68.410156 315.730469 68.414062 C 315.335938 68.417969 314.949219 68.460938 314.5625 68.539062 C 314.179688 68.617188 313.808594 68.734375 313.445312 68.882812 C 313.082031 69.035156 312.738281 69.222656 312.414062 69.441406 C 312.085938 69.660156 311.785156 69.90625 311.507812 70.183594 C 311.230469 70.460938 310.984375 70.761719 310.765625 71.089844 C 310.546875 71.414062 310.359375 71.757812 310.207031 72.117188 C 310.058594 72.480469 309.941406 72.855469 309.863281 73.238281 C 309.785156 73.621094 309.742188 74.011719 309.738281 74.402344 C 309.734375 74.792969 309.769531 75.183594 309.84375 75.570312 C 309.914062 75.953125 310.023438 76.328125 310.167969 76.691406 C 310.3125 77.058594 310.492188 77.402344 310.707031 77.734375 C 310.917969 78.0625 311.164062 78.367188 311.433594 78.652344 C 315.507812 82.699219 319.367188 86.9375 323.019531 91.363281 C 326.671875 95.792969 330.09375 100.390625 333.289062 105.160156 C 336.488281 109.925781 339.441406 114.839844 342.148438 119.898438 C 344.859375 124.957031 347.3125 130.140625 349.511719 135.441406 C 351.707031 140.742188 353.636719 146.140625 355.300781 151.632812 C 356.964844 157.125 358.351562 162.6875 359.464844 168.316406 C 360.574219 173.945312 361.40625 179.617188 361.957031 185.328125 C 362.511719 191.042969 362.777344 196.765625 362.761719 202.503906 C 362.761719 202.902344 362.800781 203.296875 362.878906 203.683594 C 362.957031 204.074219 363.070312 204.449219 363.222656 204.816406 C 363.375 205.183594 363.558594 205.53125 363.78125 205.863281 C 364 206.191406 364.25 206.496094 364.53125 206.777344 C 364.8125 207.058594 365.117188 207.308594 365.449219 207.527344 C 365.777344 207.75 366.125 207.933594 366.492188 208.085938 C 366.859375 208.238281 367.238281 208.351562 367.625 208.429688 C 368.015625 208.507812 368.410156 208.546875 368.804688 208.546875 C 369.203125 208.546875 369.59375 208.507812 369.984375 208.429688 C 370.375 208.351562 370.75 208.238281 371.117188 208.085938 C 371.484375 207.933594 371.832031 207.75 372.164062 207.527344 C 372.492188 207.308594 372.796875 207.058594 373.078125 206.777344 C 373.359375 206.496094 373.609375 206.191406 373.832031 205.863281 C 374.050781 205.53125 374.238281 205.183594 374.390625 204.816406 C 374.539062 204.449219 374.65625 204.074219 374.734375 203.683594 C 374.808594 203.296875 374.847656 202.902344 374.847656 202.503906 C 374.867188 196.371094 374.578125 190.25 373.988281 184.144531 C 373.402344 178.039062 372.511719 171.976562 371.324219 165.957031 C 370.132812 159.941406 368.648438 153.996094 366.871094 148.125 C 365.09375 142.253906 363.03125 136.484375 360.679688 130.816406 C 358.332031 125.148438 355.710938 119.609375 352.8125 114.203125 C 349.914062 108.792969 346.757812 103.542969 343.339844 98.445312 C 339.921875 93.347656 336.261719 88.433594 332.359375 83.699219 C 328.457031 78.964844 324.328125 74.4375 319.976562 70.109375 Z M 192.871094 341.421875 C 194.050781 341.421875 195.230469 341.371094 196.40625 341.273438 C 197.582031 341.175781 198.75 341.03125 199.914062 340.835938 C 201.078125 340.640625 202.234375 340.402344 203.378906 340.113281 C 204.523438 339.824219 205.652344 339.488281 206.769531 339.105469 C 207.882812 338.722656 208.984375 338.292969 210.0625 337.820312 C 211.144531 337.347656 212.207031 336.832031 213.242188 336.273438 C 214.28125 335.710938 215.296875 335.109375 216.285156 334.46875 C 217.273438 333.824219 218.234375 333.140625 219.167969 332.417969 C 220.097656 331.695312 221 330.9375 221.871094 330.136719 C 222.742188 329.339844 223.574219 328.511719 224.378906 327.644531 C 225.179688 326.777344 225.941406 325.882812 226.671875 324.953125 C 227.398438 324.023438 228.085938 323.066406 228.734375 322.082031 C 229.382812 321.097656 229.988281 320.085938 230.554688 319.050781 C 231.121094 318.015625 231.640625 316.960938 232.117188 315.878906 C 232.597656 314.800781 233.027344 313.707031 233.417969 312.59375 C 233.804688 311.480469 234.144531 310.351562 234.441406 309.207031 L 151.304688 309.207031 C 151.597656 310.351562 151.941406 311.480469 152.328125 312.59375 C 152.714844 313.707031 153.148438 314.800781 153.625 315.878906 C 154.101562 316.960938 154.625 318.015625 155.191406 319.050781 C 155.753906 320.085938 156.363281 321.097656 157.011719 322.082031 C 157.660156 323.066406 158.347656 324.023438 159.074219 324.953125 C 159.800781 325.882812 160.566406 326.777344 161.367188 327.644531 C 162.167969 328.511719 163.003906 329.339844 163.875 330.136719 C 164.742188 330.9375 165.644531 331.695312 166.578125 332.417969 C 167.507812 333.140625 168.46875 333.824219 169.460938 334.46875 C 170.449219 335.109375 171.460938 335.710938 172.5 336.273438 C 173.539062 336.832031 174.597656 337.347656 175.679688 337.820312 C 176.761719 338.292969 177.859375 338.722656 178.976562 339.105469 C 180.09375 339.488281 181.222656 339.824219 182.367188 340.113281 C 183.511719 340.402344 184.664062 340.640625 185.828125 340.835938 C 186.992188 341.03125 188.160156 341.175781 189.339844 341.273438 C 190.515625 341.371094 191.691406 341.421875 192.871094 341.421875 Z M 192.871094 341.421875 " fill-opacity="1" fill-rule="nonzero"/></g></svg>