<svg xmlns="http://www.w3.org/2000/svg" xmlns:xlink="http://www.w3.org/1999/xlink" width="500" zoomAndPan="magnify" viewBox="0 0 375 374.999991" height="500" preserveAspectRatio="xMidYMid meet" version="1.0"><path fill="#da291c" d="M 374.949219 187.449219 C 374.949219 190.519531 374.875 193.582031 374.722656 196.648438 C 374.574219 199.710938 374.347656 202.769531 374.046875 205.824219 C 373.746094 208.875 373.371094 211.921875 372.921875 214.953125 C 372.472656 217.988281 371.945312 221.011719 371.347656 224.019531 C 370.75 227.027344 370.078125 230.019531 369.332031 232.996094 C 368.585938 235.972656 367.769531 238.929688 366.878906 241.863281 C 365.988281 244.800781 365.027344 247.710938 363.992188 250.601562 C 362.957031 253.488281 361.855469 256.351562 360.679688 259.183594 C 359.507812 262.019531 358.265625 264.820312 356.953125 267.59375 C 355.640625 270.367188 354.261719 273.109375 352.816406 275.8125 C 351.371094 278.519531 349.859375 281.1875 348.28125 283.820312 C 346.703125 286.449219 345.0625 289.039062 343.359375 291.589844 C 341.65625 294.140625 339.890625 296.648438 338.0625 299.113281 C 336.234375 301.578125 334.347656 303.996094 332.402344 306.367188 C 330.453125 308.738281 328.453125 311.0625 326.390625 313.332031 C 324.332031 315.605469 322.214844 317.828125 320.046875 319.996094 C 317.878906 322.167969 315.65625 324.28125 313.382812 326.339844 C 311.109375 328.402344 308.789062 330.40625 306.417969 332.351562 C 304.046875 334.296875 301.628906 336.183594 299.164062 338.011719 C 296.699219 339.839844 294.191406 341.605469 291.640625 343.308594 C 289.089844 345.011719 286.5 346.652344 283.867188 348.230469 C 281.238281 349.808594 278.570312 351.320312 275.863281 352.765625 C 273.15625 354.210938 270.417969 355.589844 267.644531 356.902344 C 264.871094 358.214844 262.066406 359.457031 259.234375 360.632812 C 256.398438 361.804688 253.539062 362.910156 250.648438 363.941406 C 247.761719 364.976562 244.847656 365.9375 241.914062 366.828125 C 238.976562 367.71875 236.023438 368.535156 233.046875 369.28125 C 230.070312 370.027344 227.078125 370.699219 224.070312 371.296875 C 221.0625 371.898438 218.039062 372.421875 215.003906 372.871094 C 211.96875 373.320312 208.925781 373.695312 205.875 373.996094 C 202.820312 374.296875 199.761719 374.523438 196.699219 374.675781 C 193.632812 374.824219 190.566406 374.898438 187.5 374.898438 C 184.433594 374.898438 181.367188 374.824219 178.300781 374.675781 C 175.238281 374.523438 172.179688 374.296875 169.125 373.996094 C 166.074219 373.695312 163.03125 373.320312 159.996094 372.871094 C 156.960938 372.421875 153.9375 371.898438 150.929688 371.296875 C 147.921875 370.699219 144.929688 370.027344 141.953125 369.28125 C 138.976562 368.535156 136.023438 367.71875 133.085938 366.828125 C 130.152344 365.9375 127.238281 364.976562 124.351562 363.941406 C 121.460938 362.910156 118.601562 361.804688 115.765625 360.632812 C 112.933594 359.457031 110.128906 358.214844 107.355469 356.902344 C 104.582031 355.589844 101.84375 354.210938 99.136719 352.765625 C 96.429688 351.320312 93.761719 349.808594 91.132812 348.230469 C 88.5 346.652344 85.910156 345.011719 83.359375 343.308594 C 80.808594 341.605469 78.300781 339.839844 75.835938 338.011719 C 73.371094 336.183594 70.953125 334.296875 68.582031 332.351562 C 66.210938 330.40625 63.890625 328.402344 61.617188 326.339844 C 59.34375 324.28125 57.121094 322.167969 54.953125 319.996094 C 52.785156 317.828125 50.667969 315.605469 48.609375 313.332031 C 46.546875 311.0625 44.546875 308.738281 42.597656 306.367188 C 40.652344 303.996094 38.765625 301.578125 36.9375 299.113281 C 35.109375 296.648438 33.34375 294.140625 31.640625 291.589844 C 29.9375 289.039062 28.296875 286.449219 26.71875 283.820312 C 25.140625 281.1875 23.628906 278.519531 22.183594 275.8125 C 20.738281 273.109375 19.359375 270.367188 18.046875 267.59375 C 16.734375 264.820312 15.492188 262.019531 14.320312 259.183594 C 13.144531 256.351562 12.042969 253.488281 11.007812 250.601562 C 9.972656 247.710938 9.011719 244.800781 8.121094 241.863281 C 7.230469 238.929688 6.414062 235.972656 5.667969 232.996094 C 4.921875 230.019531 4.25 227.027344 3.652344 224.019531 C 3.054688 221.011719 2.527344 217.988281 2.078125 214.953125 C 1.628906 211.921875 1.253906 208.875 0.953125 205.824219 C 0.652344 202.769531 0.425781 199.710938 0.277344 196.648438 C 0.125 193.582031 0.0507812 190.519531 0.0507812 187.449219 C 0.0507812 184.382812 0.125 181.316406 0.277344 178.253906 C 0.425781 175.1875 0.652344 172.128906 0.953125 169.078125 C 1.253906 166.023438 1.628906 162.980469 2.078125 159.945312 C 2.527344 156.910156 3.054688 153.890625 3.652344 150.878906 C 4.25 147.871094 4.921875 144.878906 5.667969 141.902344 C 6.414062 138.925781 7.230469 135.972656 8.121094 133.035156 C 9.011719 130.101562 9.972656 127.1875 11.007812 124.300781 C 12.042969 121.410156 13.144531 118.550781 14.320312 115.714844 C 15.492188 112.882812 16.734375 110.078125 18.046875 107.304688 C 19.359375 104.53125 20.738281 101.792969 22.183594 99.085938 C 23.628906 96.382812 25.140625 93.710938 26.71875 91.082031 C 28.296875 88.449219 29.9375 85.859375 31.640625 83.308594 C 33.34375 80.757812 35.109375 78.25 36.9375 75.785156 C 38.765625 73.320312 40.652344 70.90625 42.597656 68.53125 C 44.546875 66.160156 46.546875 63.839844 48.609375 61.566406 C 50.667969 59.292969 52.785156 57.070312 54.953125 54.902344 C 57.121094 52.734375 59.34375 50.617188 61.617188 48.558594 C 63.890625 46.5 66.210938 44.496094 68.582031 42.550781 C 70.953125 40.601562 73.371094 38.714844 75.835938 36.890625 C 78.300781 35.0625 80.808594 33.296875 83.359375 31.589844 C 85.910156 29.886719 88.5 28.246094 91.132812 26.667969 C 93.761719 25.089844 96.429688 23.578125 99.136719 22.132812 C 101.84375 20.6875 104.582031 19.308594 107.355469 17.996094 C 110.128906 16.6875 112.933594 15.441406 115.765625 14.269531 C 118.601562 13.09375 121.460938 11.992188 124.351562 10.957031 C 127.238281 9.925781 130.152344 8.960938 133.085938 8.070312 C 136.023438 7.179688 138.976562 6.363281 141.953125 5.617188 C 144.929688 4.871094 147.921875 4.199219 150.929688 3.601562 C 153.9375 3.003906 156.960938 2.480469 159.996094 2.027344 C 163.03125 1.578125 166.074219 1.203125 169.125 0.902344 C 172.179688 0.601562 175.238281 0.375 178.300781 0.226562 C 181.367188 0.0742188 184.433594 0 187.5 0 C 190.566406 0 193.632812 0.0742188 196.699219 0.226562 C 199.761719 0.375 202.820312 0.601562 205.875 0.902344 C 208.925781 1.203125 211.96875 1.578125 215.003906 2.027344 C 218.039062 2.480469 221.0625 3.003906 224.070312 3.601562 C 227.078125 4.199219 230.070312 4.871094 233.046875 5.617188 C 236.023438 6.363281 238.976562 7.179688 241.914062 8.070312 C 244.847656 8.960938 247.761719 9.925781 250.648438 10.957031 C 253.539062 11.992188 256.398438 13.09375 259.234375 14.269531 C 262.066406 15.441406 264.871094 16.6875 267.644531 17.996094 C 270.417969 19.308594 273.15625 20.6875 275.863281 22.132812 C 278.570312 23.578125 281.238281 25.089844 283.867188 26.667969 C 286.5 28.246094 289.089844 29.886719 291.640625 31.589844 C 294.191406 33.296875 296.699219 35.0625 299.164062 36.890625 C 301.628906 38.714844 304.046875 40.601562 306.417969 42.550781 C 308.789062 44.496094 311.109375 46.5 313.382812 48.558594 C 315.65625 50.617188 317.878906 52.734375 320.046875 54.902344 C 322.214844 57.070312 324.332031 59.292969 326.390625 61.566406 C 328.453125 63.839844 330.453125 66.160156 332.402344 68.53125 C 334.347656 70.90625 336.234375 73.320312 338.0625 75.785156 C 339.890625 78.25 341.65625 80.757812 343.359375 83.308594 C 345.0625 85.859375 346.703125 88.449219 348.28125 91.082031 C 349.859375 93.710938 351.371094 96.382812 352.816406 99.085938 C 354.261719 101.792969 355.640625 104.53125 356.953125 107.304688 C 358.265625 110.078125 359.507812 112.882812 360.679688 115.714844 C 361.855469 118.550781 362.957031 121.410156 363.992188 124.300781 C 365.027344 127.1875 365.988281 130.101562 366.878906 133.035156 C 367.769531 135.972656 368.585938 138.925781 369.332031 141.902344 C 370.078125 144.878906 370.75 147.871094 371.347656 150.878906 C 371.945312 153.890625 372.472656 156.910156 372.921875 159.945312 C 373.371094 162.980469 373.746094 166.023438 374.046875 169.078125 C 374.347656 172.128906 374.574219 175.1875 374.722656 178.253906 C 374.875 181.316406 374.949219 184.382812 374.949219 187.449219 Z M 374.949219 187.449219 " fill-opacity="1" fill-rule="nonzero"/><path fill="#ffffff" d="M 99.023438 352.648438 C 124.773438 366.550781 154.25 374.523438 185.550781 375 L 190.148438 375 C 221.101562 374.625 250.101562 366.773438 275.699219 353.125 L 275.699219 21.875 C 249.5 7.851562 219.648438 0 187.875 0 C 155.726562 0 125.5 8.101562 99.023438 22.351562 C 99.023438 22.351562 99.023438 352.648438 99.023438 352.648438 Z M 99.023438 352.648438 " fill-opacity="1" fill-rule="nonzero"/><path fill="#da291c" d="M 224.125 219.574219 L 261.226562 189.351562 L 253.125 185.601562 C 251.925781 185 251.300781 183.675781 251.675781 182.324219 L 259.050781 159.851562 L 237.648438 164.574219 C 236.449219 164.824219 235.101562 164.199219 234.625 163 L 230.523438 153.25 L 214.199219 171 C 212.273438 173.050781 208.875 171.375 209.476562 168.574219 L 217.324219 127.125 L 204.273438 134.625 C 203.175781 135.226562 201.851562 134.875 201.25 133.773438 L 187.824219 107.800781 L 174.398438 133.773438 C 173.800781 134.875 172.476562 135.351562 171.375 134.625 L 158.324219 127.125 L 166.175781 168.574219 C 166.648438 171.351562 163.273438 173.050781 161.449219 171 L 145.199219 153.25 L 141.101562 163.050781 C 140.625 164.25 139.273438 164.875 138.074219 164.625 L 116.675781 159.898438 L 124.050781 182.375 C 124.523438 183.699219 123.800781 185.023438 122.601562 185.648438 L 114.5 189.398438 L 151.601562 219.625 C 152.449219 220.226562 152.699219 221.449219 152.324219 222.398438 L 147.601562 235.199219 L 181.824219 229 C 184 228.625 185.925781 230.324219 185.824219 232.5 L 184.125 267.175781 L 191.125 267.175781 L 189.425781 232.5 C 189.300781 230.324219 191.25 228.625 193.425781 229 L 227.625 235.175781 L 222.898438 222.375 C 223.023438 221.398438 223.273438 220.300781 224.125 219.574219 Z M 224.125 219.574219 " fill-opacity="1" fill-rule="nonzero"/></svg>