<svg xmlns="http://www.w3.org/2000/svg" xmlns:xlink="http://www.w3.org/1999/xlink" width="500" zoomAndPan="magnify" viewBox="0 0 375 374.999991" height="500" preserveAspectRatio="xMidYMid meet" version="1.0"><path fill="#ffffff" d="M 304.003906 226.367188 C 313.476562 205.957031 318.75 183.300781 318.75 159.375 C 318.75 71.386719 247.363281 0 159.375 0 C 71.386719 0 0 71.386719 0 159.375 C 0 247.363281 71.386719 318.75 159.375 318.75 C 183.300781 318.75 205.957031 313.476562 226.367188 304.003906 C 225.488281 299.707031 225 295.214844 225 290.625 C 225 288.28125 225.097656 285.9375 225.390625 283.59375 C 205.664062 294.042969 183.203125 300 159.375 300 C 81.738281 300 18.75 237.011719 18.75 159.375 C 18.75 81.738281 81.738281 18.75 159.375 18.75 C 237.011719 18.75 300 81.738281 300 159.375 C 300 183.203125 294.042969 205.664062 283.59375 225.390625 C 285.9375 225.097656 288.28125 225 290.625 225 C 295.214844 225 299.707031 225.488281 304.003906 226.367188 Z M 304.003906 226.367188 " fill-opacity="1" fill-rule="evenodd"/><path fill="#ffffff" d="M 290.625 375 C 244.042969 375 206.25 337.207031 206.25 290.625 C 206.25 244.042969 244.042969 206.25 290.625 206.25 C 337.207031 206.25 375 244.042969 375 290.625 C 375 337.207031 337.207031 375 290.625 375 Z M 290.625 356.25 C 326.855469 356.25 356.25 326.855469 356.25 290.625 C 356.25 254.394531 326.855469 225 290.625 225 C 254.394531 225 225 254.394531 225 290.625 C 225 326.855469 254.394531 356.25 290.625 356.25 Z M 290.625 356.25 " fill-opacity="1" fill-rule="evenodd"/><path fill="#ffffff" d="M 168.75 91.503906 C 188.476562 93.652344 198.828125 104.296875 198.828125 104.296875 L 190.429688 119.628906 C 190.429688 119.628906 178.417969 108.203125 161.621094 108.203125 C 147.65625 108.203125 137.792969 116.992188 137.792969 127.441406 C 137.792969 154.589844 201.464844 147.265625 201.464844 189.941406 C 201.464844 207.714844 189.355469 222.851562 168.75 226.171875 L 168.75 243.75 L 150 243.75 L 150 226.171875 C 128.222656 222.949219 116.210938 209.570312 116.210938 209.570312 L 126.660156 195.703125 C 126.660156 195.703125 140.625 209.765625 160.15625 209.765625 C 172.460938 209.765625 182.8125 202.929688 182.8125 190.429688 C 182.8125 162.011719 119.238281 168.164062 119.238281 127.734375 C 119.238281 110.644531 131.542969 96.582031 150 92.382812 L 150 75 L 168.75 75 Z M 168.75 91.503906 " fill-opacity="1" fill-rule="evenodd"/><path fill="#ffffff" d="M 264.0625 284.375 L 250.78125 297.65625 L 290.625 337.402344 L 330.371094 297.65625 L 317.089844 284.375 L 299.902344 301.5625 L 299.902344 243.75 L 281.152344 243.75 L 281.152344 301.5625 Z M 264.0625 284.375 " fill-opacity="1" fill-rule="evenodd"/></svg>