<svg xmlns="http://www.w3.org/2000/svg" xmlns:xlink="http://www.w3.org/1999/xlink" width="500" zoomAndPan="magnify" viewBox="0 0 375 374.999991" height="500" preserveAspectRatio="xMidYMid meet" version="1.0"><path fill="#ffffff" d="M 374.003906 186.003906 C 374.003906 289.246094 290.242188 373.003906 187 373.003906 C 83.761719 373.003906 0 289.246094 0 186.003906 C 0 82.765625 83.761719 -0.996094 187 -0.996094 C 290.242188 -0.996094 374.003906 82.765625 374.003906 186.003906 Z M 14.960938 186.003906 C 14.960938 280.984375 92.019531 358.046875 187 358.046875 C 281.980469 358.046875 359.042969 280.984375 359.042969 186.003906 C 359.042969 91.023438 281.980469 13.960938 187 13.960938 C 92.019531 13.960938 14.960938 91.023438 14.960938 186.003906 Z M 14.960938 186.003906 " fill-opacity="1" fill-rule="nonzero"/><path fill="#ffffff" d="M 98.019531 243.429688 L 261.957031 79.492188 C 264.917969 76.53125 269.59375 76.53125 272.554688 79.492188 L 304.265625 111.203125 C 307.226562 114.085938 307.226562 118.839844 304.265625 121.800781 L 140.328125 285.738281 C 139.394531 286.671875 138.304688 287.296875 137.054688 287.6875 L 92.878906 300.074219 C 87.265625 301.632812 82.125 296.492188 83.683594 290.878906 L 96.070312 246.703125 C 96.460938 245.453125 97.085938 244.363281 98.019531 243.429688 Z M 277.851562 127.097656 L 288.449219 116.5 L 267.257812 95.308594 L 256.660156 105.90625 Z M 246.0625 116.5 L 119.136719 243.429688 L 140.328125 264.621094 L 267.257812 137.617188 Z M 109.394531 254.882812 L 101.683594 281.996094 L 128.875 274.363281 Z M 109.394531 254.882812 " fill-opacity="1" fill-rule="evenodd"/></svg>