<svg xmlns="http://www.w3.org/2000/svg" xmlns:xlink="http://www.w3.org/1999/xlink" width="500" zoomAndPan="magnify" viewBox="0 0 375 374.999991" height="500" preserveAspectRatio="xMidYMid meet" version="1.0"><defs><clipPath id="39eeb8602b"><path d="M 27.015625 223.277344 L 347.792969 223.277344 L 347.792969 318.183594 L 27.015625 318.183594 Z M 27.015625 223.277344 " clip-rule="nonzero"/></clipPath><clipPath id="db0a431027"><path d="M 319.605469 250.34375 C 243.03125 285.464844 148.910156 295.039062 67.546875 264.710938 C 51.144531 258.328125 37.871094 247.246094 27.121094 233.566406 C 27.09375 266.589844 27.039062 282.101562 27.015625 318.183594 L 347.792969 318.183594 C 347.792969 288.410156 347.792969 249.144531 347.792969 223.277344 C 341.28125 235.007812 331.144531 245.097656 319.605469 250.34375 " clip-rule="nonzero"/></clipPath><clipPath id="3a9c30bd24"><path d="M 319.605469 250.34375 C 243.03125 285.464844 148.910156 295.039062 67.546875 264.710938 C 51.144531 258.328125 37.871094 247.246094 27.121094 233.566406 C 27.09375 266.589844 27.039062 282.101562 27.015625 318.183594 L 347.792969 318.183594 C 347.792969 288.410156 347.792969 249.144531 347.792969 223.277344 C 341.28125 235.007812 331.144531 245.097656 319.605469 250.34375 " clip-rule="nonzero"/></clipPath><linearGradient x1="-0.144124" gradientTransform="matrix(0, -67.821852, 324.031672, 0, 25.387562, 308.408961)" y1="0" x2="1.255226" gradientUnits="userSpaceOnUse" y2="0" id="c25826f028"><stop stop-opacity="1" stop-color="rgb(46.699524%, 61.599731%, 65.499878%)" offset="0"/><stop stop-opacity="1" stop-color="rgb(46.699524%, 61.599731%, 65.499878%)" offset="0.0625"/><stop stop-opacity="1" stop-color="rgb(46.699524%, 61.599731%, 65.499878%)" offset="0.09375"/><stop stop-opacity="1" stop-color="rgb(46.707153%, 61.599731%, 65.499878%)" offset="0.109375"/><stop stop-opacity="1" stop-color="rgb(46.910095%, 61.602783%, 65.50293%)" offset="0.117188"/><stop stop-opacity="1" stop-color="rgb(47.30072%, 61.801147%, 65.701294%)" offset="0.125"/><stop stop-opacity="1" stop-color="rgb(47.497559%, 62.191772%, 65.898132%)" offset="0.132813"/><stop stop-opacity="1" stop-color="rgb(47.640991%, 62.393188%, 66.088867%)" offset="0.140625"/><stop stop-opacity="1" stop-color="rgb(47.990417%, 62.557983%, 66.297913%)" offset="0.144531"/><stop stop-opacity="1" stop-color="rgb(48.199463%, 62.718201%, 66.319275%)" offset="0.148438"/><stop stop-opacity="1" stop-color="rgb(48.204041%, 62.908936%, 66.508484%)" offset="0.15625"/><stop stop-opacity="1" stop-color="rgb(48.403931%, 63.09967%, 66.699219%)" offset="0.164063"/><stop stop-opacity="1" stop-color="rgb(48.794556%, 63.294983%, 66.896057%)" offset="0.167969"/><stop stop-opacity="1" stop-color="rgb(48.991394%, 63.490295%, 67.09137%)" offset="0.171875"/><stop stop-opacity="1" stop-color="rgb(49.186707%, 63.494873%, 67.094421%)" offset="0.179688"/><stop stop-opacity="1" stop-color="rgb(49.389648%, 63.685608%, 67.098999%)" offset="0.1875"/><stop stop-opacity="1" stop-color="rgb(49.604797%, 64.085388%, 67.298889%)" offset="0.191406"/><stop stop-opacity="1" stop-color="rgb(49.812317%, 64.299011%, 67.498779%)" offset="0.195313"/><stop stop-opacity="1" stop-color="rgb(50.006104%, 64.300537%, 67.500305%)" offset="0.203125"/><stop stop-opacity="1" stop-color="rgb(50.19989%, 64.498901%, 67.648315%)" offset="0.210938"/><stop stop-opacity="1" stop-color="rgb(50.392151%, 64.889526%, 67.990112%)" offset="0.21875"/><stop stop-opacity="1" stop-color="rgb(50.592041%, 65.090942%, 68.191528%)" offset="0.226563"/><stop stop-opacity="1" stop-color="rgb(50.799561%, 65.107727%, 68.199158%)" offset="0.230469"/><stop stop-opacity="1" stop-color="rgb(50.999451%, 65.116882%, 68.199158%)" offset="0.234375"/><stop stop-opacity="1" stop-color="rgb(51.002502%, 65.312195%, 68.202209%)" offset="0.242188"/><stop stop-opacity="1" stop-color="rgb(51.202393%, 65.70282%, 68.4021%)" offset="0.25"/><stop stop-opacity="1" stop-color="rgb(51.593018%, 66.093445%, 68.792725%)" offset="0.257813"/><stop stop-opacity="1" stop-color="rgb(51.983643%, 66.293335%, 69.18335%)" offset="0.265625"/><stop stop-opacity="1" stop-color="rgb(52.197266%, 66.499329%, 69.387817%)" offset="0.269531"/><stop stop-opacity="1" stop-color="rgb(52.215576%, 66.699219%, 69.398499%)" offset="0.273438"/><stop stop-opacity="1" stop-color="rgb(52.357483%, 66.705322%, 69.404602%)" offset="0.28125"/><stop stop-opacity="1" stop-color="rgb(52.49939%, 66.906738%, 69.604492%)" offset="0.289063"/><stop stop-opacity="1" stop-color="rgb(52.696228%, 67.297363%, 69.799805%)" offset="0.296875"/><stop stop-opacity="1" stop-color="rgb(52.894592%, 67.495728%, 69.99054%)" offset="0.304688"/><stop stop-opacity="1" stop-color="rgb(53.085327%, 67.63916%, 70.19043%)" offset="0.3125"/><stop stop-opacity="1" stop-color="rgb(53.292847%, 67.796326%, 70.399475%)" offset="0.316406"/><stop stop-opacity="1" stop-color="rgb(53.314209%, 67.814636%, 70.599365%)" offset="0.320313"/><stop stop-opacity="1" stop-color="rgb(53.512573%, 68.013%, 70.605469%)" offset="0.324219"/><stop stop-opacity="1" stop-color="rgb(53.710938%, 68.211365%, 70.611572%)" offset="0.328125"/><stop stop-opacity="1" stop-color="rgb(54.101562%, 68.405151%, 70.805359%)" offset="0.332031"/><stop stop-opacity="1" stop-color="rgb(54.492188%, 68.598938%, 70.999146%)" offset="0.335938"/><stop stop-opacity="1" stop-color="rgb(54.495239%, 68.598938%, 70.999146%)" offset="0.34375"/><stop stop-opacity="1" stop-color="rgb(54.499817%, 68.788147%, 70.999146%)" offset="0.351562"/><stop stop-opacity="1" stop-color="rgb(54.508972%, 68.997192%, 71.199036%)" offset="0.355469"/><stop stop-opacity="1" stop-color="rgb(54.518127%, 69.018555%, 71.398926%)" offset="0.359375"/><stop stop-opacity="1" stop-color="rgb(54.71344%, 69.213867%, 71.403503%)" offset="0.367188"/><stop stop-opacity="1" stop-color="rgb(55.104065%, 69.604492%, 71.603394%)" offset="0.371094"/><stop stop-opacity="1" stop-color="rgb(55.299377%, 69.799805%, 71.800232%)" offset="0.375"/><stop stop-opacity="1" stop-color="rgb(55.49469%, 69.799805%, 71.995544%)" offset="0.382813"/><stop stop-opacity="1" stop-color="rgb(55.885315%, 69.99054%, 72.193909%)" offset="0.390625"/><stop stop-opacity="1" stop-color="rgb(56.100464%, 70.39032%, 72.207642%)" offset="0.394531"/><stop stop-opacity="1" stop-color="rgb(56.121826%, 70.599365%, 72.216797%)" offset="0.398438"/><stop stop-opacity="1" stop-color="rgb(56.317139%, 70.599365%, 72.357178%)" offset="0.40625"/><stop stop-opacity="1" stop-color="rgb(56.704712%, 70.600891%, 72.50061%)" offset="0.414063"/><stop stop-opacity="1" stop-color="rgb(56.898499%, 70.797729%, 72.698975%)" offset="0.417969"/><stop stop-opacity="1" stop-color="rgb(56.898499%, 70.994568%, 72.894287%)" offset="0.421875"/><stop stop-opacity="1" stop-color="rgb(57.090759%, 71.18988%, 73.0896%)" offset="0.429688"/><stop stop-opacity="1" stop-color="rgb(57.432556%, 71.580505%, 73.291016%)" offset="0.4375"/><stop stop-opacity="1" stop-color="rgb(57.597351%, 71.794128%, 73.306274%)" offset="0.453125"/><stop stop-opacity="1" stop-color="rgb(58.004761%, 72.154236%, 73.506165%)" offset="0.457031"/><stop stop-opacity="1" stop-color="rgb(58.395386%, 72.496033%, 73.699951%)" offset="0.460938"/><stop stop-opacity="1" stop-color="rgb(58.396912%, 72.691345%, 73.893738%)" offset="0.464844"/><stop stop-opacity="1" stop-color="rgb(58.399963%, 72.888184%, 74.087524%)" offset="0.46875"/><stop stop-opacity="1" stop-color="rgb(58.589172%, 72.892761%, 74.093628%)" offset="0.476562"/><stop stop-opacity="1" stop-color="rgb(58.798218%, 73.109436%, 74.099731%)" offset="0.480469"/><stop stop-opacity="1" stop-color="rgb(58.81958%, 73.320007%, 74.099731%)" offset="0.484375"/><stop stop-opacity="1" stop-color="rgb(59.014893%, 73.509216%, 74.104309%)" offset="0.492188"/><stop stop-opacity="1" stop-color="rgb(59.405518%, 73.699951%, 74.304199%)" offset="0.5"/><stop stop-opacity="1" stop-color="rgb(59.796143%, 73.89679%, 74.499512%)" offset="0.507813"/><stop stop-opacity="1" stop-color="rgb(59.994507%, 74.287415%, 74.690247%)" offset="0.515625"/><stop stop-opacity="1" stop-color="rgb(60.211182%, 74.502563%, 75.102234%)" offset="0.519531"/><stop stop-opacity="1" stop-color="rgb(60.423279%, 74.523926%, 75.323486%)" offset="0.523438"/><stop stop-opacity="1" stop-color="rgb(60.610962%, 74.719238%, 75.511169%)" offset="0.53125"/><stop stop-opacity="1" stop-color="rgb(60.801697%, 75.106812%, 75.698853%)" offset="0.539063"/><stop stop-opacity="1" stop-color="rgb(61.000061%, 75.299072%, 75.698853%)" offset="0.546875"/><stop stop-opacity="1" stop-color="rgb(61.390686%, 75.492859%, 75.698853%)" offset="0.554688"/><stop stop-opacity="1" stop-color="rgb(61.592102%, 75.692749%, 75.888062%)" offset="0.5625"/><stop stop-opacity="1" stop-color="rgb(61.808777%, 75.907898%, 76.097107%)" offset="0.566406"/><stop stop-opacity="1" stop-color="rgb(62.017822%, 76.116943%, 76.116943%)" offset="0.570313"/><stop stop-opacity="1" stop-color="rgb(62.211609%, 76.307678%, 76.312256%)" offset="0.578125"/><stop stop-opacity="1" stop-color="rgb(62.55188%, 76.499939%, 76.702881%)" offset="0.582031"/><stop stop-opacity="1" stop-color="rgb(62.698364%, 76.499939%, 76.899719%)" offset="0.585938"/><stop stop-opacity="1" stop-color="rgb(62.698364%, 76.693726%, 76.899719%)" offset="0.59375"/><stop stop-opacity="1" stop-color="rgb(62.889099%, 77.084351%, 76.899719%)" offset="0.597656"/><stop stop-opacity="1" stop-color="rgb(63.079834%, 77.281189%, 76.899719%)" offset="0.601563"/><stop stop-opacity="1" stop-color="rgb(63.09967%, 77.290344%, 76.9104%)" offset="0.609375"/><stop stop-opacity="1" stop-color="rgb(63.311768%, 77.450562%, 77.110291%)" offset="0.625"/><stop stop-opacity="1" stop-color="rgb(63.697815%, 77.798462%, 77.44751%)" offset="0.632813"/><stop stop-opacity="1" stop-color="rgb(64.08844%, 78.189087%, 77.597046%)" offset="0.640625"/><stop stop-opacity="1" stop-color="rgb(64.303589%, 78.404236%, 77.798462%)" offset="0.644531"/><stop stop-opacity="1" stop-color="rgb(64.324951%, 78.424072%, 77.999878%)" offset="0.648438"/><stop stop-opacity="1" stop-color="rgb(64.511108%, 78.611755%, 78.007507%)" offset="0.65625"/><stop stop-opacity="1" stop-color="rgb(64.701843%, 78.80249%, 78.207397%)" offset="0.664063"/><stop stop-opacity="1" stop-color="rgb(64.901733%, 79.000854%, 78.399658%)" offset="0.667969"/><stop stop-opacity="1" stop-color="rgb(65.097046%, 79.197693%, 78.399658%)" offset="0.671875"/><stop stop-opacity="1" stop-color="rgb(65.292358%, 79.393005%, 78.593445%)" offset="0.679688"/><stop stop-opacity="1" stop-color="rgb(65.493774%, 79.592896%, 78.793335%)" offset="0.6875"/><stop stop-opacity="1" stop-color="rgb(65.699768%, 79.798889%, 78.999329%)" offset="0.691406"/><stop stop-opacity="1" stop-color="rgb(65.899658%, 79.998779%, 79.199219%)" offset="0.695312"/><stop stop-opacity="1" stop-color="rgb(65.904236%, 80.003357%, 79.203796%)" offset="0.703125"/><stop stop-opacity="1" stop-color="rgb(66.105652%, 80.204773%, 79.403687%)" offset="0.710938"/><stop stop-opacity="1" stop-color="rgb(66.496277%, 80.595398%, 79.598999%)" offset="0.71875"/><stop stop-opacity="1" stop-color="rgb(66.694641%, 80.795288%, 79.789734%)" offset="0.726563"/><stop stop-opacity="1" stop-color="rgb(66.911316%, 81.010437%, 80.189514%)" offset="0.730469"/><stop stop-opacity="1" stop-color="rgb(67.123413%, 81.222534%, 80.39856%)" offset="0.734375"/><stop stop-opacity="1" stop-color="rgb(67.315674%, 81.410217%, 80.39856%)" offset="0.742188"/><stop stop-opacity="1" stop-color="rgb(67.654419%, 81.600952%, 80.39856%)" offset="0.75"/><stop stop-opacity="1" stop-color="rgb(67.799377%, 81.799316%, 80.39856%)" offset="0.757813"/><stop stop-opacity="1" stop-color="rgb(67.991638%, 82.189941%, 80.592346%)" offset="0.765625"/><stop stop-opacity="1" stop-color="rgb(68.391418%, 82.402039%, 80.805969%)" offset="0.769531"/><stop stop-opacity="1" stop-color="rgb(68.598938%, 82.418823%, 80.825806%)" offset="0.773438"/><stop stop-opacity="1" stop-color="rgb(68.608093%, 82.559204%, 81.011963%)" offset="0.78125"/><stop stop-opacity="1" stop-color="rgb(68.812561%, 82.702637%, 81.199646%)" offset="0.789063"/><stop stop-opacity="1" stop-color="rgb(69.203186%, 82.902527%, 81.199646%)" offset="0.796875"/><stop stop-opacity="1" stop-color="rgb(69.398499%, 83.293152%, 81.393433%)" offset="0.800781"/><stop stop-opacity="1" stop-color="rgb(69.398499%, 83.48999%, 81.588745%)" offset="0.804688"/><stop stop-opacity="1" stop-color="rgb(69.589233%, 83.494568%, 81.593323%)" offset="0.8125"/><stop stop-opacity="1" stop-color="rgb(69.888306%, 83.499146%, 81.599426%)" offset="0.84375"/><stop stop-opacity="1" stop-color="rgb(70.098877%, 83.499146%, 81.599426%)" offset="0.875"/><stop stop-opacity="1" stop-color="rgb(70.199585%, 83.598328%, 81.599426%)" offset="0.9375"/><stop stop-opacity="1" stop-color="rgb(70.199585%, 83.798218%, 81.599426%)" offset="1"/></linearGradient><clipPath id="b16c14cdc1"><path d="M 25.78125 90 L 349.015625 90 L 349.015625 319.675781 L 25.78125 319.675781 Z M 25.78125 90 " clip-rule="nonzero"/></clipPath><clipPath id="1a46b956eb"><path d="M 25.78125 295.257812 L 349.015625 295.257812 L 349.015625 375 L 25.78125 375 Z M 25.78125 295.257812 " clip-rule="nonzero"/></clipPath><clipPath id="b83b9cf9c8"><path d="M 37 294.445312 L 338 294.445312 L 338 375 L 37 375 Z M 37 294.445312 " clip-rule="nonzero"/></clipPath></defs><path fill="#31ab7f" d="M 312.175781 139.308594 L 277.945312 47.882812 L 93.613281 47.882812 L 60.699219 139.308594 L 312.175781 139.308594 " fill-opacity="1" fill-rule="nonzero"/><path fill="#12905c" d="M 93.613281 46.660156 C 93.101562 46.660156 92.640625 46.980469 92.464844 47.46875 L 59.550781 138.898438 C 59.417969 139.273438 59.472656 139.6875 59.699219 140.011719 C 59.929688 140.335938 60.304688 140.53125 60.699219 140.53125 L 312.175781 140.53125 C 312.574219 140.53125 312.949219 140.335938 313.179688 140.007812 C 313.40625 139.679688 313.460938 139.257812 313.320312 138.882812 L 279.085938 47.453125 C 278.90625 46.976562 278.453125 46.660156 277.945312 46.660156 Z M 277.097656 49.101562 C 277.671875 50.632812 309.234375 134.9375 310.414062 138.089844 C 306.96875 138.089844 65.835938 138.089844 62.4375 138.089844 C 63.558594 134.964844 93.910156 50.660156 94.46875 49.101562 C 96.160156 49.101562 275.429688 49.101562 277.097656 49.101562 " fill-opacity="1" fill-rule="nonzero"/><path fill="#67bea2" d="M 75.171875 118.300781 L 91.894531 68.886719 C 102.269531 68.253906 112.421875 61.527344 116.988281 52.617188 L 254.644531 52.617188 C 259.335938 61.527344 269.582031 68.253906 279.964844 68.886719 L 297.402344 118.300781 C 285.570312 118.945312 277.605469 125.667969 277.296875 134.582031 L 95.515625 134.582031 C 95.082031 125.667969 87.007812 118.945312 75.171875 118.300781 " fill-opacity="1" fill-rule="nonzero"/><path fill="#31ab7f" d="M 184.265625 117.640625 C 210.957031 117.640625 230.933594 106.695312 228.882812 93.207031 C 226.835938 79.707031 206.84375 68.769531 184.222656 68.769531 C 161.601562 68.769531 141.628906 79.707031 139.605469 93.207031 C 137.585938 106.695312 157.578125 117.640625 184.265625 117.640625 " fill-opacity="1" fill-rule="nonzero"/><path fill="#b3d6d0" d="M 304.257812 91.253906 L 70.664062 91.253906 C 61.625 102.703125 27.136719 163.675781 27.136719 170.535156 C 27.136719 177.125 27.136719 193.105469 27.136719 195.703125 C 27.136719 258.859375 27.046875 270.671875 27.015625 318.183594 L 347.792969 318.183594 C 347.792969 269.714844 347.792969 196.074219 347.792969 196.074219 C 347.792969 196.074219 347.792969 177.714844 347.792969 170.535156 C 347.792969 163.675781 313.300781 102.703125 304.257812 91.253906 " fill-opacity="1" fill-rule="nonzero"/><path fill="#535f61" d="M 79.488281 111.871094 L 60.238281 152.578125 L 319.207031 152.578125 L 300.0625 111.871094 L 79.488281 111.871094 " fill-opacity="1" fill-rule="nonzero"/><path fill="#3b4940" d="M 79.488281 110.648438 C 79.015625 110.648438 78.585938 110.921875 78.382812 111.347656 L 59.132812 152.054688 C 58.957031 152.429688 58.984375 152.875 59.207031 153.230469 C 59.429688 153.582031 59.820312 153.796875 60.238281 153.796875 L 319.207031 153.796875 C 319.625 153.796875 320.015625 153.582031 320.238281 153.230469 C 320.460938 152.875 320.488281 152.433594 320.308594 152.054688 L 301.167969 111.351562 C 300.964844 110.921875 300.535156 110.648438 300.0625 110.648438 Z M 299.289062 113.089844 C 299.898438 114.386719 315.808594 148.222656 317.285156 151.355469 C 313.523438 151.355469 65.933594 151.355469 62.164062 151.355469 C 63.648438 148.21875 79.652344 114.382812 80.261719 113.089844 C 81.789062 113.089844 297.757812 113.089844 299.289062 113.089844 " fill-opacity="1" fill-rule="nonzero"/><path fill="#384544" d="M 83.769531 116.792969 L 74.460938 135.683594 L 130.792969 135.683594 L 135.425781 116.792969 L 83.769531 116.792969 " fill-opacity="1" fill-rule="nonzero"/><path fill="#384544" d="M 172.039062 116.792969 L 140.132812 116.792969 L 136.742188 135.683594 L 172.039062 135.683594 L 172.039062 116.792969 " fill-opacity="1" fill-rule="nonzero"/><g clip-path="url(#39eeb8602b)"><g clip-path="url(#db0a431027)"><g clip-path="url(#3a9c30bd24)"><path fill="url(#c25826f028)" d="M 27.015625 318.183594 L 347.792969 318.183594 L 347.792969 223.277344 L 27.015625 223.277344 Z M 27.015625 318.183594 " fill-rule="nonzero"/></g></g></g><g clip-path="url(#b16c14cdc1)"><path fill="#6a938d" d="M 70.664062 90.03125 C 70.292969 90.03125 69.941406 90.203125 69.707031 90.496094 C 61.128906 101.359375 25.914062 163.078125 25.914062 170.535156 L 25.914062 195.703125 L 25.851562 272.828125 L 25.792969 318.183594 C 25.792969 318.507812 25.921875 318.820312 26.148438 319.046875 C 26.378906 319.277344 26.691406 319.40625 27.015625 319.40625 L 347.792969 319.40625 C 348.464844 319.40625 349.015625 318.859375 349.015625 318.183594 L 349.015625 170.535156 C 349.015625 163.078125 313.792969 101.359375 305.214844 90.496094 C 304.980469 90.203125 304.628906 90.03125 304.257812 90.03125 Z M 303.652344 92.472656 C 313.484375 105.316406 346.574219 164.25 346.574219 170.535156 C 346.574219 170.535156 346.574219 314.570312 346.574219 316.960938 C 344.160156 316.960938 30.652344 316.960938 28.238281 316.960938 C 28.238281 314.652344 28.292969 272.832031 28.292969 272.832031 L 28.355469 195.703125 L 28.355469 170.535156 C 28.355469 164.25 61.441406 105.316406 71.273438 92.472656 C 72.472656 92.472656 302.449219 92.472656 303.652344 92.472656 " fill-opacity="1" fill-rule="nonzero"/></g><path fill="#b3d6d0" d="M 27.03125 296.898438 C 27.015625 312.027344 27 330.5 27 357.824219 C 27 360.765625 59.96875 373.789062 59.96875 373.789062 C 59.96875 373.789062 138.160156 360.230469 186.398438 360.484375 C 235.726562 360.742188 314.019531 373.789062 314.019531 373.789062 C 314.019531 373.789062 347.792969 361.269531 347.792969 357.824219 C 347.792969 351.3125 347.792969 328.523438 347.792969 302.023438 L 27.03125 296.898438 " fill-opacity="1" fill-rule="nonzero"/><path fill="#82a9a5" d="M 311.039062 373.304688 C 312.964844 373.613281 314.019531 373.789062 314.019531 373.789062 C 314.019531 373.789062 347.792969 361.269531 347.792969 357.824219 C 347.792969 352.519531 347.792969 336.402344 347.792969 316.28125 C 336.488281 336 326.398438 356.976562 311.039062 373.304688 " fill-opacity="1" fill-rule="nonzero"/><path fill="#6a938d" d="M 343.183594 324.707031 C 343.183594 324.707031 344.914062 354.636719 343.183594 356.367188 C 341.453125 358.097656 315 369.933594 315 369.933594 C 315 369.933594 337.597656 357.695312 338.664062 352.90625 C 339.730469 348.121094 343.183594 324.707031 343.183594 324.707031 " fill-opacity="1" fill-rule="nonzero"/><path fill="#82a9a5" d="M 27.015625 317 C 27.007812 328.21875 27 341.425781 27 357.824219 C 27 360.765625 59.96875 373.789062 59.96875 373.789062 C 59.96875 373.789062 61.378906 373.542969 63.917969 373.125 C 48.15625 357.921875 38.125 336.5625 27.015625 317 " fill-opacity="1" fill-rule="nonzero"/><path fill="#6a938d" d="M 31.789062 326.878906 C 31.789062 326.878906 30.0625 356.808594 31.789062 358.539062 C 33.519531 360.265625 59.972656 372.105469 59.972656 372.105469 C 59.972656 372.105469 37.375 359.867188 36.308594 355.078125 C 35.246094 350.289062 31.789062 326.878906 31.789062 326.878906 " fill-opacity="1" fill-rule="nonzero"/><g clip-path="url(#1a46b956eb)"><path fill="#6a938d" d="M 26.179688 296.027344 C 25.945312 296.257812 25.8125 296.570312 25.8125 296.898438 L 25.78125 357.824219 C 25.78125 358.9375 25.78125 360.457031 42.992188 368.027344 C 51.164062 371.621094 59.4375 374.890625 59.523438 374.921875 C 59.730469 375.007812 59.957031 375.03125 60.179688 374.992188 C 60.957031 374.855469 138.8125 361.453125 186.390625 361.703125 C 235.058594 361.960938 313.039062 374.863281 313.820312 374.992188 C 314.03125 375.027344 314.246094 375.007812 314.445312 374.933594 C 314.53125 374.90625 323.011719 371.753906 331.382812 368.226562 C 349.015625 360.789062 349.015625 359.003906 349.015625 357.824219 L 349.015625 302.023438 C 349.015625 301.355469 348.476562 300.8125 347.8125 300.804688 L 27.050781 295.679688 C 26.726562 295.671875 26.410156 295.796875 26.179688 296.027344 Z M 28.253906 298.136719 C 30.703125 298.179688 344.199219 303.1875 346.574219 303.222656 C 346.574219 305.519531 346.574219 357.34375 346.574219 357.664062 C 345.3125 359.84375 329.09375 366.886719 313.902344 372.53125 C 308.402344 371.628906 233.683594 359.515625 186.40625 359.261719 C 140.191406 359.019531 65.6875 371.574219 60.101562 372.53125 C 45.402344 366.707031 29.667969 359.621094 28.222656 357.597656 C 28.222656 357.15625 28.253906 300.507812 28.253906 298.136719 " fill-opacity="1" fill-rule="nonzero"/></g><path fill="#3a4646" d="M 314.019531 192.082031 L 61.167969 192.082031 L 61.167969 354.632812 L 314.019531 354.632812 L 314.019531 192.082031 " fill-opacity="1" fill-rule="nonzero"/><path fill="#6a938d" d="M 61.167969 190.863281 C 60.492188 190.863281 59.949219 191.410156 59.949219 192.082031 L 59.949219 354.632812 C 59.949219 355.308594 60.492188 355.855469 61.167969 355.855469 L 314.019531 355.855469 C 314.699219 355.855469 315.242188 355.308594 315.242188 354.632812 L 315.242188 192.082031 C 315.242188 191.410156 314.699219 190.863281 314.019531 190.863281 Z M 312.800781 193.304688 C 312.800781 195.691406 312.800781 351.023438 312.800781 353.414062 C 310.398438 353.414062 64.792969 353.414062 62.386719 353.414062 C 62.386719 351.023438 62.386719 195.691406 62.386719 193.304688 C 64.792969 193.304688 310.398438 193.304688 312.800781 193.304688 " fill-opacity="1" fill-rule="nonzero"/><path fill="#2e3937" d="M 294.082031 213.632812 C 239.84375 192.878906 177.625 212.035156 115.40625 202.457031 C 54.785156 192.878906 67.546875 261.519531 67.546875 301.421875 C 65.234375 301.421875 63.136719 301.847656 61.167969 302.382812 L 61.167969 354.632812 L 314.019531 354.632812 L 314.019531 296.976562 C 292.625 277.679688 321.300781 222.707031 294.082031 213.632812 " fill-opacity="1" fill-rule="nonzero"/><path fill="#158450" d="M 310.335938 209.757812 L 276.972656 305.253906 L 97.320312 305.253906 L 65.242188 209.757812 L 310.335938 209.757812 " fill-opacity="1" fill-rule="nonzero"/><path fill="#196a3a" d="M 65.242188 208.539062 C 64.847656 208.539062 64.480469 208.726562 64.25 209.042969 C 64.019531 209.363281 63.957031 209.773438 64.085938 210.148438 L 96.164062 305.640625 C 96.328125 306.136719 96.796875 306.472656 97.320312 306.472656 L 276.972656 306.472656 C 277.492188 306.472656 277.953125 306.144531 278.125 305.65625 L 311.488281 210.160156 C 311.621094 209.789062 311.5625 209.375 311.332031 209.050781 C 311.101562 208.730469 310.734375 208.539062 310.335938 208.539062 Z M 308.617188 210.980469 C 307.53125 214.089844 276.660156 302.449219 276.105469 304.03125 C 274.398438 304.03125 99.925781 304.03125 98.195312 304.03125 C 97.65625 302.425781 67.972656 214.0625 66.9375 210.980469 C 70.261719 210.980469 305.25 210.980469 308.617188 210.980469 " fill-opacity="1" fill-rule="nonzero"/><path fill="#369674" d="M 79.347656 231.707031 L 95.648438 283.3125 C 105.757812 283.976562 115.652344 291 120.097656 300.308594 L 254.265625 300.308594 C 258.835938 291 268.824219 283.976562 278.941406 283.3125 L 295.9375 231.707031 C 284.40625 231.03125 276.644531 224.007812 276.34375 214.695312 L 99.171875 214.695312 C 98.75 224.007812 90.882812 231.03125 79.347656 231.707031 " fill-opacity="1" fill-rule="nonzero"/><path fill="#158450" d="M 185.675781 232.394531 C 211.6875 232.394531 231.148438 243.824219 229.15625 257.910156 C 227.164062 272.015625 207.675781 283.4375 185.628906 283.4375 C 163.585938 283.4375 144.117188 272.015625 142.148438 257.910156 C 140.175781 243.824219 159.664062 232.394531 185.675781 232.394531 " fill-opacity="1" fill-rule="nonzero"/><path fill="#12905c" d="M 310.335938 222.808594 L 276.972656 318.304688 L 97.320312 318.304688 L 65.242188 222.808594 L 310.335938 222.808594 " fill-opacity="1" fill-rule="nonzero"/><path fill="#196a3a" d="M 65.242188 221.589844 C 64.847656 221.589844 64.480469 221.78125 64.25 222.097656 C 64.019531 222.414062 63.957031 222.824219 64.085938 223.199219 L 96.164062 318.691406 C 96.328125 319.191406 96.796875 319.523438 97.320312 319.523438 L 276.972656 319.523438 C 277.492188 319.523438 277.953125 319.199219 278.125 318.707031 L 311.488281 223.214844 C 311.621094 222.839844 311.5625 222.425781 311.332031 222.105469 C 311.101562 221.78125 310.734375 221.589844 310.335938 221.589844 Z M 308.617188 224.03125 C 307.53125 227.140625 276.660156 315.503906 276.105469 317.082031 C 274.398438 317.082031 99.925781 317.082031 98.195312 317.082031 C 97.65625 315.476562 67.972656 227.113281 66.9375 224.03125 C 70.261719 224.03125 305.25 224.03125 308.617188 224.03125 " fill-opacity="1" fill-rule="nonzero"/><path fill="#429f80" d="M 79.347656 244.757812 L 95.648438 296.363281 C 105.757812 297.027344 115.652344 304.050781 120.097656 313.359375 L 254.265625 313.359375 C 258.835938 304.050781 268.824219 297.027344 278.941406 296.363281 L 295.9375 244.757812 C 284.40625 244.082031 276.644531 237.058594 276.34375 227.746094 L 99.171875 227.746094 C 98.75 237.058594 90.882812 244.082031 79.347656 244.757812 " fill-opacity="1" fill-rule="nonzero"/><path fill="#12905c" d="M 185.675781 245.445312 C 211.6875 245.445312 231.148438 256.878906 229.15625 270.964844 C 227.164062 285.066406 207.675781 296.488281 185.628906 296.488281 C 163.585938 296.488281 144.117188 285.066406 142.148438 270.964844 C 140.175781 256.878906 159.664062 245.445312 185.675781 245.445312 " fill-opacity="1" fill-rule="nonzero"/><path fill="#189b68" d="M 313.527344 240.84375 L 279.296875 332.269531 L 94.960938 332.269531 L 62.050781 240.84375 L 313.527344 240.84375 " fill-opacity="1" fill-rule="nonzero"/><path fill="#196a3a" d="M 62.050781 239.621094 C 61.652344 239.621094 61.277344 239.816406 61.050781 240.140625 C 60.824219 240.464844 60.765625 240.878906 60.902344 241.253906 L 93.816406 332.683594 C 93.992188 333.171875 94.449219 333.492188 94.960938 333.492188 L 279.296875 333.492188 C 279.804688 333.492188 280.257812 333.175781 280.441406 332.699219 L 314.667969 241.269531 C 314.808594 240.894531 314.757812 240.472656 314.53125 240.144531 C 314.300781 239.820312 313.925781 239.621094 313.527344 239.621094 Z M 311.769531 242.0625 C 310.585938 245.214844 279.023438 329.519531 278.449219 331.050781 C 276.78125 331.050781 97.511719 331.050781 95.820312 331.050781 C 95.261719 329.492188 64.910156 245.183594 63.785156 242.0625 C 67.1875 242.0625 308.320312 242.0625 311.769531 242.0625 " fill-opacity="1" fill-rule="nonzero"/><path fill="#4ea98c" d="M 76.523438 261.855469 L 93.25 311.261719 C 103.625 311.898438 113.777344 318.625 118.339844 327.535156 L 255.996094 327.535156 C 260.6875 318.625 270.933594 311.898438 281.3125 311.261719 L 298.753906 261.855469 C 286.925781 261.207031 278.957031 254.484375 278.648438 245.566406 L 96.867188 245.566406 C 96.433594 254.484375 88.359375 261.207031 76.523438 261.855469 " fill-opacity="1" fill-rule="nonzero"/><path fill="#189b68" d="M 185.621094 262.511719 C 212.308594 262.511719 232.28125 273.457031 230.234375 286.945312 C 228.191406 300.445312 208.195312 311.382812 185.574219 311.382812 C 162.953125 311.382812 142.980469 300.445312 140.957031 286.945312 C 138.9375 273.457031 158.933594 262.511719 185.621094 262.511719 " fill-opacity="1" fill-rule="nonzero"/><path fill="#31ab7f" d="M 313.527344 256.457031 L 279.296875 347.886719 L 94.960938 347.886719 L 62.050781 256.457031 L 313.527344 256.457031 " fill-opacity="1" fill-rule="nonzero"/><path fill="#196a3a" d="M 62.050781 255.234375 C 61.652344 255.234375 61.277344 255.429688 61.050781 255.753906 C 60.824219 256.078125 60.765625 256.492188 60.902344 256.867188 L 93.816406 348.300781 C 93.992188 348.785156 94.449219 349.109375 94.960938 349.109375 L 279.296875 349.109375 C 279.804688 349.109375 280.257812 348.789062 280.441406 348.316406 L 314.667969 256.886719 C 314.808594 256.507812 314.757812 256.085938 314.53125 255.757812 C 314.300781 255.433594 313.925781 255.234375 313.527344 255.234375 Z M 311.769531 257.675781 C 310.585938 260.828125 279.023438 345.136719 278.449219 346.667969 C 276.78125 346.667969 97.511719 346.667969 95.820312 346.667969 C 95.261719 345.109375 64.910156 260.800781 63.785156 257.675781 C 67.1875 257.675781 308.320312 257.675781 311.769531 257.675781 " fill-opacity="1" fill-rule="nonzero"/><path fill="#67bea2" d="M 76.523438 277.46875 L 93.25 326.878906 C 103.625 327.515625 113.777344 334.242188 118.339844 343.152344 L 255.996094 343.152344 C 260.6875 334.242188 270.933594 327.515625 281.3125 326.878906 L 298.753906 277.46875 C 286.925781 276.820312 278.957031 270.101562 278.648438 261.183594 L 96.867188 261.183594 C 96.433594 270.101562 88.359375 276.820312 76.523438 277.46875 " fill-opacity="1" fill-rule="nonzero"/><path fill="#31ab7f" d="M 185.621094 278.128906 C 212.308594 278.128906 232.28125 289.074219 230.234375 302.5625 C 228.191406 316.0625 208.195312 327 185.574219 327 C 162.953125 327 142.980469 316.0625 140.957031 302.5625 C 138.9375 289.074219 158.933594 278.128906 185.621094 278.128906 " fill-opacity="1" fill-rule="nonzero"/><path fill="#bcc4d1" d="M 275.886719 123.753906 C 275.886719 125.257812 271.578125 126.480469 266.257812 126.480469 C 260.941406 126.480469 256.632812 125.257812 256.632812 123.753906 C 256.632812 122.246094 260.941406 121.027344 266.257812 121.027344 C 271.578125 121.027344 275.886719 122.246094 275.886719 123.753906 " fill-opacity="1" fill-rule="nonzero"/><path fill="#bcc4d1" d="M 299.324219 123.753906 C 299.324219 125.257812 295.015625 126.480469 289.691406 126.480469 C 284.375 126.480469 280.066406 125.257812 280.066406 123.753906 C 280.066406 122.246094 284.375 121.027344 289.691406 121.027344 C 295.015625 121.027344 299.324219 122.246094 299.324219 123.753906 " fill-opacity="1" fill-rule="nonzero"/><path fill="#bcc4d1" d="M 279.078125 136.921875 C 279.078125 138.425781 274.769531 139.648438 269.449219 139.648438 C 264.132812 139.648438 259.824219 138.425781 259.824219 136.921875 C 259.824219 135.414062 264.132812 134.195312 269.449219 134.195312 C 274.769531 134.195312 279.078125 135.414062 279.078125 136.921875 " fill-opacity="1" fill-rule="nonzero"/><path fill="#bcc4d1" d="M 302.511719 136.921875 C 302.511719 138.425781 298.203125 139.648438 292.886719 139.648438 C 287.570312 139.648438 283.257812 138.425781 283.257812 136.921875 C 283.257812 135.414062 287.570312 134.195312 292.886719 134.195312 C 298.203125 134.195312 302.511719 135.414062 302.511719 136.921875 " fill-opacity="1" fill-rule="nonzero"/><path fill="#b2b7be" d="M 269.050781 208.589844 C 276.089844 224.378906 273.953125 242.304688 273.433594 259.09375 C 273.421875 259.496094 274.003906 259.554688 274.054688 259.15625 C 276.121094 242.085938 277.65625 224.136719 269.660156 208.300781 C 269.460938 207.910156 268.875 208.191406 269.050781 208.589844 " fill-opacity="1" fill-rule="nonzero"/><path fill="#b2b7be" d="M 265.304688 238.523438 C 266 244.6875 265.984375 250.894531 265.640625 257.078125 C 265.609375 257.765625 266.5625 257.832031 266.683594 257.179688 C 267.890625 250.871094 267.863281 244.570312 267.023438 238.222656 C 266.875 237.101562 265.179688 237.414062 265.304688 238.523438 " fill-opacity="1" fill-rule="nonzero"/><path fill="#b2b7be" d="M 130.238281 204.1875 C 125.703125 219.546875 122.640625 235.457031 127.003906 251.210938 C 127.132812 251.664062 127.828125 251.558594 127.742188 251.078125 C 124.910156 235.195312 127.324219 220.070312 131.6875 204.722656 C 131.957031 203.769531 130.519531 203.226562 130.238281 204.1875 " fill-opacity="1" fill-rule="nonzero"/><path fill="#b2b7be" d="M 117.433594 237.464844 C 117.472656 243.828125 117.933594 249.882812 119.691406 256.019531 C 119.875 256.648438 120.761719 256.507812 120.695312 255.84375 C 120.121094 249.835938 119.785156 243.714844 119.765625 237.683594 C 119.757812 236.183594 117.421875 235.957031 117.433594 237.464844 " fill-opacity="1" fill-rule="nonzero"/><path fill="#b2b7be" d="M 99.785156 267.703125 C 98.703125 260.660156 97.015625 253.980469 97.796875 246.785156 C 97.84375 246.347656 97.207031 246.304688 97.125 246.722656 C 95.789062 253.726562 96.285156 261.113281 97.53125 268.105469 C 97.789062 269.558594 100.011719 269.164062 99.785156 267.703125 " fill-opacity="1" fill-rule="nonzero"/><path fill="#b2b7be" d="M 210.429688 205.054688 C 210.296875 218.246094 210.5 231.382812 211.335938 244.550781 C 211.363281 244.914062 211.984375 244.886719 211.980469 244.523438 C 211.84375 231.414062 211.953125 218.296875 211.820312 205.183594 C 211.8125 204.296875 210.4375 204.148438 210.429688 205.054688 " fill-opacity="1" fill-rule="nonzero"/><path fill="#d2424a" d="M 91.003906 120.941406 C 89.835938 122.347656 89.339844 124.121094 88.65625 125.789062 C 87.890625 127.640625 87.097656 129.464844 86.433594 131.351562 C 86.097656 132.308594 87.554688 132.847656 87.90625 131.894531 C 88.605469 130.027344 89.375 128.183594 90.113281 126.328125 C 90.792969 124.601562 91.582031 122.902344 91.34375 121.015625 C 91.320312 120.84375 91.101562 120.828125 91.003906 120.941406 " fill-opacity="1" fill-rule="nonzero"/><path fill="#d2424a" d="M 151.222656 120.941406 C 150.050781 122.347656 149.558594 124.121094 148.871094 125.789062 C 148.109375 127.640625 147.3125 129.464844 146.648438 131.351562 C 146.3125 132.308594 147.769531 132.847656 148.121094 131.894531 C 148.820312 130.027344 149.589844 128.183594 150.324219 126.328125 C 151.007812 124.601562 151.796875 122.902344 151.558594 121.015625 C 151.535156 120.84375 151.316406 120.828125 151.222656 120.941406 " fill-opacity="1" fill-rule="nonzero"/><path fill="#d2424a" d="M 96.222656 121.511719 C 95.183594 123.296875 94.515625 125.355469 93.808594 127.296875 C 93.222656 128.890625 92.199219 131.066406 92.867188 132.742188 C 92.925781 132.894531 93.171875 132.957031 93.289062 132.832031 C 94.46875 131.578125 94.792969 129.484375 95.429688 127.894531 C 96.195312 125.984375 97.191406 123.988281 97.285156 121.902344 C 97.3125 121.359375 96.535156 120.972656 96.222656 121.511719 " fill-opacity="1" fill-rule="nonzero"/><path fill="#d2424a" d="M 102.152344 122.246094 C 101.65625 123.691406 101.382812 125.203125 100.859375 126.652344 C 100.324219 128.140625 99.710938 129.597656 99.179688 131.085938 C 98.757812 132.273438 100.550781 132.933594 101.003906 131.761719 C 101.632812 130.136719 102.285156 128.523438 102.859375 126.871094 C 103.316406 125.546875 104.039062 123.808594 103.675781 122.386719 C 103.492188 121.660156 102.421875 121.457031 102.152344 122.246094 " fill-opacity="1" fill-rule="nonzero"/><path fill="#d2424a" d="M 92.464844 132.75 C 93.597656 133.039062 94.675781 133.1875 95.839844 133.300781 C 97.203125 133.4375 98.605469 133.773438 99.921875 133.324219 C 100.765625 133.039062 100.589844 131.753906 99.839844 131.488281 C 98.710938 131.089844 97.441406 131.332031 96.257812 131.40625 C 94.859375 131.492188 93.648438 131.742188 92.457031 132.496094 L 92.464844 132.75 " fill-opacity="1" fill-rule="nonzero"/><path fill="#d2424a" d="M 95.933594 122.691406 C 96.882812 123.492188 98.402344 123.445312 99.578125 123.589844 C 100.679688 123.722656 102.25 123.953125 102.949219 122.910156 C 103.253906 122.453125 103.042969 121.902344 102.566406 121.683594 C 102.011719 121.433594 101.621094 121.5625 101.042969 121.652344 C 100.359375 121.75 99.636719 121.667969 98.953125 121.628906 C 97.84375 121.558594 96.671875 121.375 95.859375 122.277344 L 95.933594 122.691406 " fill-opacity="1" fill-rule="nonzero"/><path fill="#d2424a" d="M 98.78125 130.632812 C 98.996094 129.234375 98.726562 127.933594 98.394531 126.566406 C 98.09375 125.324219 98.164062 123.886719 97.382812 122.832031 C 97.109375 122.464844 96.433594 122.574219 96.304688 123.023438 C 95.925781 124.34375 96.667969 125.5625 97.058594 126.804688 C 97.484375 128.140625 97.929688 129.4375 98.617188 130.664062 L 98.78125 130.632812 " fill-opacity="1" fill-rule="nonzero"/><path fill="#d2424a" d="M 107.695312 121.511719 C 106.65625 123.296875 105.988281 125.355469 105.28125 127.296875 C 104.699219 128.890625 103.671875 131.066406 104.339844 132.742188 C 104.398438 132.894531 104.644531 132.957031 104.761719 132.832031 C 105.941406 131.578125 106.265625 129.484375 106.902344 127.894531 C 107.667969 125.984375 108.664062 123.988281 108.757812 121.902344 C 108.78125 121.359375 108.007812 120.972656 107.695312 121.511719 " fill-opacity="1" fill-rule="nonzero"/><path fill="#d2424a" d="M 113.625 122.246094 C 113.132812 123.691406 112.851562 125.203125 112.332031 126.652344 C 111.800781 128.140625 111.183594 129.597656 110.652344 131.085938 C 110.234375 132.273438 112.023438 132.933594 112.480469 131.761719 C 113.101562 130.136719 113.761719 128.523438 114.332031 126.871094 C 114.789062 125.546875 115.511719 123.808594 115.152344 122.386719 C 114.96875 121.660156 113.898438 121.457031 113.625 122.246094 " fill-opacity="1" fill-rule="nonzero"/><path fill="#d2424a" d="M 103.941406 132.75 C 105.074219 133.039062 106.148438 133.1875 107.316406 133.300781 C 108.675781 133.4375 110.082031 133.773438 111.394531 133.324219 C 112.242188 133.039062 112.0625 131.753906 111.3125 131.488281 C 110.183594 131.089844 108.914062 131.332031 107.734375 131.40625 C 106.332031 131.492188 105.117188 131.742188 103.929688 132.496094 L 103.941406 132.75 " fill-opacity="1" fill-rule="nonzero"/><path fill="#d2424a" d="M 107.40625 122.691406 C 108.355469 123.492188 109.875 123.445312 111.054688 123.589844 C 112.152344 123.722656 113.722656 123.953125 114.425781 122.910156 C 114.730469 122.453125 114.515625 121.902344 114.039062 121.683594 C 113.488281 121.433594 113.097656 121.5625 112.515625 121.652344 C 111.832031 121.75 111.109375 121.667969 110.425781 121.628906 C 109.316406 121.558594 108.144531 121.375 107.332031 122.277344 L 107.40625 122.691406 " fill-opacity="1" fill-rule="nonzero"/><path fill="#d2424a" d="M 110.253906 130.632812 C 110.472656 129.234375 110.199219 127.933594 109.871094 126.566406 C 109.570312 125.324219 109.640625 123.886719 108.859375 122.832031 C 108.585938 122.464844 107.90625 122.574219 107.78125 123.023438 C 107.398438 124.34375 108.140625 125.5625 108.535156 126.804688 C 108.960938 128.140625 109.402344 129.4375 110.089844 130.664062 L 110.253906 130.632812 " fill-opacity="1" fill-rule="nonzero"/><path fill="#d2424a" d="M 119.246094 121.511719 C 118.207031 123.296875 117.542969 125.355469 116.832031 127.296875 C 116.25 128.890625 115.226562 131.066406 115.890625 132.742188 C 115.949219 132.894531 116.195312 132.957031 116.316406 132.832031 C 117.496094 131.578125 117.816406 129.484375 118.453125 127.894531 C 119.21875 125.984375 120.214844 123.988281 120.3125 121.902344 C 120.335938 121.359375 119.5625 120.972656 119.246094 121.511719 " fill-opacity="1" fill-rule="nonzero"/><path fill="#d2424a" d="M 125.179688 122.246094 C 124.683594 123.691406 124.402344 125.203125 123.886719 126.652344 C 123.351562 128.140625 122.734375 129.597656 122.207031 131.085938 C 121.785156 132.273438 123.578125 132.933594 124.03125 131.761719 C 124.660156 130.136719 125.3125 128.523438 125.886719 126.871094 C 126.34375 125.546875 127.0625 123.808594 126.703125 122.386719 C 126.515625 121.660156 125.449219 121.457031 125.179688 122.246094 " fill-opacity="1" fill-rule="nonzero"/><path fill="#d2424a" d="M 115.492188 132.75 C 116.625 133.039062 117.703125 133.1875 118.867188 133.300781 C 120.230469 133.4375 121.632812 133.773438 122.945312 133.324219 C 123.792969 133.039062 123.617188 131.753906 122.863281 131.488281 C 121.738281 131.089844 120.46875 131.332031 119.285156 131.40625 C 117.882812 131.492188 116.671875 131.742188 115.480469 132.496094 L 115.492188 132.75 " fill-opacity="1" fill-rule="nonzero"/><path fill="#d2424a" d="M 118.957031 122.691406 C 119.910156 123.492188 121.425781 123.445312 122.605469 123.589844 C 123.707031 123.722656 125.273438 123.953125 125.972656 122.910156 C 126.28125 122.453125 126.070312 121.902344 125.59375 121.683594 C 125.039062 121.433594 124.648438 121.5625 124.070312 121.652344 C 123.386719 121.75 122.664062 121.667969 121.980469 121.628906 C 120.867188 121.558594 119.699219 121.375 118.886719 122.277344 L 118.957031 122.691406 " fill-opacity="1" fill-rule="nonzero"/><path fill="#d2424a" d="M 121.808594 130.632812 C 122.019531 129.234375 121.746094 127.933594 121.421875 126.566406 C 121.121094 125.324219 121.191406 123.886719 120.410156 122.832031 C 120.136719 122.464844 119.457031 122.574219 119.328125 123.023438 C 118.953125 124.34375 119.695312 125.5625 120.085938 126.804688 C 120.511719 128.140625 120.953125 129.4375 121.644531 130.664062 L 121.808594 130.632812 " fill-opacity="1" fill-rule="nonzero"/><path fill="#d2424a" d="M 162.984375 122.945312 C 162.25 124.53125 162.003906 126.441406 161.679688 128.152344 C 161.441406 129.421875 160.949219 131.09375 161.832031 132.179688 L 162.214844 132.207031 C 163.203125 131.148438 163.15625 129.273438 163.484375 127.898438 C 163.863281 126.332031 164.378906 124.660156 164.109375 123.046875 C 164.003906 122.441406 163.214844 122.441406 162.984375 122.945312 " fill-opacity="1" fill-rule="nonzero"/><path fill="#d2424a" d="M 167.703125 122.65625 C 167.433594 123.832031 167.40625 125.074219 167.183594 126.265625 C 166.941406 127.558594 166.617188 128.832031 166.375 130.125 C 166.140625 131.375 168.046875 131.503906 168.3125 130.308594 C 168.59375 129.027344 168.894531 127.746094 169.132812 126.449219 C 169.347656 125.265625 169.722656 123.734375 169.171875 122.59375 C 168.902344 122.027344 167.867188 121.949219 167.703125 122.65625 " fill-opacity="1" fill-rule="nonzero"/><path fill="#d2424a" d="M 161.558594 132.210938 C 162.566406 132.425781 163.480469 132.40625 164.507812 132.386719 C 165.445312 132.367188 166.617188 132.492188 167.421875 131.96875 C 168.066406 131.554688 168.277344 130.398438 167.339844 130.132812 C 166.253906 129.824219 165.113281 130.238281 164.046875 130.546875 C 163.003906 130.839844 162.191406 131.179688 161.460938 131.996094 L 161.558594 132.210938 " fill-opacity="1" fill-rule="nonzero"/><path fill="#d2424a" d="M 162.90625 123.171875 C 163.390625 123.753906 164.214844 123.679688 164.898438 123.707031 C 165.804688 123.742188 166.707031 123.898438 167.609375 123.96875 C 168.117188 124.015625 168.472656 123.722656 168.683594 123.296875 C 168.824219 123.019531 168.769531 122.757812 168.648438 122.484375 C 168.511719 122.179688 168.152344 121.894531 167.804688 121.894531 C 166.601562 121.902344 165.398438 121.824219 164.195312 121.921875 C 163.808594 121.953125 162.410156 122.566406 162.90625 123.171875 " fill-opacity="1" fill-rule="nonzero"/><path fill="#d2424a" d="M 166.246094 129.773438 C 166.335938 128.738281 166.046875 127.851562 165.6875 126.894531 C 165.296875 125.863281 165.148438 124.382812 164.222656 123.695312 C 163.914062 123.46875 163.367188 123.601562 163.261719 123.996094 C 162.972656 125.078125 163.65625 125.804688 164.125 126.730469 C 164.679688 127.839844 165.230469 128.914062 166.089844 129.820312 L 166.246094 129.773438 " fill-opacity="1" fill-rule="nonzero"/><path fill="#d2424a" d="M 154.988281 122.945312 C 154.257812 124.53125 154.011719 126.441406 153.6875 128.152344 C 153.449219 129.421875 152.957031 131.09375 153.835938 132.179688 L 154.222656 132.207031 C 155.210938 131.148438 155.160156 129.273438 155.496094 127.898438 C 155.875 126.332031 156.386719 124.660156 156.113281 123.046875 C 156.011719 122.441406 155.226562 122.441406 154.988281 122.945312 " fill-opacity="1" fill-rule="nonzero"/><path fill="#d2424a" d="M 159.710938 122.65625 C 159.4375 123.832031 159.414062 125.074219 159.191406 126.265625 C 158.949219 127.558594 158.621094 128.832031 158.382812 130.125 C 158.152344 131.375 160.054688 131.503906 160.316406 130.308594 C 160.601562 129.027344 160.898438 127.746094 161.136719 126.449219 C 161.355469 125.265625 161.730469 123.734375 161.183594 122.59375 C 160.910156 122.027344 159.875 121.949219 159.710938 122.65625 " fill-opacity="1" fill-rule="nonzero"/><path fill="#d2424a" d="M 153.566406 132.210938 C 154.578125 132.425781 155.488281 132.40625 156.515625 132.386719 C 157.453125 132.367188 158.628906 132.492188 159.433594 131.96875 C 160.074219 131.554688 160.285156 130.398438 159.347656 130.132812 C 158.261719 129.824219 157.121094 130.238281 156.054688 130.546875 C 155.011719 130.839844 154.199219 131.179688 153.46875 131.996094 L 153.566406 132.210938 " fill-opacity="1" fill-rule="nonzero"/><path fill="#d2424a" d="M 154.917969 123.171875 C 155.398438 123.753906 156.222656 123.679688 156.910156 123.707031 C 157.816406 123.742188 158.714844 123.898438 159.617188 123.96875 C 160.125 124.015625 160.476562 123.722656 160.691406 123.296875 C 160.832031 123.019531 160.777344 122.757812 160.660156 122.484375 C 160.519531 122.179688 160.164062 121.894531 159.8125 121.894531 C 158.609375 121.902344 157.40625 121.824219 156.203125 121.921875 C 155.816406 121.953125 154.417969 122.566406 154.917969 123.171875 " fill-opacity="1" fill-rule="nonzero"/><path fill="#d2424a" d="M 158.25 129.773438 C 158.34375 128.738281 158.054688 127.851562 157.695312 126.894531 C 157.304688 125.863281 157.152344 124.382812 156.230469 123.695312 C 155.921875 123.46875 155.375 123.601562 155.269531 123.996094 C 154.980469 125.078125 155.667969 125.804688 156.132812 126.730469 C 156.691406 127.839844 157.238281 128.914062 158.097656 129.820312 L 158.25 129.773438 " fill-opacity="1" fill-rule="nonzero"/><path fill="#dae5e8" d="M 332.367188 166.277344 C 332.367188 166.277344 69.675781 166.277344 61.699219 166.277344 C 53.722656 166.277344 35.109375 166.8125 37.238281 159.363281 C 37.238281 159.363281 31.390625 161.488281 31.390625 184.902344 C 31.390625 184.902344 33.78125 174.789062 41.492188 174.789062 C 49.203125 174.789062 319.605469 169.613281 332.367188 166.277344 " fill-opacity="1" fill-rule="nonzero"/><path fill="#dae5e8" d="M 317.613281 121.847656 C 317.613281 121.847656 304.449219 95.113281 302.058594 95.113281 C 299.664062 95.113281 122.984375 95.113281 122.984375 95.113281 C 122.984375 95.113281 287.722656 99.375 297.769531 100.828125 C 303.070312 101.59375 317.613281 121.847656 317.613281 121.847656 " fill-opacity="1" fill-rule="nonzero"/><path fill="#526366" d="M 187.269531 296.070312 L 38.261719 296.070312 L 38.902344 304.039062 L 60.152344 373.789062 L 314.382812 373.789062 L 335.640625 304.039062 L 336.277344 296.070312 L 187.269531 296.070312 " fill-opacity="1" fill-rule="nonzero"/><path fill="#3a4a4b" d="M 188.601562 296.070312 L 38.261719 296.070312 L 38.898438 304.039062 L 41.667969 304.417969 L 335.53125 304.417969 L 335.644531 304.039062 L 336.277344 296.070312 L 188.601562 296.070312 " fill-opacity="1" fill-rule="nonzero"/><path fill="#3a4a4b" d="M 277.730469 319.441406 L 265.761719 367.03125 L 256.394531 367.03125 L 263.769531 362.476562 L 277.730469 319.441406 " fill-opacity="1" fill-rule="nonzero"/><g clip-path="url(#b83b9cf9c8)"><path fill="#1f2e2d" d="M 187.269531 294.847656 L 38.261719 294.847656 C 37.917969 294.847656 37.59375 294.992188 37.363281 295.242188 C 37.132812 295.492188 37.015625 295.828125 37.046875 296.167969 L 37.683594 304.136719 C 37.691406 304.222656 37.710938 304.308594 37.734375 304.394531 L 58.988281 374.144531 C 59.144531 374.660156 59.617188 375.007812 60.152344 375.007812 L 314.382812 375.007812 C 314.921875 375.007812 315.394531 374.660156 315.554688 374.144531 L 336.804688 304.394531 C 336.832031 304.308594 336.851562 304.222656 336.855469 304.136719 L 337.496094 296.167969 C 337.523438 295.828125 337.40625 295.492188 337.175781 295.242188 C 336.941406 294.992188 336.617188 294.847656 336.277344 294.847656 Z M 187.269531 297.289062 C 187.269531 297.289062 332.363281 297.289062 334.957031 297.289062 C 334.8125 299.089844 334.453125 303.597656 334.433594 303.808594 C 334.359375 304.058594 313.996094 370.886719 313.480469 372.566406 C 311.699219 372.566406 62.839844 372.566406 61.058594 372.566406 C 60.546875 370.886719 40.179688 304.058594 40.105469 303.808594 C 40.089844 303.597656 39.726562 299.089844 39.582031 297.289062 C 42.179688 297.289062 187.269531 297.289062 187.269531 297.289062 " fill-opacity="1" fill-rule="nonzero"/></g><path fill="#3a4a4b" d="M 107.828125 319.441406 L 119.792969 367.03125 L 129.167969 367.03125 L 121.789062 362.476562 L 107.828125 319.441406 " fill-opacity="1" fill-rule="nonzero"/><path fill="#3a4a4b" d="M 330.242188 310.03125 L 313.222656 362.859375 C 313.222656 362.859375 313.492188 321.265625 310.566406 317.925781 C 307.644531 314.589844 78.183594 319.441406 70.738281 319.441406 C 63.292969 319.441406 61.167969 348.285156 61.167969 348.285156 L 46.277344 308.820312 L 330.242188 310.03125 " fill-opacity="1" fill-rule="nonzero"/><path fill="#231f20" d="M 271.503906 27.511719 C 271.503906 27.511719 264.828125 12.015625 250.585938 6.8125 C 236.335938 1.613281 224.292969 8.007812 228.246094 15.839844 C 232.179688 23.660156 248.664062 2.570312 271.503906 27.511719 " fill-opacity="1" fill-rule="nonzero"/><path fill="#231f20" d="M 103.289062 23.609375 C 103.289062 23.609375 110.972656 8.589844 125.53125 4.339844 C 140.089844 0.09375 151.683594 7.269531 147.222656 14.820312 C 142.78125 22.367188 127.726562 0.230469 103.289062 23.609375 " fill-opacity="1" fill-rule="nonzero"/><path fill="#dadbe0" d="M 264.191406 86.214844 C 261.007812 109.398438 245.8125 126.347656 230.238281 124.058594 C 214.671875 121.769531 204.628906 101.125 207.820312 77.914062 C 210.996094 54.726562 226.195312 37.769531 241.769531 40.066406 C 257.332031 42.351562 267.378906 63.015625 264.191406 86.214844 " fill-opacity="1" fill-rule="nonzero"/><path fill="#dbdde1" d="M 263.582031 86.125 C 260.445312 109 245.550781 125.730469 230.320312 123.492188 C 215.082031 121.253906 205.277344 100.898438 208.429688 78.003906 C 211.558594 55.128906 226.453125 38.386719 241.691406 40.632812 C 256.921875 42.871094 266.730469 63.242188 263.582031 86.125 " fill-opacity="1" fill-rule="nonzero"/><path fill="#dcdee3" d="M 262.976562 86.035156 C 259.878906 108.597656 245.292969 125.113281 230.394531 122.925781 C 215.496094 120.734375 205.929688 100.671875 209.035156 78.089844 C 212.121094 55.53125 226.710938 39.003906 241.613281 41.203125 C 256.507812 43.390625 266.082031 63.464844 262.976562 86.035156 " fill-opacity="1" fill-rule="nonzero"/><path fill="#dddfe3" d="M 262.371094 85.945312 C 259.316406 108.191406 245.039062 124.496094 230.476562 122.355469 C 215.910156 120.214844 206.578125 100.449219 209.640625 78.179688 C 212.6875 55.933594 226.96875 39.621094 241.535156 41.773438 C 256.09375 43.90625 265.429688 63.6875 262.371094 85.945312 " fill-opacity="1" fill-rule="nonzero"/><path fill="#dee0e4" d="M 261.761719 85.859375 C 258.75 107.789062 244.78125 123.878906 230.554688 121.789062 C 216.324219 119.699219 207.230469 100.226562 210.246094 78.269531 C 213.25 56.339844 227.226562 40.238281 241.460938 42.335938 C 255.679688 44.425781 264.777344 63.910156 261.761719 85.859375 " fill-opacity="1" fill-rule="nonzero"/><path fill="#dfe0e5" d="M 261.160156 85.765625 C 258.1875 107.386719 244.527344 123.261719 230.628906 121.21875 C 216.734375 119.175781 207.878906 100 210.855469 78.363281 C 213.8125 56.738281 227.480469 40.855469 241.378906 42.90625 C 255.269531 44.945312 264.128906 64.136719 261.160156 85.765625 " fill-opacity="1" fill-rule="nonzero"/><path fill="#e0e2e6" d="M 260.550781 85.675781 C 257.625 106.984375 244.265625 122.644531 230.710938 120.65625 C 217.148438 118.660156 208.527344 99.773438 211.460938 78.449219 C 214.378906 57.144531 227.738281 41.472656 241.304688 43.476562 C 254.855469 45.464844 263.480469 64.359375 260.550781 85.675781 " fill-opacity="1" fill-rule="nonzero"/><path fill="#e1e3e6" d="M 259.945312 85.585938 C 257.0625 106.582031 244.007812 122.027344 230.785156 120.085938 C 217.5625 118.144531 209.175781 99.550781 212.070312 78.539062 C 214.941406 57.546875 227.996094 42.089844 241.222656 44.042969 C 254.441406 45.984375 262.832031 64.585938 259.945312 85.585938 " fill-opacity="1" fill-rule="nonzero"/><path fill="#e2e3e7" d="M 259.339844 85.5 C 256.496094 106.175781 243.75 121.410156 230.867188 119.515625 C 217.976562 117.621094 209.828125 99.324219 212.675781 78.628906 C 215.507812 57.949219 228.253906 42.710938 241.144531 44.609375 C 254.027344 46.503906 262.179688 64.8125 259.339844 85.5 " fill-opacity="1" fill-rule="nonzero"/><path fill="#e2e4e8" d="M 258.730469 85.410156 C 255.9375 105.777344 243.492188 120.792969 230.941406 118.949219 C 218.386719 117.101562 210.480469 99.097656 213.28125 78.71875 C 216.070312 58.351562 228.511719 43.324219 241.070312 45.179688 C 253.617188 47.019531 261.527344 65.035156 258.730469 85.410156 " fill-opacity="1" fill-rule="nonzero"/><path fill="#e3e5e9" d="M 258.125 85.320312 C 255.371094 105.371094 243.234375 120.179688 231.023438 118.382812 C 218.804688 116.585938 211.128906 98.875 213.890625 78.804688 C 216.632812 58.753906 228.769531 43.941406 240.988281 45.746094 C 253.203125 47.542969 260.878906 65.257812 258.125 85.320312 " fill-opacity="1" fill-rule="nonzero"/><path fill="#e4e6e9" d="M 257.519531 85.230469 C 254.808594 104.96875 242.976562 119.558594 231.097656 117.816406 C 219.21875 116.066406 211.78125 98.652344 214.496094 78.894531 C 217.195312 59.160156 229.027344 44.558594 240.914062 46.316406 C 252.789062 48.058594 260.226562 65.480469 257.519531 85.230469 " fill-opacity="1" fill-rule="nonzero"/><path fill="#e5e7ea" d="M 256.910156 85.144531 C 254.242188 104.566406 242.722656 118.941406 231.175781 117.246094 C 219.628906 115.550781 212.429688 98.425781 215.101562 78.988281 C 217.757812 59.558594 229.285156 45.179688 240.832031 46.882812 C 252.375 48.578125 259.578125 65.707031 256.910156 85.144531 " fill-opacity="1" fill-rule="nonzero"/><path fill="#e6e7ea" d="M 256.304688 85.054688 C 253.679688 104.164062 242.464844 118.324219 231.253906 116.679688 C 220.042969 115.03125 213.078125 98.203125 215.710938 79.078125 C 218.324219 59.964844 229.539062 45.796875 240.757812 47.449219 C 251.964844 49.097656 258.929688 65.929688 256.304688 85.054688 " fill-opacity="1" fill-rule="nonzero"/><path fill="#e7e8ec" d="M 255.699219 84.964844 C 253.117188 103.761719 242.207031 117.707031 231.332031 116.113281 C 220.457031 114.511719 213.726562 97.976562 216.316406 79.164062 C 218.886719 60.367188 229.796875 46.414062 240.679688 48.019531 C 251.550781 49.613281 258.277344 66.15625 255.699219 84.964844 " fill-opacity="1" fill-rule="nonzero"/><path fill="#e9eaed" d="M 255.089844 84.875 C 252.550781 103.355469 241.949219 117.089844 231.410156 115.542969 C 220.871094 113.996094 214.378906 97.75 216.921875 79.253906 C 219.453125 60.769531 230.054688 47.03125 240.597656 48.585938 C 251.136719 50.132812 257.628906 66.378906 255.089844 84.875 " fill-opacity="1" fill-rule="nonzero"/><path fill="#eaebee" d="M 254.484375 84.785156 C 251.988281 102.953125 241.691406 116.472656 231.488281 114.972656 C 221.28125 113.476562 215.03125 97.527344 217.53125 79.34375 C 220.015625 61.171875 230.3125 47.648438 240.523438 49.152344 C 250.726562 50.65625 256.976562 66.605469 254.484375 84.785156 " fill-opacity="1" fill-rule="nonzero"/><path fill="#ebecef" d="M 253.875 84.695312 C 251.425781 102.550781 241.433594 115.855469 231.566406 114.40625 C 221.695312 112.957031 215.679688 97.304688 218.132812 79.433594 C 220.582031 61.574219 230.570312 48.265625 240.441406 49.722656 C 250.3125 51.171875 256.328125 66.832031 253.875 84.695312 " fill-opacity="1" fill-rule="nonzero"/><path fill="#ecedf0" d="M 253.269531 84.605469 C 250.859375 102.148438 241.175781 115.242188 231.644531 113.839844 C 222.109375 112.441406 216.328125 97.078125 218.742188 79.523438 C 221.144531 61.980469 230.828125 48.882812 240.367188 50.292969 C 249.898438 51.691406 255.679688 67.054688 253.269531 84.605469 " fill-opacity="1" fill-rule="nonzero"/><path fill="#edeef0" d="M 252.664062 84.515625 C 250.300781 101.746094 240.917969 114.625 231.722656 113.273438 C 222.523438 111.921875 216.976562 96.851562 219.347656 79.613281 C 221.707031 62.378906 231.085938 49.5 240.285156 50.859375 C 249.484375 52.207031 255.03125 67.277344 252.664062 84.515625 " fill-opacity="1" fill-rule="nonzero"/><path fill="#edeef0" d="M 252.054688 84.425781 C 249.738281 101.339844 240.660156 114.007812 231.800781 112.703125 C 222.933594 111.402344 217.628906 96.625 219.953125 79.703125 C 222.269531 62.78125 231.34375 50.121094 240.210938 51.425781 C 249.074219 52.730469 254.378906 67.5 252.054688 84.425781 " fill-opacity="1" fill-rule="nonzero"/><path fill="#eeeff1" d="M 251.449219 84.339844 C 249.171875 100.941406 240.40625 113.390625 231.875 112.136719 C 223.347656 110.886719 218.28125 96.402344 220.566406 79.792969 C 222.832031 63.1875 231.601562 50.738281 240.132812 51.996094 C 248.660156 53.25 253.726562 67.726562 251.449219 84.339844 " fill-opacity="1" fill-rule="nonzero"/><path fill="#eff0f2" d="M 250.84375 84.25 C 248.609375 100.535156 240.148438 112.773438 231.957031 111.570312 C 223.761719 110.363281 218.929688 96.179688 221.167969 79.882812 C 223.398438 63.589844 231.855469 51.355469 240.050781 52.5625 C 248.246094 53.765625 253.078125 67.953125 250.84375 84.25 " fill-opacity="1" fill-rule="nonzero"/><path fill="#f0f0f3" d="M 250.234375 84.160156 C 248.042969 100.132812 239.890625 112.15625 232.035156 111 C 224.175781 109.84375 219.578125 95.953125 221.777344 79.96875 C 223.960938 63.992188 232.113281 51.96875 239.976562 53.132812 C 247.832031 54.285156 252.429688 68.175781 250.234375 84.160156 " fill-opacity="1" fill-rule="nonzero"/><path fill="#f1f2f3" d="M 249.628906 84.070312 C 247.480469 99.730469 239.632812 111.535156 232.113281 110.433594 C 224.585938 109.328125 220.226562 95.730469 222.382812 80.0625 C 224.527344 64.394531 232.371094 52.589844 239.894531 53.695312 C 247.421875 54.804688 251.78125 68.402344 249.628906 84.070312 " fill-opacity="1" fill-rule="nonzero"/><path fill="#f2f3f5" d="M 249.023438 83.980469 C 246.917969 99.328125 239.375 110.921875 232.191406 109.863281 C 225.003906 108.808594 220.878906 95.503906 222.988281 80.152344 C 225.089844 64.796875 232.628906 53.207031 239.820312 54.265625 C 247.007812 55.320312 251.128906 68.625 249.023438 83.980469 " fill-opacity="1" fill-rule="nonzero"/><path fill="#f4f3f5" d="M 248.414062 83.894531 C 246.355469 98.925781 239.117188 110.304688 232.265625 109.296875 C 225.417969 108.289062 221.527344 95.277344 223.597656 80.242188 C 225.652344 65.203125 232.886719 53.824219 239.742188 54.835938 C 246.59375 55.84375 250.476562 68.847656 248.414062 83.894531 " fill-opacity="1" fill-rule="nonzero"/><path fill="#f5f5f6" d="M 247.808594 83.804688 C 245.789062 98.519531 238.859375 109.6875 232.347656 108.730469 C 225.828125 107.773438 222.179688 95.054688 224.203125 80.328125 C 226.21875 65.601562 233.144531 54.441406 239.664062 55.402344 C 246.179688 56.359375 249.828125 69.074219 247.808594 83.804688 " fill-opacity="1" fill-rule="nonzero"/><path fill="#f6f6f7" d="M 247.199219 83.714844 C 245.226562 98.117188 238.601562 109.070312 232.425781 108.160156 C 226.242188 107.253906 222.828125 94.828125 224.808594 80.417969 C 226.78125 66.007812 233.402344 55.058594 239.585938 55.96875 C 245.769531 56.878906 249.175781 69.296875 247.199219 83.714844 " fill-opacity="1" fill-rule="nonzero"/><path fill="#f6f6f8" d="M 246.59375 83.625 C 244.664062 97.714844 238.34375 108.453125 232.503906 107.59375 C 226.65625 106.734375 223.480469 94.605469 225.417969 80.507812 C 227.34375 66.410156 233.660156 55.675781 239.507812 56.539062 C 245.355469 57.398438 248.527344 69.523438 246.59375 83.625 " fill-opacity="1" fill-rule="nonzero"/><path fill="#f7f7f8" d="M 245.988281 83.535156 C 244.101562 97.3125 238.089844 107.835938 232.582031 107.023438 C 227.070312 106.21875 224.128906 94.382812 226.023438 80.597656 C 227.90625 66.8125 233.917969 56.292969 239.429688 57.105469 C 244.941406 57.917969 247.875 69.746094 245.988281 83.535156 " fill-opacity="1" fill-rule="nonzero"/><path fill="#f8f9fa" d="M 245.378906 83.449219 C 243.535156 96.910156 237.832031 107.21875 232.65625 106.457031 C 227.480469 105.699219 224.777344 94.15625 226.628906 80.6875 C 228.46875 67.214844 234.171875 56.910156 239.347656 57.675781 C 244.527344 58.4375 247.226562 69.972656 245.378906 83.449219 " fill-opacity="1" fill-rule="nonzero"/><path fill="#f9f9fa" d="M 244.773438 83.355469 C 242.972656 96.507812 237.574219 106.601562 232.738281 105.890625 C 227.894531 105.179688 225.429688 93.929688 227.234375 80.777344 C 229.035156 67.617188 234.429688 57.527344 239.273438 58.242188 C 244.117188 58.957031 246.578125 70.195312 244.773438 83.355469 " fill-opacity="1" fill-rule="nonzero"/><path fill="#fafafb" d="M 244.167969 83.265625 C 242.410156 96.105469 237.316406 105.984375 232.8125 105.320312 C 228.308594 104.664062 226.078125 93.703125 227.84375 80.867188 C 229.597656 68.023438 234.6875 58.148438 239.195312 58.808594 C 243.703125 59.472656 245.925781 70.417969 244.167969 83.265625 " fill-opacity="1" fill-rule="nonzero"/><path fill="#fbfbfb" d="M 243.558594 83.179688 C 241.847656 95.699219 237.058594 105.367188 232.894531 104.753906 C 228.722656 104.144531 226.730469 93.480469 228.449219 80.957031 C 230.164062 68.425781 234.945312 58.765625 239.117188 59.378906 C 243.289062 59.992188 245.277344 70.644531 243.558594 83.179688 " fill-opacity="1" fill-rule="nonzero"/><path fill="#fcfcfd" d="M 242.953125 83.089844 C 241.28125 95.296875 236.800781 104.753906 232.96875 104.1875 C 229.132812 103.625 227.378906 93.257812 229.058594 81.042969 C 230.726562 68.828125 235.207031 59.382812 239.039062 59.945312 C 242.875 60.511719 244.628906 70.867188 242.953125 83.089844 " fill-opacity="1" fill-rule="nonzero"/><path fill="#fdfdfd" d="M 242.347656 83 C 240.71875 94.898438 236.542969 104.136719 233.050781 103.617188 C 229.546875 103.105469 228.027344 93.03125 229.660156 81.132812 C 231.292969 69.230469 235.460938 60 238.957031 60.511719 C 242.464844 61.03125 243.976562 71.09375 242.347656 83 " fill-opacity="1" fill-rule="nonzero"/><path fill="#fefefe" d="M 241.738281 82.910156 C 240.152344 94.492188 236.285156 103.515625 233.125 103.050781 C 229.960938 102.585938 228.679688 92.808594 230.269531 81.226562 C 231.855469 69.632812 235.71875 60.613281 238.882812 61.082031 C 242.050781 61.550781 243.324219 71.316406 241.738281 82.910156 " fill-opacity="1" fill-rule="nonzero"/><path fill="#ffffff" d="M 241.136719 82.820312 C 239.589844 94.089844 236.027344 102.898438 233.203125 102.480469 C 230.375 102.070312 229.328125 92.582031 230.875 81.316406 C 232.417969 70.035156 235.976562 61.234375 238.804688 61.652344 C 241.636719 62.066406 242.675781 71.542969 241.136719 82.820312 " fill-opacity="1" fill-rule="nonzero"/><path fill="#d5d6db" d="M 221.996094 116.253906 C 210.484375 109.945312 209.378906 85.863281 208.632812 73.273438 C 208.3125 74.792969 208.03125 76.332031 207.820312 77.914062 C 204.628906 101.125 214.671875 121.769531 230.238281 124.058594 C 245.242188 126.269531 259.902344 110.609375 263.789062 88.707031 C 256.328125 105.796875 241.136719 126.328125 221.996094 116.253906 " fill-opacity="1" fill-rule="nonzero"/><path fill="#dadbe0" d="M 170.820312 78.300781 C 174.402344 102.648438 163.824219 124.839844 147.175781 127.871094 C 130.53125 130.90625 114.121094 113.617188 110.535156 89.273438 C 106.941406 64.929688 117.527344 42.71875 134.179688 39.703125 C 150.816406 36.667969 167.226562 53.957031 170.820312 78.300781 " fill-opacity="1" fill-rule="nonzero"/><path fill="#dbdde1" d="M 170.144531 78.742188 C 173.640625 102.71875 163.304688 124.550781 147.042969 127.503906 C 130.78125 130.457031 114.75 113.410156 111.25 89.429688 C 107.742188 65.460938 118.085938 43.617188 134.351562 40.671875 C 150.613281 37.71875 166.636719 54.769531 170.144531 78.742188 " fill-opacity="1" fill-rule="nonzero"/><path fill="#dcdee3" d="M 169.472656 79.183594 C 172.886719 102.789062 162.789062 124.261719 146.910156 127.132812 C 131.027344 130.007812 115.378906 113.199219 111.964844 89.59375 C 108.539062 65.992188 118.644531 44.507812 134.527344 41.644531 C 150.402344 38.765625 166.050781 55.585938 169.472656 79.183594 " fill-opacity="1" fill-rule="nonzero"/><path fill="#dddfe3" d="M 168.796875 79.625 C 172.125 102.863281 162.273438 123.96875 146.773438 126.765625 C 131.277344 129.5625 116.007812 112.988281 112.675781 89.753906 C 109.339844 66.523438 119.203125 45.40625 134.703125 42.617188 C 150.191406 39.820312 165.460938 56.394531 168.796875 79.625 " fill-opacity="1" fill-rule="nonzero"/><path fill="#dee0e4" d="M 168.125 80.070312 C 171.367188 102.933594 161.753906 123.679688 146.644531 126.394531 C 131.527344 129.113281 116.640625 112.78125 113.390625 89.914062 C 110.136719 67.054688 119.757812 46.296875 134.878906 43.589844 C 149.984375 40.867188 164.871094 57.210938 168.125 80.070312 " fill-opacity="1" fill-rule="nonzero"/><path fill="#dfe0e5" d="M 167.453125 80.515625 C 170.605469 103.007812 161.238281 123.386719 146.507812 126.027344 C 131.777344 128.667969 117.269531 112.570312 114.105469 90.074219 C 110.9375 67.582031 120.316406 47.195312 135.050781 44.5625 C 149.777344 41.917969 164.285156 58.019531 167.453125 80.515625 " fill-opacity="1" fill-rule="nonzero"/><path fill="#e0e2e6" d="M 166.777344 80.957031 C 169.851562 103.078125 160.71875 123.097656 146.371094 125.660156 C 132.023438 128.222656 117.898438 112.359375 114.820312 90.234375 C 111.734375 68.113281 120.875 48.089844 135.226562 45.53125 C 149.566406 42.96875 163.695312 58.835938 166.777344 80.957031 " fill-opacity="1" fill-rule="nonzero"/><path fill="#e1e3e6" d="M 166.105469 81.398438 C 169.089844 103.152344 160.199219 122.804688 146.238281 125.285156 C 132.273438 127.773438 118.527344 112.148438 115.535156 90.394531 C 112.535156 68.644531 121.433594 48.980469 135.402344 46.503906 C 149.359375 44.019531 163.109375 59.648438 166.105469 81.398438 " fill-opacity="1" fill-rule="nonzero"/><path fill="#e2e3e7" d="M 165.429688 81.839844 C 168.332031 103.222656 159.683594 122.515625 146.105469 124.921875 C 132.523438 127.328125 119.15625 111.941406 116.246094 90.558594 C 113.335938 69.175781 121.992188 49.878906 135.574219 47.476562 C 149.148438 45.070312 162.519531 60.460938 165.429688 81.839844 " fill-opacity="1" fill-rule="nonzero"/><path fill="#e2e4e8" d="M 164.757812 82.28125 C 167.574219 103.296875 159.164062 122.222656 145.972656 124.550781 C 132.769531 126.878906 119.785156 111.730469 116.960938 90.714844 C 114.136719 69.707031 122.546875 50.773438 135.75 48.449219 C 148.941406 46.117188 161.929688 61.273438 164.757812 82.28125 " fill-opacity="1" fill-rule="nonzero"/><path fill="#e3e5e9" d="M 164.082031 82.722656 C 166.816406 103.371094 158.648438 121.933594 145.835938 124.179688 C 133.019531 126.433594 120.414062 111.519531 117.679688 90.878906 C 114.933594 70.238281 123.109375 51.664062 135.925781 49.421875 C 148.734375 47.167969 161.339844 62.085938 164.082031 82.722656 " fill-opacity="1" fill-rule="nonzero"/><path fill="#e4e6e9" d="M 163.410156 83.167969 C 166.058594 103.4375 158.132812 121.640625 145.703125 123.8125 C 133.269531 125.984375 121.042969 111.3125 118.390625 91.035156 C 115.734375 70.769531 123.664062 52.5625 136.097656 50.394531 C 148.523438 48.21875 160.753906 62.902344 163.410156 83.167969 " fill-opacity="1" fill-rule="nonzero"/><path fill="#e5e7ea" d="M 162.738281 83.609375 C 165.296875 103.511719 157.613281 121.347656 145.570312 123.441406 C 133.515625 125.539062 121.671875 111.101562 119.105469 91.199219 C 116.53125 71.300781 124.222656 53.457031 136.273438 51.367188 C 148.316406 49.269531 160.164062 63.710938 162.738281 83.609375 " fill-opacity="1" fill-rule="nonzero"/><path fill="#e6e7ea" d="M 162.0625 84.050781 C 164.539062 103.585938 157.097656 121.058594 145.433594 123.074219 C 133.769531 125.09375 122.296875 110.890625 119.820312 91.359375 C 117.332031 71.832031 124.777344 54.351562 136.449219 52.339844 C 148.109375 50.316406 159.578125 64.523438 162.0625 84.050781 " fill-opacity="1" fill-rule="nonzero"/><path fill="#e7e8ec" d="M 161.390625 84.492188 C 163.777344 103.660156 156.578125 120.765625 145.300781 122.707031 C 134.015625 124.644531 122.925781 110.683594 120.535156 91.519531 C 118.128906 72.367188 125.339844 55.246094 136.621094 53.308594 C 147.898438 51.371094 158.988281 65.339844 161.390625 84.492188 " fill-opacity="1" fill-rule="nonzero"/><path fill="#e9eaed" d="M 160.714844 84.9375 C 163.023438 103.726562 156.0625 120.476562 145.164062 122.335938 C 134.265625 124.195312 123.554688 110.476562 121.246094 91.679688 C 118.929688 72.894531 125.894531 56.140625 136.796875 54.28125 C 147.6875 52.417969 158.398438 66.148438 160.714844 84.9375 " fill-opacity="1" fill-rule="nonzero"/><path fill="#eaebee" d="M 160.042969 85.382812 C 162.261719 103.800781 155.546875 120.183594 145.03125 121.96875 C 134.515625 123.75 124.183594 110.261719 121.960938 91.839844 C 119.726562 73.425781 126.453125 57.035156 136.972656 55.253906 C 147.480469 53.46875 157.8125 66.964844 160.042969 85.382812 " fill-opacity="1" fill-rule="nonzero"/><path fill="#ebecef" d="M 159.367188 85.824219 C 161.503906 103.875 155.027344 119.894531 144.898438 121.597656 C 134.761719 123.304688 124.8125 110.054688 122.675781 92 C 120.527344 73.957031 127.007812 57.929688 137.144531 56.226562 C 147.273438 54.519531 157.222656 67.773438 159.367188 85.824219 " fill-opacity="1" fill-rule="nonzero"/><path fill="#ecedf0" d="M 158.695312 86.265625 C 160.746094 103.945312 154.511719 119.601562 144.765625 121.230469 C 135.011719 122.859375 125.441406 109.84375 123.386719 92.164062 C 121.328125 74.484375 127.570312 58.824219 137.320312 57.199219 C 147.066406 55.570312 156.636719 68.589844 158.695312 86.265625 " fill-opacity="1" fill-rule="nonzero"/><path fill="#edeef0" d="M 158.019531 86.707031 C 159.988281 104.019531 153.992188 119.3125 144.628906 120.863281 C 135.261719 122.410156 126.074219 109.636719 124.105469 92.320312 C 122.125 75.019531 128.125 59.71875 137.496094 58.171875 C 146.855469 56.617188 156.042969 69.402344 158.019531 86.707031 " fill-opacity="1" fill-rule="nonzero"/><path fill="#edeef0" d="M 157.347656 87.148438 C 159.226562 104.089844 153.472656 119.019531 144.496094 120.488281 C 135.507812 121.960938 126.703125 109.425781 124.816406 92.484375 C 122.925781 75.550781 128.683594 60.613281 137.667969 59.144531 C 146.644531 57.667969 155.457031 70.214844 157.347656 87.148438 " fill-opacity="1" fill-rule="nonzero"/><path fill="#eeeff1" d="M 156.675781 87.59375 C 158.46875 104.160156 152.960938 118.730469 144.363281 120.121094 C 135.761719 121.515625 127.332031 109.214844 125.53125 92.640625 C 123.722656 76.082031 129.242188 61.507812 137.84375 60.117188 C 146.441406 58.71875 154.867188 71.027344 156.675781 87.59375 " fill-opacity="1" fill-rule="nonzero"/><path fill="#eff0f2" d="M 156 88.035156 C 157.710938 104.234375 152.441406 118.4375 144.226562 119.75 C 136.007812 121.066406 127.960938 109.007812 126.246094 92.800781 C 124.523438 76.613281 129.800781 62.40625 138.019531 61.085938 C 146.230469 59.769531 154.28125 71.839844 156 88.035156 " fill-opacity="1" fill-rule="nonzero"/><path fill="#f0f0f3" d="M 155.328125 88.476562 C 156.953125 104.308594 151.921875 118.144531 144.09375 119.382812 C 136.257812 120.621094 128.589844 108.796875 126.957031 92.964844 C 125.324219 77.144531 130.359375 63.296875 138.195312 62.058594 C 146.019531 60.816406 153.695312 72.652344 155.328125 88.476562 " fill-opacity="1" fill-rule="nonzero"/><path fill="#f1f2f3" d="M 154.652344 88.917969 C 156.195312 104.378906 151.40625 117.855469 143.957031 119.015625 C 136.507812 120.175781 129.21875 108.585938 127.675781 93.121094 C 126.125 77.675781 130.914062 64.191406 138.367188 63.03125 C 145.8125 61.867188 153.101562 73.464844 154.652344 88.917969 " fill-opacity="1" fill-rule="nonzero"/><path fill="#f2f3f5" d="M 153.980469 89.363281 C 155.433594 104.449219 150.886719 117.566406 143.824219 118.644531 C 136.753906 119.726562 129.847656 108.375 128.390625 93.285156 C 126.921875 78.207031 131.472656 65.089844 138.542969 64.003906 C 145.605469 62.917969 152.515625 74.277344 153.980469 89.363281 " fill-opacity="1" fill-rule="nonzero"/><path fill="#f4f3f5" d="M 153.304688 89.804688 C 154.679688 104.523438 150.375 117.273438 143.691406 118.277344 C 137.003906 119.28125 130.476562 108.167969 129.105469 93.445312 C 127.722656 78.738281 132.03125 65.980469 138.71875 64.976562 C 145.398438 63.96875 151.925781 75.089844 153.304688 89.804688 " fill-opacity="1" fill-rule="nonzero"/><path fill="#f5f5f6" d="M 152.632812 90.25 C 153.914062 104.597656 149.855469 116.984375 143.558594 117.90625 C 137.253906 118.832031 131.101562 107.957031 129.816406 93.605469 C 128.519531 79.265625 132.589844 66.878906 138.894531 65.945312 C 145.1875 65.019531 151.339844 75.902344 152.632812 90.25 " fill-opacity="1" fill-rule="nonzero"/><path fill="#f6f6f7" d="M 151.957031 90.691406 C 153.160156 104.667969 149.335938 116.695312 143.425781 117.539062 C 137.503906 118.386719 131.730469 107.746094 130.53125 93.765625 C 129.320312 79.796875 133.144531 67.769531 139.066406 66.917969 C 144.976562 66.066406 150.75 76.71875 151.957031 90.691406 " fill-opacity="1" fill-rule="nonzero"/><path fill="#f6f6f8" d="M 151.285156 91.132812 C 152.398438 104.738281 148.820312 116.402344 143.289062 117.171875 C 137.753906 117.941406 132.359375 107.539062 131.246094 93.925781 C 130.117188 80.328125 133.703125 68.667969 139.238281 67.890625 C 144.769531 67.121094 150.160156 77.527344 151.285156 91.132812 " fill-opacity="1" fill-rule="nonzero"/><path fill="#f7f7f8" d="M 150.613281 91.574219 C 151.640625 104.8125 148.300781 116.113281 143.152344 116.800781 C 138 117.496094 132.988281 107.328125 131.957031 94.085938 C 130.917969 80.859375 134.261719 69.5625 139.414062 68.863281 C 144.5625 68.167969 149.574219 78.34375 150.613281 91.574219 " fill-opacity="1" fill-rule="nonzero"/><path fill="#f8f9fa" d="M 149.9375 92.015625 C 150.882812 104.886719 147.785156 115.820312 143.019531 116.429688 C 138.25 117.046875 133.617188 107.117188 132.671875 94.246094 C 131.714844 81.390625 134.820312 70.453125 139.589844 69.835938 C 144.351562 69.21875 148.984375 79.15625 149.9375 92.015625 " fill-opacity="1" fill-rule="nonzero"/><path fill="#f9f9fa" d="M 149.265625 92.457031 C 150.125 104.957031 147.269531 115.527344 142.886719 116.0625 C 138.5 116.597656 134.246094 106.90625 133.386719 94.40625 C 132.515625 81.921875 135.375 71.351562 139.765625 70.808594 C 144.144531 70.265625 148.398438 79.96875 149.265625 92.457031 " fill-opacity="1" fill-rule="nonzero"/><path fill="#fafafb" d="M 148.589844 92.902344 C 149.367188 105.027344 146.75 115.238281 142.753906 115.691406 C 138.746094 116.152344 134.878906 106.699219 134.101562 94.570312 C 133.3125 82.453125 135.933594 72.246094 139.9375 71.78125 C 143.9375 71.320312 147.808594 80.78125 148.589844 92.902344 " fill-opacity="1" fill-rule="nonzero"/><path fill="#fbfbfb" d="M 147.917969 93.34375 C 148.605469 105.101562 146.234375 114.945312 142.621094 115.324219 C 139 115.703125 135.507812 106.488281 134.816406 94.726562 C 134.113281 82.984375 136.496094 73.140625 140.113281 72.753906 C 143.730469 72.367188 147.222656 81.59375 147.917969 93.34375 " fill-opacity="1" fill-rule="nonzero"/><path fill="#fcfcfd" d="M 147.242188 93.785156 C 147.847656 105.171875 145.714844 114.65625 142.484375 114.953125 C 139.246094 115.257812 136.136719 106.277344 135.527344 94.890625 C 134.910156 83.515625 137.050781 74.035156 140.289062 73.722656 C 143.519531 73.417969 146.628906 82.40625 147.242188 93.785156 " fill-opacity="1" fill-rule="nonzero"/><path fill="#fdfdfd" d="M 146.566406 94.230469 C 147.089844 105.246094 145.195312 114.363281 142.351562 114.585938 C 139.496094 114.8125 136.765625 106.066406 136.242188 95.050781 C 135.710938 84.046875 137.609375 74.929688 140.460938 74.695312 C 143.308594 74.46875 146.042969 83.21875 146.566406 94.230469 " fill-opacity="1" fill-rule="nonzero"/><path fill="#fefefe" d="M 145.894531 94.675781 C 146.332031 105.316406 144.679688 114.074219 142.214844 114.214844 C 139.746094 114.363281 137.394531 105.859375 136.957031 95.210938 C 136.511719 84.578125 138.164062 75.824219 140.636719 75.667969 C 143.101562 75.519531 145.453125 84.03125 145.894531 94.675781 " fill-opacity="1" fill-rule="nonzero"/><path fill="#ffffff" d="M 145.222656 95.117188 C 145.570312 105.390625 144.160156 113.78125 142.082031 113.847656 C 139.992188 113.917969 138.019531 105.648438 137.671875 95.371094 C 137.3125 85.109375 138.726562 76.71875 140.8125 76.640625 C 142.894531 76.566406 144.863281 84.84375 145.222656 95.117188 " fill-opacity="1" fill-rule="nonzero"/><path fill="#d5d6db" d="M 171.410156 91.222656 C 166.246094 105.992188 156.28125 124.125 143.113281 122.414062 C 117.28125 119.046875 111.328125 87.511719 112.167969 63.320312 C 109.863281 71.03125 109.164062 79.984375 110.535156 89.273438 C 114.121094 113.617188 130.53125 130.90625 147.175781 127.871094 C 160.800781 125.382812 170.359375 110.054688 171.410156 91.222656 " fill-opacity="1" fill-rule="nonzero"/><path fill="#2a372d" d="M 241.96875 38.628906 C 235.996094 37.753906 229.882812 39.515625 224.285156 43.71875 C 215.066406 50.648438 208.390625 63.355469 206.414062 77.714844 C 203.125 101.667969 213.722656 123.097656 230.039062 125.492188 C 236.011719 126.371094 242.121094 124.613281 247.714844 120.410156 C 256.933594 113.480469 263.617188 100.773438 265.585938 86.40625 C 268.878906 62.460938 258.285156 41.03125 241.96875 38.628906 Z M 246 117.800781 C 241.058594 121.511719 235.695312 123.066406 230.488281 122.292969 C 215.824219 120.140625 206.378906 100.339844 209.429688 78.15625 C 211.28125 64.640625 217.46875 52.746094 225.984375 46.34375 C 230.9375 42.625 236.304688 41.0625 241.523438 41.828125 C 256.191406 43.992188 265.632812 63.800781 262.566406 85.980469 C 260.710938 99.507812 254.523438 111.402344 246 117.800781 " fill-opacity="1" fill-rule="nonzero"/><path fill="#2a372d" d="M 154.125 43.894531 C 147.785156 38.984375 140.808594 37.054688 133.957031 38.308594 C 118.863281 41.054688 108.5 58.800781 108.5 79.878906 C 108.5 83.023438 108.726562 86.238281 109.207031 89.496094 C 111.40625 104.375 118.527344 117.425781 128.253906 124.40625 C 134.320312 128.757812 140.9375 130.441406 147.394531 129.265625 C 164.730469 126.105469 175.832031 103.140625 172.136719 78.078125 C 170.027344 63.773438 163.296875 50.992188 154.125 43.894531 Z M 129.902344 121.5 C 120.921875 115.054688 114.335938 102.894531 112.28125 88.964844 C 111.828125 85.890625 111.613281 82.847656 111.613281 79.882812 C 111.613281 60.464844 120.90625 44.1875 134.484375 41.714844 C 140.527344 40.621094 146.707031 42.351562 152.359375 46.726562 C 160.855469 53.320312 167.101562 65.238281 169.074219 78.601562 C 172.492188 101.800781 162.53125 122.996094 146.867188 125.847656 C 141.175781 126.882812 135.304688 125.378906 129.902344 121.5 " fill-opacity="1" fill-rule="nonzero"/><path fill="#231f20" d="M 160.9375 90.988281 C 162.101562 101.671875 157.675781 110.9375 151.050781 111.65625 C 144.414062 112.390625 138.078125 104.320312 136.917969 93.617188 C 135.738281 82.921875 140.171875 73.667969 146.796875 72.941406 C 153.4375 72.207031 159.769531 80.292969 160.9375 90.988281 " fill-opacity="1" fill-rule="nonzero"/><path fill="#ffffff" d="M 148.5625 86.589844 C 148.925781 89.929688 147.125 92.875 144.550781 93.152344 C 141.972656 93.433594 139.578125 90.953125 139.21875 87.621094 C 138.84375 84.265625 140.636719 81.328125 143.214844 81.03125 C 145.804688 80.769531 148.183594 83.246094 148.5625 86.589844 " fill-opacity="1" fill-rule="nonzero"/><path fill="#231f20" d="M 241.222656 90.640625 C 240.09375 101.324219 233.800781 109.445312 227.175781 108.738281 C 220.535156 108.042969 216.058594 98.816406 217.1875 88.109375 C 218.304688 77.40625 224.601562 69.304688 231.226562 69.996094 C 237.875 70.691406 242.347656 79.9375 241.222656 90.640625 " fill-opacity="1" fill-rule="nonzero"/><path fill="#ffffff" d="M 230.058594 83.710938 C 229.707031 87.054688 227.324219 89.550781 224.746094 89.277344 C 222.167969 89.003906 220.355469 86.074219 220.707031 82.734375 C 221.054688 79.382812 223.429688 76.890625 226.011719 77.148438 C 228.601562 77.4375 230.398438 80.363281 230.058594 83.710938 " fill-opacity="1" fill-rule="nonzero"/><path fill="#808b8f" d="M 162.519531 140.730469 C 162.519531 140.730469 187.382812 165.808594 219.941406 141.90625 C 219.941406 141.90625 196.09375 146.117188 162.519531 140.730469 " fill-opacity="1" fill-rule="nonzero"/><path fill="#aec4be" d="M 163.8125 144.503906 C 163.8125 144.503906 191.542969 164.058594 216.421875 149.257812 C 216.421875 149.257812 211.308594 174.867188 199.632812 180.851562 C 187.96875 186.832031 173.542969 171.8125 163.8125 144.503906 " fill-opacity="1" fill-rule="nonzero"/><path fill="#651d1c" d="M 164.933594 143.507812 C 164.933594 143.507812 190.683594 159.234375 218.375 144.207031 C 218.375 144.207031 212.273438 169.898438 199.296875 175.992188 C 186.339844 182.078125 175.160156 170.773438 164.933594 143.507812 " fill-opacity="1" fill-rule="nonzero"/><path fill="#ffffff" d="M 189.753906 157.550781 C 203.59375 158.921875 213.089844 150.207031 217.722656 144.535156 C 191.941406 158.117188 167.980469 145.253906 165.199219 143.664062 C 168.554688 148.46875 175.988281 156.175781 189.753906 157.550781 " fill-opacity="1" fill-rule="nonzero"/><path fill="#8a9097" d="M 164.382812 142.914062 C 164.113281 143.273438 164.136719 143.828125 164.421875 144.253906 C 167.761719 149.019531 175.476562 157.21875 189.800781 158.640625 C 204.144531 160.066406 213.953125 150.921875 218.507812 145.335938 C 218.820312 144.953125 218.804688 144.363281 218.480469 143.921875 C 218.15625 143.476562 217.605469 143.308594 217.195312 143.535156 C 191.773438 156.914062 168.179688 144.195312 165.566406 142.695312 C 165.136719 142.460938 164.648438 142.539062 164.382812 142.914062 Z M 189.710938 156.449219 C 179.425781 155.425781 172.816406 150.746094 168.886719 146.621094 C 176.585938 150.019531 193.777344 155.542969 212.761719 148.046875 C 207.671875 152.707031 199.941406 157.457031 189.710938 156.449219 " fill-opacity="1" fill-rule="nonzero"/><path fill="#f286a4" d="M 191.769531 164.332031 C 185.214844 158.542969 178.898438 163.746094 176.292969 166.503906 C 183.367188 176.585938 190.96875 179.898438 199.296875 175.992188 C 202.636719 174.421875 205.519531 171.542969 207.980469 168.152344 C 201.9375 157.183594 191.769531 164.332031 191.769531 164.332031 " fill-opacity="1" fill-rule="nonzero"/><path fill="#d1577c" d="M 175.542969 165.660156 C 175.207031 166.023438 175.195312 166.644531 175.527344 167.097656 C 182.988281 177.730469 191.15625 181.066406 199.800781 177.011719 C 202.957031 175.523438 205.992188 172.800781 208.792969 168.894531 C 209.023438 168.574219 209.039062 168.089844 208.8125 167.675781 C 207.03125 164.433594 204.726562 162.332031 201.976562 161.429688 C 197.4375 159.949219 193.128906 162.175781 191.691406 163.039062 C 184.660156 157.53125 178.09375 162.96875 175.542969 165.660156 Z M 191.214844 165.140625 C 191.578125 165.457031 192.054688 165.515625 192.402344 165.273438 C 192.453125 165.242188 197.101562 162.039062 201.640625 163.542969 C 203.609375 164.199219 205.246094 165.753906 206.628906 167.972656 C 204.140625 171.269531 201.523438 173.691406 198.804688 174.964844 C 191.273438 178.5 184.382812 175.722656 177.738281 166.726562 C 180.71875 163.8125 185.859375 160.417969 191.214844 165.140625 " fill-opacity="1" fill-rule="nonzero"/><path fill="#2f3c38" d="M 225.746094 138.605469 C 225.421875 138.054688 224.839844 137.824219 224.226562 138 C 223.269531 138.273438 218.808594 141.808594 217.3125 143.003906 C 191.964844 156.546875 168.011719 143.621094 165.691406 142.300781 L 165.640625 142.265625 C 165.050781 141.820312 159.839844 137.925781 158.710938 137.636719 C 157.984375 137.449219 157.527344 137.792969 157.332031 138.183594 C 157.242188 138.363281 157.199219 138.558594 157.199219 138.757812 C 157.199219 139.195312 157.40625 139.644531 157.78125 139.941406 L 158.203125 140.207031 C 159.160156 140.773438 161.597656 142.21875 164.675781 146.671875 C 171.285156 163.453125 178.167969 173.507812 185.683594 177.339844 C 190.25 179.675781 195.058594 179.6875 199.976562 177.382812 C 210.699219 172.339844 216.804688 154.917969 218.898438 147.785156 C 220.921875 143.25 223.914062 141.359375 225.078125 140.628906 L 225.605469 140.261719 C 226.019531 139.84375 226.078125 139.160156 225.746094 138.605469 Z M 186.695312 174.632812 C 180.152344 171.296875 173.730469 161.789062 167.597656 146.445312 C 174.53125 149.683594 194.542969 157.058594 216.082031 146.980469 C 213.84375 154.410156 208.109375 170.148438 198.628906 174.597656 C 194.414062 176.574219 190.511719 176.585938 186.695312 174.632812 " fill-opacity="1" fill-rule="nonzero"/><path fill="#26568e" d="M 199.761719 186.464844 C 199.761719 186.464844 189.796875 193.03125 185.378906 185.175781 C 185.378906 185.175781 190.988281 190.160156 199.761719 186.464844 " fill-opacity="1" fill-rule="nonzero"/><path fill="#2a372d" d="M 188.71875 109.4375 C 188.078125 109.675781 187.757812 110.371094 187.984375 111.011719 C 188.222656 111.640625 188.921875 111.964844 189.5625 111.742188 C 189.847656 111.628906 196.664062 109.214844 199.402344 114.046875 C 202.355469 119.253906 196.230469 122.820312 195.96875 122.96875 C 195.382812 123.304688 195.179688 124.046875 195.511719 124.640625 C 195.847656 125.230469 196.585938 125.4375 197.171875 125.113281 C 197.351562 125.011719 201.328125 122.722656 202.402344 118.828125 C 202.957031 116.847656 202.664062 114.832031 201.535156 112.839844 C 198.523438 107.527344 191.828125 108.292969 188.71875 109.4375 " fill-opacity="1" fill-rule="nonzero"/></svg>