<svg xmlns="http://www.w3.org/2000/svg" xmlns:xlink="http://www.w3.org/1999/xlink" width="500" zoomAndPan="magnify" viewBox="0 0 375 374.999991" height="500" preserveAspectRatio="xMidYMid meet" version="1.0"><defs><clipPath id="c3509da2b2"><path d="M 2.386719 3 L 361 3 L 361 362 L 2.386719 362 Z M 2.386719 3 " clip-rule="nonzero"/></clipPath></defs><path fill="#ffffff" d="M 334.867188 177.636719 C 334.867188 180.179688 334.804688 182.722656 334.679688 185.265625 C 334.554688 187.808594 334.367188 190.34375 334.117188 192.875 C 333.867188 195.40625 333.554688 197.933594 333.183594 200.449219 C 332.808594 202.964844 332.375 205.472656 331.875 207.96875 C 331.378906 210.464844 330.820312 212.945312 330.203125 215.414062 C 329.585938 217.882812 328.90625 220.335938 328.164062 222.769531 C 327.425781 225.203125 326.628906 227.621094 325.769531 230.015625 C 324.914062 232.410156 323.996094 234.785156 323.023438 237.136719 C 322.046875 239.484375 321.015625 241.8125 319.925781 244.113281 C 318.835938 246.414062 317.691406 248.683594 316.492188 250.929688 C 315.292969 253.171875 314.039062 255.386719 312.726562 257.566406 C 311.417969 259.75 310.058594 261.898438 308.640625 264.015625 C 307.226562 266.132812 305.761719 268.210938 304.246094 270.253906 C 302.726562 272.296875 301.160156 274.304688 299.546875 276.269531 C 297.929688 278.238281 296.265625 280.164062 294.558594 282.050781 C 292.847656 283.933594 291.089844 285.777344 289.289062 287.578125 C 287.488281 289.375 285.644531 291.128906 283.757812 292.839844 C 281.871094 294.546875 279.945312 296.207031 277.976562 297.824219 C 276.007812 299.4375 274 301.003906 271.953125 302.519531 C 269.910156 304.035156 267.828125 305.5 265.710938 306.910156 C 263.59375 308.324219 261.441406 309.6875 259.257812 310.996094 C 257.074219 312.304688 254.859375 313.558594 252.613281 314.757812 C 250.367188 315.957031 248.09375 317.097656 245.789062 318.1875 C 243.488281 319.273438 241.160156 320.304688 238.808594 321.28125 C 236.457031 322.253906 234.082031 323.167969 231.683594 324.027344 C 229.285156 324.882812 226.867188 325.679688 224.429688 326.421875 C 221.992188 327.160156 219.539062 327.835938 217.070312 328.457031 C 214.601562 329.074219 212.117188 329.632812 209.617188 330.128906 C 207.121094 330.625 204.613281 331.058594 202.09375 331.433594 C 199.574219 331.804688 197.046875 332.117188 194.511719 332.367188 C 191.980469 332.617188 189.441406 332.804688 186.894531 332.925781 C 184.351562 333.050781 181.808594 333.113281 179.261719 333.113281 C 176.714844 333.113281 174.167969 333.050781 171.625 332.925781 C 169.082031 332.804688 166.542969 332.617188 164.007812 332.367188 C 161.476562 332.117188 158.949219 331.804688 156.429688 331.433594 C 153.910156 331.058594 151.402344 330.625 148.902344 330.128906 C 146.40625 329.632812 143.921875 329.074219 141.453125 328.457031 C 138.980469 327.835938 136.527344 327.160156 134.089844 326.421875 C 131.65625 325.679688 129.238281 324.882812 126.839844 324.027344 C 124.441406 323.167969 122.066406 322.253906 119.714844 321.28125 C 117.359375 320.304688 115.035156 319.273438 112.730469 318.1875 C 110.429688 317.097656 108.15625 315.957031 105.910156 314.757812 C 103.664062 313.558594 101.449219 312.304688 99.265625 310.996094 C 97.078125 309.6875 94.929688 308.324219 92.8125 306.910156 C 90.695312 305.5 88.613281 304.035156 86.566406 302.519531 C 84.523438 301.003906 82.515625 299.4375 80.546875 297.824219 C 78.578125 296.207031 76.648438 294.546875 74.761719 292.839844 C 72.875 291.128906 71.03125 289.375 69.230469 287.578125 C 67.429688 285.777344 65.675781 283.933594 63.964844 282.050781 C 62.253906 280.164062 60.59375 278.238281 58.976562 276.269531 C 57.363281 274.304688 55.796875 272.296875 54.277344 270.253906 C 52.761719 268.210938 51.296875 266.132812 49.878906 264.015625 C 48.464844 261.898438 47.105469 259.75 45.792969 257.566406 C 44.484375 255.386719 43.230469 253.171875 42.03125 250.929688 C 40.828125 248.683594 39.683594 246.414062 38.597656 244.113281 C 37.507812 241.8125 36.476562 239.484375 35.5 237.136719 C 34.527344 234.785156 33.609375 232.410156 32.753906 230.015625 C 31.894531 227.621094 31.097656 225.203125 30.355469 222.769531 C 29.617188 220.335938 28.9375 217.882812 28.320312 215.414062 C 27.699219 212.945312 27.144531 210.464844 26.644531 207.96875 C 26.148438 205.472656 25.714844 202.964844 25.339844 200.449219 C 24.96875 197.933594 24.65625 195.40625 24.40625 192.875 C 24.15625 190.34375 23.96875 187.808594 23.84375 185.265625 C 23.71875 182.722656 23.65625 180.179688 23.65625 177.636719 C 23.65625 175.089844 23.71875 172.546875 23.84375 170.007812 C 23.96875 167.464844 24.15625 164.929688 24.40625 162.398438 C 24.65625 159.863281 24.96875 157.339844 25.339844 154.824219 C 25.714844 152.304688 26.148438 149.800781 26.644531 147.304688 C 27.144531 144.808594 27.699219 142.328125 28.320312 139.859375 C 28.9375 137.390625 29.617188 134.9375 30.355469 132.503906 C 31.097656 130.066406 31.894531 127.652344 32.753906 125.257812 C 33.609375 122.859375 34.527344 120.488281 35.5 118.136719 C 36.476562 115.785156 37.507812 113.460938 38.597656 111.160156 C 39.683594 108.859375 40.828125 106.589844 42.03125 104.34375 C 43.230469 102.101562 44.484375 99.886719 45.792969 97.703125 C 47.105469 95.523438 48.464844 93.371094 49.878906 91.257812 C 51.296875 89.140625 52.761719 87.0625 54.277344 85.019531 C 55.796875 82.972656 57.363281 80.96875 58.976562 79 C 60.59375 77.035156 62.253906 75.109375 63.964844 73.222656 C 65.675781 71.335938 67.429688 69.496094 69.230469 67.695312 C 71.03125 65.898438 72.875 64.144531 74.761719 62.433594 C 76.648438 60.726562 78.578125 59.0625 80.546875 57.449219 C 82.515625 55.835938 84.523438 54.269531 86.566406 52.753906 C 88.613281 51.238281 90.695312 49.773438 92.8125 48.359375 C 94.929688 46.945312 97.078125 45.585938 99.265625 44.277344 C 101.449219 42.96875 103.664062 41.714844 105.910156 40.515625 C 108.15625 39.316406 110.429688 38.171875 112.730469 37.085938 C 115.035156 35.996094 117.359375 34.964844 119.714844 33.992188 C 122.066406 33.019531 124.441406 32.101562 126.839844 31.246094 C 129.238281 30.390625 131.65625 29.589844 134.089844 28.851562 C 136.527344 28.113281 138.980469 27.433594 141.453125 26.816406 C 143.921875 26.199219 146.40625 25.640625 148.902344 25.144531 C 151.402344 24.648438 153.910156 24.214844 156.429688 23.839844 C 158.949219 23.46875 161.476562 23.15625 164.007812 22.90625 C 166.542969 22.65625 169.082031 22.46875 171.625 22.34375 C 174.167969 22.21875 176.714844 22.15625 179.261719 22.15625 C 181.808594 22.15625 184.351562 22.21875 186.894531 22.34375 C 189.441406 22.46875 191.980469 22.65625 194.511719 22.90625 C 197.046875 23.15625 199.574219 23.46875 202.09375 23.839844 C 204.613281 24.214844 207.121094 24.648438 209.617188 25.144531 C 212.117188 25.640625 214.601562 26.199219 217.070312 26.816406 C 219.539062 27.433594 221.992188 28.113281 224.429688 28.851562 C 226.867188 29.589844 229.285156 30.390625 231.683594 31.246094 C 234.082031 32.101562 236.457031 33.019531 238.808594 33.992188 C 241.160156 34.964844 243.488281 35.996094 245.789062 37.085938 C 248.09375 38.171875 250.367188 39.316406 252.613281 40.515625 C 254.859375 41.714844 257.074219 42.96875 259.257812 44.277344 C 261.441406 45.585938 263.59375 46.945312 265.710938 48.359375 C 267.828125 49.773438 269.910156 51.238281 271.953125 52.753906 C 274 54.269531 276.007812 55.835938 277.976562 57.449219 C 279.945312 59.0625 281.871094 60.726562 283.757812 62.433594 C 285.644531 64.144531 287.488281 65.898438 289.289062 67.695312 C 291.089844 69.496094 292.847656 71.335938 294.558594 73.222656 C 296.265625 75.109375 297.929688 77.035156 299.546875 79 C 301.160156 80.96875 302.726562 82.972656 304.246094 85.019531 C 305.761719 87.0625 307.226562 89.140625 308.640625 91.257812 C 310.058594 93.371094 311.417969 95.523438 312.726562 97.703125 C 314.039062 99.886719 315.292969 102.101562 316.492188 104.34375 C 317.691406 106.589844 318.835938 108.859375 319.925781 111.160156 C 321.015625 113.460938 322.046875 115.785156 323.023438 118.136719 C 323.996094 120.488281 324.914062 122.859375 325.769531 125.257812 C 326.628906 127.652344 327.425781 130.066406 328.164062 132.503906 C 328.90625 134.9375 329.585938 137.390625 330.203125 139.859375 C 330.820312 142.328125 331.378906 144.808594 331.875 147.304688 C 332.375 149.800781 332.808594 152.304688 333.183594 154.824219 C 333.554688 157.339844 333.867188 159.863281 334.117188 162.398438 C 334.367188 164.929688 334.554688 167.464844 334.679688 170.007812 C 334.804688 172.546875 334.867188 175.089844 334.867188 177.636719 Z M 334.867188 177.636719 " fill-opacity="1" fill-rule="nonzero"/><g clip-path="url(#c3509da2b2)"><path fill="#000000" d="M 315.867188 64.382812 C 313.640625 61.847656 311.347656 59.378906 308.980469 56.972656 C 306.617188 54.566406 304.183594 52.230469 301.6875 49.960938 C 299.191406 47.695312 296.632812 45.5 294.011719 43.375 C 291.386719 41.25 288.710938 39.203125 285.972656 37.234375 C 283.234375 35.261719 280.441406 33.367188 277.597656 31.554688 C 274.753906 29.738281 271.859375 28.007812 268.917969 26.355469 C 265.976562 24.707031 262.988281 23.140625 259.957031 21.660156 C 256.925781 20.179688 253.855469 18.785156 250.742188 17.476562 C 247.632812 16.167969 244.488281 14.949219 241.308594 13.816406 C 238.128906 12.6875 234.921875 11.648438 231.683594 10.699219 C 228.445312 9.75 225.183594 8.894531 221.894531 8.128906 C 218.609375 7.367188 215.304688 6.695312 211.976562 6.117188 C 208.652344 5.539062 205.316406 5.058594 201.964844 4.667969 C 198.609375 4.28125 195.25 3.984375 191.882812 3.789062 C 188.511719 3.589844 185.140625 3.484375 181.765625 3.476562 C 178.390625 3.46875 175.019531 3.554688 171.652344 3.738281 C 168.28125 3.921875 164.917969 4.199219 161.566406 4.570312 C 158.210938 4.945312 154.871094 5.410156 151.542969 5.972656 C 148.214844 6.535156 144.90625 7.1875 141.617188 7.9375 C 138.328125 8.683594 135.058594 9.527344 131.816406 10.460938 C 128.574219 11.390625 125.359375 12.417969 122.175781 13.53125 C 118.992188 14.644531 115.839844 15.851562 112.722656 17.144531 C 109.605469 18.4375 106.53125 19.816406 103.492188 21.28125 C 100.453125 22.75 97.457031 24.300781 94.507812 25.9375 C 91.554688 27.574219 88.65625 29.292969 85.800781 31.09375 C 82.949219 32.890625 80.148438 34.773438 77.402344 36.730469 C 74.652344 38.6875 71.964844 40.722656 69.332031 42.832031 C 66.703125 44.945312 64.132812 47.128906 61.625 49.382812 C 59.113281 51.640625 56.671875 53.964844 54.296875 56.359375 C 51.921875 58.753906 49.613281 61.210938 47.375 63.734375 C 45.140625 66.261719 42.976562 68.84375 40.882812 71.492188 C 38.792969 74.140625 36.777344 76.84375 34.839844 79.601562 C 30.792969 85.359375 27.085938 91.328125 23.726562 97.511719 C 17.4375 109.1875 12.515625 121.414062 8.960938 134.1875 C 5.40625 146.964844 3.308594 159.972656 2.667969 173.21875 C 2.527344 176.234375 2.433594 179.273438 2.433594 182.3125 C 2.433594 185.910156 2.539062 189.507812 2.757812 193.097656 C 2.972656 196.691406 3.296875 200.273438 3.730469 203.847656 C 4.164062 207.417969 4.703125 210.976562 5.351562 214.515625 C 6 218.054688 6.753906 221.574219 7.613281 225.070312 C 8.472656 228.5625 9.4375 232.027344 10.507812 235.464844 C 11.578125 238.902344 12.75 242.304688 14.023438 245.667969 C 15.300781 249.035156 16.675781 252.359375 18.148438 255.640625 C 19.625 258.925781 21.199219 262.160156 22.871094 265.347656 C 24.542969 268.535156 26.308594 271.671875 28.167969 274.753906 C 30.03125 277.832031 31.980469 280.855469 34.023438 283.820312 C 36.066406 286.785156 38.199219 289.683594 40.417969 292.519531 C 42.636719 295.351562 44.9375 298.121094 47.324219 300.816406 C 49.707031 303.511719 52.171875 306.132812 54.71875 308.679688 C 57.261719 311.230469 59.878906 313.699219 62.574219 316.085938 C 65.265625 318.476562 68.027344 320.785156 70.859375 323.007812 C 73.691406 325.230469 76.589844 327.367188 79.550781 329.414062 C 82.511719 331.460938 85.535156 333.417969 88.613281 335.285156 C 91.691406 337.152344 94.824219 338.925781 98.011719 340.601562 C 101.199219 342.277344 104.433594 343.859375 107.714844 345.339844 C 111 346.824219 114.320312 348.203125 117.6875 349.484375 C 121.054688 350.769531 124.453125 351.945312 127.890625 353.023438 C 131.328125 354.101562 134.792969 355.070312 138.289062 355.9375 C 141.785156 356.808594 145.304688 357.566406 148.847656 358.222656 C 152.386719 358.878906 155.945312 359.425781 159.519531 359.867188 C 163.09375 360.308594 166.679688 360.640625 170.273438 360.863281 C 173.867188 361.089844 177.46875 361.207031 181.070312 361.210938 C 184.671875 361.21875 188.269531 361.117188 191.863281 360.910156 C 195.460938 360.699219 199.046875 360.382812 202.625 359.957031 C 206.199219 359.53125 209.761719 358.996094 213.304688 358.355469 C 216.847656 357.714844 220.371094 356.96875 223.871094 356.117188 C 227.367188 355.261719 230.839844 354.304688 234.28125 353.242188 C 237.722656 352.179688 241.128906 351.015625 244.5 349.746094 C 247.867188 348.480469 251.199219 347.109375 254.488281 345.640625 C 257.773438 344.171875 261.015625 342.605469 264.210938 340.941406 C 267.402344 339.277344 270.542969 337.519531 273.628906 335.667969 C 276.71875 333.8125 279.746094 331.867188 282.714844 329.832031 C 285.6875 327.796875 288.59375 325.671875 291.433594 323.460938 C 294.273438 321.25 297.046875 318.953125 299.75 316.574219 C 302.453125 314.195312 305.082031 311.738281 307.636719 309.203125 C 310.191406 306.664062 312.664062 304.050781 315.0625 301.367188 C 317.460938 298.679688 319.773438 295.921875 322.003906 293.097656 C 324.234375 290.269531 326.375 287.378906 328.429688 284.425781 C 330.484375 281.46875 332.449219 278.457031 334.324219 275.382812 C 336.199219 272.308594 337.976562 269.179688 339.660156 266 C 341.34375 262.816406 342.933594 259.589844 344.421875 256.3125 C 345.910156 253.035156 347.300781 249.71875 348.589844 246.355469 C 349.878906 242.996094 351.0625 239.601562 352.148438 236.167969 C 353.230469 232.734375 354.210938 229.273438 355.085938 225.78125 C 355.960938 222.292969 356.726562 218.777344 357.390625 215.238281 C 358.050781 211.703125 358.605469 208.148438 359.054688 204.578125 C 359.5 201.007812 359.839844 197.425781 360.074219 193.832031 C 360.304688 190.242188 360.425781 186.648438 360.441406 183.046875 C 360.453125 179.449219 360.359375 175.855469 360.15625 172.261719 C 359.953125 168.667969 359.640625 165.082031 359.222656 161.507812 C 358.800781 157.933594 358.273438 154.375 357.640625 150.835938 C 357.003906 147.292969 356.265625 143.769531 355.417969 140.273438 C 354.570312 136.777344 353.617188 133.304688 352.558594 129.867188 C 351.503906 126.425781 350.34375 123.019531 349.082031 119.648438 C 347.816406 116.28125 346.453125 112.949219 344.992188 109.660156 C 343.527344 106.375 341.964844 103.132812 340.304688 99.9375 C 338.644531 96.746094 336.890625 93.601562 335.042969 90.515625 C 333.191406 87.425781 331.25 84.398438 329.21875 81.425781 C 327.1875 78.457031 325.066406 75.546875 322.859375 72.703125 C 320.652344 69.863281 318.359375 67.085938 315.984375 64.382812 Z M 121.652344 207 C 136.769531 217.617188 150.925781 223.976562 165.550781 226.335938 L 165.550781 197.976562 C 127.550781 189.257812 108.199219 176.304688 108.199219 147.054688 L 108.199219 146.585938 C 108.199219 118.765625 128.507812 99.429688 164.613281 96.835938 L 164.613281 83.390625 L 189.160156 83.390625 L 189.160156 97.535156 C 198.09375 98.46875 206.773438 100.496094 215.203125 103.609375 C 223.628906 106.726562 231.535156 110.835938 238.929688 115.9375 L 219.578125 147.523438 C 209.910156 140.890625 199.371094 136.214844 187.964844 133.496094 L 187.964844 160.847656 C 225.40625 169.570312 244.359375 183.015625 244.359375 212.285156 L 244.359375 212.753906 C 244.359375 241.511719 222.175781 259.1875 188.667969 262.273438 L 188.667969 285.371094 L 164.144531 285.371094 L 164.144531 261.640625 C 158.445312 261.09375 152.800781 260.1875 147.21875 258.917969 C 141.636719 257.648438 136.15625 256.027344 130.78125 254.054688 C 125.402344 252.082031 120.175781 249.773438 115.097656 247.128906 C 110.019531 244.488281 105.128906 241.53125 100.429688 238.261719 Z M 121.652344 207 " fill-opacity="1" fill-rule="nonzero"/></g><path fill="#000000" d="M 203.550781 215.675781 L 203.550781 215.207031 C 203.550781 208.824219 199.992188 205.296875 187.730469 201.765625 L 187.730469 227.695312 C 198.589844 226.523438 203.550781 222.503906 203.550781 215.675781 Z M 203.550781 215.675781 " fill-opacity="1" fill-rule="nonzero"/><path fill="#000000" d="M 165.785156 131.25 C 154.222656 132.207031 149.730469 136.929688 149.730469 143.058594 L 149.730469 143.523438 C 149.730469 149.648438 153.054688 153.179688 165.785156 156.734375 Z M 165.785156 131.25 " fill-opacity="1" fill-rule="nonzero"/></svg>