<svg xmlns="http://www.w3.org/2000/svg" xmlns:xlink="http://www.w3.org/1999/xlink" width="500" zoomAndPan="magnify" viewBox="0 0 375 374.999991" height="500" preserveAspectRatio="xMidYMid meet" version="1.0"><path fill="#1aaf5d" d="M 10.660156 250 L 364.339844 250 C 338.582031 322.835938 269.125 375 187.5 375 C 105.875 375 36.417969 322.835938 10.660156 250 Z M 10.660156 250 " fill-opacity="1" fill-rule="evenodd"/><path fill="#ffffff" d="M 10.660156 125 L 364.339844 125 C 371.257812 144.53125 375 165.566406 375 187.5 C 375 209.433594 371.257812 230.46875 364.339844 250 L 10.660156 250 C 3.742188 230.46875 0 209.433594 0 187.5 C 0 165.566406 3.742188 144.53125 10.660156 125 Z M 10.660156 125 " fill-opacity="1" fill-rule="evenodd"/><path fill="#e94b35" d="M 364.339844 125 L 10.660156 125 C 36.417969 52.164062 105.875 0 187.5 0 C 269.125 0 338.582031 52.164062 364.339844 125 Z M 364.339844 125 " fill-opacity="1" fill-rule="evenodd"/></svg>