<svg xmlns="http://www.w3.org/2000/svg" xmlns:xlink="http://www.w3.org/1999/xlink" width="500" zoomAndPan="magnify" viewBox="0 0 375 374.999991" height="500" preserveAspectRatio="xMidYMid meet" version="1.0"><path fill="#214391" d="M 187.488281 0 L 187.488281 374.980469 C 291.039062 374.980469 374.980469 291.039062 374.980469 187.492188 C 374.980469 83.9375 291.039062 0 187.488281 0 Z M 187.488281 0 " fill-opacity="1" fill-rule="nonzero"/><path fill="#214391" d="M 187.488281 0 C 83.941406 0 0 83.9375 0 187.492188 C 0 291.039062 83.941406 374.980469 187.488281 374.980469 C 291.039062 374.980469 291.039062 0 187.488281 0 Z M 187.488281 0 " fill-opacity="1" fill-rule="nonzero"/><path fill="#f8d12e" d="M 187.167969 32.515625 L 191.742188 46.589844 L 206.542969 46.589844 L 194.570312 55.289062 L 199.144531 69.363281 L 187.167969 60.660156 L 175.195312 69.363281 L 179.769531 55.289062 L 167.792969 46.589844 L 182.59375 46.589844 Z M 187.167969 32.515625 " fill-opacity="1" fill-rule="nonzero"/><path fill="#f8d12e" d="M 187.167969 298.199219 L 191.742188 312.28125 L 206.542969 312.28125 L 194.570312 320.976562 L 199.144531 335.050781 L 187.167969 326.355469 L 175.195312 335.050781 L 179.769531 320.976562 L 167.792969 312.28125 L 182.59375 312.28125 Z M 187.167969 298.199219 " fill-opacity="1" fill-rule="nonzero"/><path fill="#f8d12e" d="M 260.085938 56.0625 L 264.65625 70.140625 L 279.457031 70.140625 L 267.484375 78.84375 L 272.058594 92.917969 L 260.085938 84.214844 L 248.109375 92.917969 L 252.683594 78.84375 L 240.710938 70.140625 L 255.515625 70.140625 Z M 260.085938 56.0625 " fill-opacity="1" fill-rule="nonzero"/><path fill="#f8d12e" d="M 309.835938 105.148438 L 314.40625 119.222656 L 329.207031 119.222656 L 317.234375 127.921875 L 321.808594 141.996094 L 309.835938 133.296875 L 297.859375 141.996094 L 302.433594 127.921875 L 290.460938 119.222656 L 305.257812 119.222656 Z M 309.835938 105.148438 " fill-opacity="1" fill-rule="nonzero"/><path fill="#f8d12e" d="M 311.019531 229.160156 L 315.589844 243.238281 L 330.390625 243.238281 L 318.417969 251.933594 L 322.992188 266.007812 L 311.019531 257.3125 L 299.042969 266.007812 L 303.617188 251.933594 L 291.644531 243.238281 L 306.445312 243.238281 Z M 311.019531 229.160156 " fill-opacity="1" fill-rule="nonzero"/><path fill="#f8d12e" d="M 66.304688 105.148438 L 70.875 119.222656 L 85.671875 119.222656 L 73.703125 127.921875 L 78.273438 141.996094 L 66.304688 133.296875 L 54.328125 141.996094 L 58.902344 127.921875 L 46.929688 119.222656 L 61.734375 119.222656 Z M 66.304688 105.148438 " fill-opacity="1" fill-rule="nonzero"/><path fill="#f8d12e" d="M 321.367188 164.289062 L 325.9375 178.363281 L 340.738281 178.363281 L 328.765625 187.0625 L 333.335938 201.136719 L 321.367188 192.445312 L 309.390625 201.136719 L 313.96875 187.0625 L 301.988281 178.363281 L 316.789062 178.363281 Z M 321.367188 164.289062 " fill-opacity="1" fill-rule="nonzero"/><path fill="#f8d12e" d="M 54.996094 164.289062 L 59.566406 178.363281 L 74.363281 178.363281 L 62.390625 187.0625 L 66.96875 201.136719 L 54.996094 192.445312 L 43.019531 201.136719 L 47.59375 187.0625 L 35.621094 178.363281 L 50.421875 178.363281 Z M 54.996094 164.289062 " fill-opacity="1" fill-rule="nonzero"/><path fill="#f8d12e" d="M 64.699219 229.160156 L 69.269531 243.238281 L 84.070312 243.238281 L 72.097656 251.933594 L 76.667969 266.007812 L 64.699219 257.3125 L 52.726562 266.007812 L 57.296875 251.933594 L 45.324219 243.238281 L 60.125 243.238281 Z M 64.699219 229.160156 " fill-opacity="1" fill-rule="nonzero"/><path fill="#f8d12e" d="M 262.230469 280.335938 L 266.800781 294.410156 L 281.605469 294.410156 L 269.628906 303.113281 L 274.203125 317.1875 L 262.230469 308.488281 L 250.253906 317.1875 L 254.832031 303.113281 L 242.855469 294.410156 L 257.660156 294.410156 Z M 262.230469 280.335938 " fill-opacity="1" fill-rule="nonzero"/><path fill="#f8d12e" d="M 116.613281 56.0625 L 121.183594 70.140625 L 135.984375 70.140625 L 124.011719 78.84375 L 128.585938 92.917969 L 116.613281 84.214844 L 104.640625 92.917969 L 109.214844 78.84375 L 97.242188 70.140625 L 112.039062 70.140625 Z M 116.613281 56.0625 " fill-opacity="1" fill-rule="nonzero"/><path fill="#f8d12e" d="M 111.214844 279.433594 L 115.785156 293.515625 L 130.589844 293.515625 L 118.613281 302.210938 L 123.1875 316.285156 L 111.214844 307.589844 L 99.242188 316.285156 L 103.816406 302.210938 L 91.839844 293.515625 L 106.640625 293.515625 Z M 111.214844 279.433594 " fill-opacity="1" fill-rule="nonzero"/></svg>