<svg xmlns="http://www.w3.org/2000/svg" xmlns:xlink="http://www.w3.org/1999/xlink" width="500" zoomAndPan="magnify" viewBox="0 0 375 374.999991" height="500" preserveAspectRatio="xMidYMid meet" version="1.0"><path fill="#d7210a" d="M 375 187.472656 C 375 209.375 371.226562 230.421875 364.304688 249.980469 C 338.570312 322.785156 269.140625 375 187.472656 375 C 105.804688 375 36.429688 322.84375 10.695312 249.980469 C 3.773438 230.421875 0 209.433594 0 187.472656 Z M 375 187.472656 " fill-opacity="1" fill-rule="nonzero"/><path fill="#ededed" d="M 375 187.472656 L 0 187.472656 C 0 165.566406 3.773438 144.519531 10.695312 124.960938 C 36.429688 52.15625 105.859375 0 187.472656 0 C 269.082031 0 338.570312 52.15625 364.304688 125.019531 C 371.226562 144.519531 375 165.566406 375 187.472656 Z M 375 187.472656 " fill-opacity="1" fill-rule="nonzero"/></svg>