<svg xmlns="http://www.w3.org/2000/svg" xmlns:xlink="http://www.w3.org/1999/xlink" width="500" zoomAndPan="magnify" viewBox="0 0 375 374.999991" height="500" preserveAspectRatio="xMidYMid meet" version="1.0"><path fill="#5a3560" d="M -0.00390625 187.5 C -0.00390625 83.945312 83.945312 0 187.5 0 C 291.054688 0 375 83.945312 375 187.5 C 375 291.054688 291.054688 375 187.5 375 C 83.945312 375 -0.00390625 291.054688 -0.00390625 187.5 " fill-opacity="1" fill-rule="nonzero"/><path fill="#ffffff" d="M 107.628906 210.1875 L 99.820312 250.320312 L 200.191406 176.527344 L 206.398438 138.558594 L 107.628906 210.1875 " fill-opacity="1" fill-rule="nonzero"/><path fill="#ffffff" d="M 202.976562 64.15625 L 148.136719 80.113281 L 128.148438 186.996094 L 188.671875 140.960938 L 202.976562 64.15625 " fill-opacity="1" fill-rule="nonzero"/><path fill="#ffffff" d="M 106.878906 306.921875 L 117.640625 247.769531 L 177.875 200.890625 L 166.835938 258.175781 L 276.101562 258.175781 L 264.34375 310.847656 L 106.234375 311.542969 L 106.878906 306.921875 " fill-opacity="1" fill-rule="nonzero"/></svg>