<svg xmlns="http://www.w3.org/2000/svg" xmlns:xlink="http://www.w3.org/1999/xlink" width="500" zoomAndPan="magnify" viewBox="0 0 375 374.999991" height="500" preserveAspectRatio="xMidYMid meet" version="1.0"><path fill="#3eadcf" d="M 375 187.5 C 375 291.050781 291.050781 375 187.5 375 C 83.949219 375 0 291.050781 0 187.5 C 0 83.949219 83.949219 0 187.5 0 C 291.050781 0 375 83.949219 375 187.5 " fill-opacity="1" fill-rule="nonzero"/><path fill="#ffffff" d="M 215.824219 190.988281 C 214.523438 192.175781 213.242188 193.378906 211.96875 194.597656 C 210.449219 196.074219 210.492188 198.609375 211.96875 200.085938 C 213.488281 201.605469 215.933594 201.550781 217.453125 200.085938 C 218.71875 198.867188 220.007812 197.660156 221.3125 196.480469 C 222.871094 195.054688 222.753906 192.429688 221.3125 190.988281 C 219.769531 189.445312 217.382812 189.566406 215.824219 190.988281 " fill-opacity="1" fill-rule="nonzero"/><path fill="#ffffff" d="M 203.941406 204.652344 C 197.414062 216.417969 198.355469 230.03125 198.355469 243.023438 C 199.652344 241.734375 200.941406 240.441406 202.238281 239.144531 L 170.546875 239.144531 C 171.835938 240.441406 173.132812 241.734375 174.421875 243.023438 C 174.421875 236.675781 174.296875 230.316406 174.476562 223.972656 C 174.667969 216.835938 175.996094 209.621094 178.957031 203.09375 C 182.015625 196.375 186.78125 190.679688 191.828125 185.371094 C 197.382812 179.523438 203.441406 174.105469 209.304688 168.566406 C 218.242188 160.117188 226.417969 151.410156 228.179688 138.742188 C 229.746094 127.546875 227.886719 115.6875 220.726562 106.667969 C 213.542969 97.625 202.816406 93.125 191.503906 92.269531 C 180.253906 91.417969 169.050781 94.5 160.507812 101.984375 C 151.503906 109.867188 146.78125 121.457031 145.425781 133.117188 C 146.71875 131.828125 148.007812 130.53125 149.304688 129.242188 C 138.519531 128 127.730469 126.765625 116.9375 125.53125 C 118.1875 127.167969 119.4375 128.804688 120.679688 130.441406 C 122.792969 115.871094 128.542969 102.308594 138.648438 91.472656 C 148.773438 80.632812 162.445312 74.371094 176.929688 71.910156 C 205.484375 67.058594 239.234375 77.976562 250.664062 106.605469 C 255.894531 119.699219 256.117188 135.648438 251.890625 149.042969 C 247.105469 164.167969 235.0625 174.328125 223.433594 184.320312 C 219.628906 187.585938 225.148438 193.046875 228.917969 189.808594 C 240.5625 179.800781 251.734375 169.824219 257.800781 155.386719 C 263.464844 141.90625 263.726562 125.703125 260.378906 111.613281 C 257.042969 97.609375 248.402344 85.585938 236.929688 77.089844 C 224.851562 68.152344 209.753906 64.105469 194.929688 63.285156 C 175.285156 62.191406 155.515625 67.492188 139.976562 79.722656 C 124.953125 91.550781 115.910156 109.675781 113.203125 128.378906 C 112.808594 131.066406 114.226562 132.976562 116.9375 133.285156 C 127.730469 134.53125 138.519531 135.765625 149.304688 137 C 151.582031 137.261719 152.964844 135.023438 153.1875 133.117188 C 154.675781 120.316406 161.8125 107.957031 173.835938 102.515625 C 184.96875 97.46875 200.570312 99.25 210.09375 106.890625 C 220.371094 115.140625 222.878906 129.199219 219.761719 141.535156 C 217.160156 151.851562 208.257812 158.882812 200.847656 165.886719 C 188.933594 177.160156 176.117188 188.242188 170.253906 204.035156 C 165.65625 216.410156 166.667969 230.046875 166.667969 243.023438 C 166.667969 245.140625 168.433594 246.90625 170.546875 246.90625 L 202.238281 246.90625 C 204.351562 246.90625 206.109375 245.140625 206.109375 243.023438 C 206.109375 231.527344 204.875 218.972656 210.640625 208.574219 C 213.070312 204.199219 206.375 200.285156 203.941406 204.652344 " fill-opacity="1" fill-rule="nonzero"/><path fill="#ffffff" d="M 206.789062 290.5625 C 206.605469 300.925781 198.285156 308.78125 188.078125 308.933594 C 178.09375 309.082031 169.535156 300.863281 169.367188 290.894531 C 169.191406 280.394531 177.964844 272.675781 188.078125 272.53125 C 198.371094 272.375 206.621094 280.277344 206.789062 290.5625 C 206.867188 295.554688 214.621094 295.5625 214.542969 290.5625 C 214.3125 276.148438 203.125 265.402344 188.917969 264.785156 C 174.574219 264.152344 162.824219 275.175781 161.667969 289.265625 C 160.492188 303.417969 172.160156 315.078125 185.664062 316.582031 C 200.183594 318.195312 212.632812 307.113281 214.414062 293.023438 C 214.523438 292.207031 214.53125 291.382812 214.542969 290.5625 C 214.628906 285.554688 206.875 285.5625 206.789062 290.5625 " fill-opacity="1" fill-rule="nonzero"/></svg>