<svg xmlns="http://www.w3.org/2000/svg" xmlns:xlink="http://www.w3.org/1999/xlink" width="500" zoomAndPan="magnify" viewBox="0 0 375 374.999991" height="500" preserveAspectRatio="xMidYMid meet" version="1.0"><path fill="#1976d2" d="M 112.5 15.703125 C 54.554688 41.042969 12.074219 94.808594 2.335938 159.375 L 112.5 159.375 Z M 112.5 15.703125 " fill-opacity="1" fill-rule="nonzero"/><path fill="#1976d2" d="M 372.664062 215.625 L 168.75 215.625 L 168.75 374.054688 C 174.917969 374.664062 181.171875 375 187.5 375 C 281.464844 375 359.0625 305.804688 372.664062 215.625 Z M 372.664062 215.625 " fill-opacity="1" fill-rule="nonzero"/><path fill="#1976d2" d="M 2.335938 215.625 C 12.074219 280.191406 54.554688 333.957031 112.5 359.296875 L 112.5 215.625 Z M 2.335938 215.625 " fill-opacity="1" fill-rule="nonzero"/><path fill="#1976d2" d="M 372.664062 159.375 C 359.0625 69.195312 281.464844 0 187.5 0 C 181.171875 0 174.917969 0.335938 168.75 0.945312 L 168.75 159.375 Z M 372.664062 159.375 " fill-opacity="1" fill-rule="nonzero"/><path fill="#ffc107" d="M 372.664062 215.625 C 374.054688 206.429688 375 197.082031 375 187.5 C 375 177.917969 374.054688 168.570312 372.664062 159.375 L 168.75 159.375 L 168.75 0.945312 C 148.914062 2.914062 130.03125 8.042969 112.5 15.703125 L 112.5 159.375 L 2.335938 159.375 C 0.945312 168.570312 0 177.917969 0 187.5 C 0 197.082031 0.945312 206.429688 2.335938 215.625 L 112.5 215.625 L 112.5 359.296875 C 130.03125 366.964844 148.914062 372.085938 168.75 374.054688 L 168.75 215.625 Z M 372.664062 215.625 " fill-opacity="1" fill-rule="nonzero"/></svg>